<svg width="100" height="100" viewBox="0 0 100 100" fill="none" xmlns="http://www.w3.org/2000/svg">
<path fill-rule="evenodd" clip-rule="evenodd" d="M49.9804 3.125C53.3007 3.10547 53.6523 3.14453 54.1015 3.49609C54.5312 3.82812 54.6093 4.0625 54.7265 5.70312C54.7851 6.69922 54.8632 8.30078 54.8632 9.27734C54.8828 11.0352 54.8828 11.0352 56.3476 12.5H80.2734L80.7617 12.9883C81.1914 13.418 81.25 13.6523 81.25 14.7461C81.25 15.7422 81.3086 16.0156 81.5429 16.0156C81.6992 16.0156 82.3046 16.4844 82.8711 17.0312C83.5156 17.6758 83.9843 18.3594 84.1406 18.8477C84.2578 19.2773 84.375 19.9414 84.375 20.3125C84.375 20.6836 84.2773 21.3086 84.1601 21.6797C84.0234 22.0508 83.7304 22.6562 83.0078 23.6328L89.9414 38.2422C96.5039 52.0508 96.8945 52.8906 96.875 53.9062C96.875 54.4922 96.6992 55.7227 96.5039 56.6406C96.3086 57.5586 95.8984 58.8672 95.625 59.5703C95.332 60.2734 94.6875 61.5039 94.1797 62.3047C93.6914 63.1055 92.6562 64.3945 91.8945 65.1562C91.1523 65.918 89.8242 67.0117 88.9648 67.5586C88.1054 68.125 86.7187 68.8281 85.8789 69.1406C85.0586 69.4727 83.6133 69.8633 82.6562 70.0195C81.7187 70.1758 80.3906 70.3125 79.6875 70.3125C78.9843 70.3125 77.6562 70.1758 76.6992 70.0195C75.7617 69.8633 74.3554 69.4922 73.5742 69.1797C72.8125 68.8867 71.4648 68.2031 70.6054 67.6758C69.7461 67.1484 68.3789 66.0547 67.5781 65.2344C66.7578 64.4336 65.664 63.0664 65.1367 62.207C64.6093 61.3477 63.9257 60 63.6328 59.2188C63.3203 58.457 62.9492 57.0508 62.7929 56.0938C62.6367 55.1562 62.5 54.043 62.5 53.6133C62.4804 52.9883 63.8476 49.9609 76.3671 23.6328L75.8789 22.9883C75.625 22.6562 75.3906 22.2461 75.3906 22.1094C75.3906 21.9336 73.3593 21.875 56.3476 21.8555L55.4492 22.7539L56.5429 50.9766C57.1289 66.5039 57.6757 79.668 57.8125 81.25H77.1484L77.6367 81.7383C78.1054 82.207 78.125 82.3047 78.125 87.5H88.0859L88.5742 87.9883C89.0625 88.4766 89.0625 88.4961 89.0625 92.1875C89.0625 95.8594 89.0625 95.8984 88.1054 96.875H11.914L11.4257 96.3867C10.9375 95.8984 10.9375 95.8789 10.9375 92.1875C10.9375 88.5156 10.9375 88.4766 11.8945 87.5H21.875V84.8633C21.875 82.3242 21.8945 82.207 22.832 81.25H42.1875L42.2851 80.2148C42.3242 79.668 42.8711 66.5039 44.5507 22.7539L43.6523 21.8555L34.1406 21.875C26.6406 21.875 24.6093 21.9336 24.6093 22.1094C24.6093 22.2461 24.375 22.6562 23.6328 23.6328L30.5664 38.2227C36.1523 49.9609 37.5195 52.9883 37.5 53.6133C37.5 54.043 37.3632 55.1562 37.207 56.0938C37.0507 57.0508 36.6797 58.457 36.3672 59.2188C36.0742 60 35.3906 61.3477 34.8632 62.207C34.3359 63.0664 33.2812 64.3945 32.5195 65.1562C31.7773 65.918 30.4492 67.0117 29.5898 67.5586C28.7304 68.125 27.3437 68.8281 26.5234 69.1406C25.6836 69.4727 24.2382 69.8633 23.3007 70.0195C22.3437 70.1758 21.0156 70.3125 20.3125 70.3125C19.6093 70.3125 18.2812 70.1758 17.3437 70.0195C16.3867 69.8633 14.9804 69.4922 14.2187 69.1797C13.4375 68.8867 12.0898 68.2031 11.2304 67.6758C10.3711 67.1484 9.00387 66.0547 8.20309 65.2344C7.38278 64.4336 6.30856 63.1055 5.82028 62.3047C5.31246 61.5039 4.66793 60.293 4.3945 59.6094C4.12106 58.9453 3.73043 57.6562 3.51559 56.7383C3.30075 55.8203 3.12496 54.5703 3.12496 53.9453C3.10543 52.8711 3.3984 52.2266 16.9922 23.6328L16.5234 22.9883C16.2695 22.6562 15.9765 22.0508 15.8398 21.6797C15.7226 21.3086 15.625 20.6836 15.625 20.3125C15.625 19.9414 15.7422 19.2773 15.8593 18.8477C16.0156 18.3594 16.4843 17.6758 17.1289 17.0312C17.6757 16.4844 18.2812 16.0156 18.4375 16.0156C18.6914 16.0156 18.75 15.7617 18.75 14.7461C18.75 13.6523 18.8281 13.3984 19.707 12.5H43.6523L45.1172 11.0352L45.1367 9.27734C45.1562 8.30078 45.2148 6.69922 45.3125 5.70312C45.4297 4.14062 45.5273 3.80859 45.8984 3.49609C46.289 3.16406 46.6797 3.125 49.9804 3.125ZM48.3593 6.97266C48.3007 7.38281 48.2422 8.10547 48.2422 8.59375V9.47266H51.7578C51.7578 8.10547 51.6797 7.38281 51.6015 6.97266L51.4648 6.25H48.4765L48.3593 6.97266ZM46.7773 13.9453C46.1718 14.5508 45.7031 15.2344 45.5468 15.7031C45.4297 16.1328 45.3125 16.7969 45.3125 17.168C45.3125 17.5586 45.4297 18.2031 45.5468 18.6328C45.7031 19.1211 46.1718 19.8047 46.7773 20.4102C47.3632 21.0156 48.0664 21.4844 48.5351 21.6211C48.9648 21.7578 49.6289 21.8555 50 21.8555C50.3711 21.8555 51.0351 21.7578 51.4648 21.6211C51.9336 21.4844 52.6367 21.0156 53.2226 20.4102C53.8281 19.8047 54.2968 19.1211 54.4531 18.6328C54.5703 18.2031 54.6875 17.5586 54.6875 17.168C54.6875 16.7969 54.5703 16.1328 54.4531 15.7031C54.2968 15.2344 53.8281 14.5508 53.2226 13.9453C52.6367 13.3398 51.9336 12.8711 51.4648 12.7344C51.0351 12.5977 50.332 12.5 49.9023 12.5195C49.4726 12.5195 48.8086 12.6367 48.4375 12.7539C48.0664 12.8711 47.3047 13.3984 46.7773 13.9453ZM22.1679 15.9961C22.3242 15.9961 22.9492 16.4844 23.5351 17.0703C24.1211 17.6758 24.6093 18.2812 24.6093 18.4375C24.6093 18.7109 25.7226 18.7305 33.457 18.7305H42.2851V15.6055C25.4101 15.6055 21.875 15.6836 21.875 15.8008C21.875 15.918 22.0117 15.9961 22.1679 15.9961ZM57.7148 18.7305C74.2773 18.7305 75.3906 18.7109 75.3906 18.4375C75.3906 18.2812 75.8593 17.6758 76.4453 17.0703C77.0312 16.4844 77.6562 15.9961 77.8125 15.9961C77.9882 15.9961 78.125 15.918 78.125 15.8008C78.125 15.6836 74.5898 15.6055 67.9296 15.6055H57.7148V18.7305ZM18.75 20.293C18.75 20.6836 18.9257 21.0547 19.2382 21.3672C19.5507 21.6797 19.9414 21.8555 20.3125 21.8555C20.7031 21.8555 21.0937 21.6797 21.3867 21.3672C21.6992 21.0742 21.875 20.6641 21.875 20.293C21.875 19.9414 21.6992 19.5312 21.3867 19.2188C21.0742 18.9258 20.6836 18.7305 20.3125 18.7305C19.9218 18.7305 19.5312 18.9258 19.2382 19.2188C18.9648 19.5117 18.7695 19.9414 18.75 20.293ZM78.125 20.293C78.125 20.6836 78.3007 21.0547 78.6132 21.3672C78.9257 21.6797 79.3164 21.8555 79.6875 21.8555C80.0781 21.8555 80.4687 21.6797 80.7617 21.3672C81.0742 21.0742 81.25 20.6641 81.25 20.293C81.25 19.9414 81.0742 19.5312 80.7617 19.2188C80.4492 18.9258 80.0586 18.7305 79.6875 18.7305C79.2968 18.7305 78.9062 18.9258 78.6132 19.2188C78.3398 19.5117 78.1445 19.9414 78.125 20.293ZM47.5195 26.8359C47.4804 28.0273 47.0117 40.0586 46.4843 53.5938C45.957 67.1289 45.4882 78.8867 45.4101 79.7266L45.3125 81.2305H54.6875C54.5312 78.8867 54.0429 67.1289 53.5156 53.5938C52.9882 40.0586 52.5 28.0273 52.4218 26.8359L52.3046 24.6875C50.332 25 49.4922 25 48.75 24.8828L47.5976 24.6875L47.5195 26.8359ZM7.26559 51.3672C7.24606 51.4648 12.5976 51.543 20.3125 51.543C28.0273 51.543 33.3789 51.4648 33.3398 51.3672C33.3203 51.2695 30.4882 45.293 27.0507 38.0859C21.1523 25.7031 20.7812 24.9805 20.2929 24.9805C19.8242 24.9805 19.4336 25.7422 13.5547 38.0859C10.1367 45.293 7.30465 51.2695 7.26559 51.3672ZM66.6406 51.3672C66.6211 51.4648 71.9726 51.543 79.6875 51.543C87.4023 51.543 92.7539 51.4648 92.7148 51.3672C92.6953 51.2695 89.8632 45.293 86.4257 38.0859C80.5273 25.7031 80.1562 24.9805 79.6679 24.9805C79.1992 24.9805 78.8086 25.7422 72.9296 38.0859C69.5117 45.293 66.6797 51.2695 66.6406 51.3672ZM6.44528 55.2539C6.44528 55.5859 6.66012 56.5234 6.93356 57.3633C7.18746 58.1836 7.73434 59.4336 8.1445 60.1172C8.55465 60.8203 9.37496 61.8945 9.9609 62.5391C10.5468 63.1836 11.6015 64.1211 12.3047 64.6094C13.0078 65.0977 14.1797 65.7617 14.9414 66.0742C15.6836 66.3672 16.9531 66.7578 17.7148 66.8945C18.4961 67.0508 19.6679 67.168 20.3125 67.168C20.957 67.168 22.1289 67.0508 22.8906 66.8945C23.6718 66.7578 24.9218 66.3672 25.6836 66.0742C26.4257 65.7617 27.6172 65.0977 28.3203 64.6094C29.0234 64.1211 30.0781 63.1836 30.664 62.5391C31.25 61.8945 32.0703 60.8203 32.4804 60.1172C32.8906 59.4336 33.4375 58.1836 33.6914 57.3633C33.9648 56.5234 34.1797 55.5859 34.1797 55.2539V54.668H6.44528V55.2539ZM65.8203 55.2539C65.8203 55.5859 66.0351 56.5234 66.3086 57.3633C66.5625 58.1836 67.1093 59.4336 67.5195 60.1172C67.9297 60.8203 68.75 61.8945 69.3359 62.5391C69.9218 63.1836 70.9765 64.1211 71.6796 64.6094C72.3828 65.0977 73.5546 65.7617 74.3164 66.0742C75.0586 66.3672 76.3281 66.7578 77.0898 66.8945C77.8711 67.0508 79.0429 67.168 79.6875 67.168C80.332 67.168 81.5039 67.0508 82.2656 66.8945C83.0468 66.7578 84.2968 66.3672 85.0586 66.0742C85.8007 65.7617 86.9921 65.0977 87.6953 64.6094C88.3984 64.1211 89.4531 63.1836 90.039 62.5391C90.625 61.8945 91.4453 60.8203 91.8554 60.1172C92.2656 59.4336 92.8125 58.1836 93.0664 57.3633C93.3398 56.5234 93.5546 55.5859 93.5546 55.2539V54.668H65.8203V55.2539ZM25 87.4805H75V84.3555H25V87.4805ZM14.0625 93.7305H85.9375V90.6055H14.0625V93.7305Z" fill="#4BA9EF"/>
</svg>
