<svg width="100" height="100" viewBox="0 0 100 100" fill="none" xmlns="http://www.w3.org/2000/svg">
<g clip-path="url(#clip0_153_539)">
<path fill-rule="evenodd" clip-rule="evenodd" d="M71.543 0H80.3125C88.9258 0 89.082 0 89.7852 0.429688C90.1953 0.664062 90.7812 1.07422 91.0938 1.34766C91.4062 1.62109 91.8359 2.24609 92.0703 2.73438C92.4609 3.57422 92.4805 3.92578 92.5391 11.9141C92.5781 16.4844 92.5586 20.4102 92.4805 20.6641C92.4219 20.8984 92.207 21.2695 91.9922 21.4844C91.6211 21.8555 91.3281 21.875 87.9297 21.875C84.5898 21.8945 84.2383 21.8555 83.7891 21.5039C83.3203 21.1328 83.3008 21.0352 83.1836 15.918L75.5273 23.5547C70.4883 28.5938 67.5781 31.3672 66.9922 31.6602C66.1328 32.1289 66.0156 32.1289 52.5391 32.2266L43.2031 42.4023C35.8984 50.3711 33.6914 52.6562 33.0078 52.9883C32.1289 53.418 32.0898 53.418 8.22266 53.418L7.77344 52.9688C7.34375 52.5391 7.32422 52.4219 7.32422 45.0781L8.39844 44.1406H13.4375C18.1836 44.1211 18.4766 44.1406 18.9844 44.5312C19.3945 44.8242 19.5312 45.0977 19.5312 45.5469C19.5312 45.8984 19.4141 46.3672 19.2578 46.582C19.0039 46.9531 18.6914 46.9727 10.2539 47.168V50.4883L20.6641 50.5273C28.6328 50.5664 31.1914 50.5273 31.6211 50.332C31.9727 50.1953 36.0742 45.8594 51.1523 29.3945L65.625 29.1992L74.7461 20.0781C81.5039 13.3398 84.043 10.918 84.4727 10.8398C84.9023 10.7422 85.1953 10.8008 85.5469 11.0938C86.0352 11.4648 86.0352 11.4844 86.1328 18.9453H89.6484V11.8164C89.6484 5.91797 89.5898 4.57031 89.3555 4.00391C89.1992 3.63281 88.8867 3.22266 88.6719 3.125C88.4375 3.00781 85.4492 2.92969 73.6328 2.92969V6.25L77.2266 6.28906C80.5078 6.34766 80.8594 6.38672 81.2305 6.73828C81.5039 6.99219 81.6602 7.36328 81.6406 7.8125C81.6406 8.45703 81.0547 9.08203 64.3555 25.7812H57.3242C50.3125 25.7617 50.293 25.7812 49.668 26.2109C49.3164 26.4648 45.0195 31.0547 40.1172 36.4258C35.2344 41.7969 30.9961 46.3867 30.7422 46.6406C30.293 47.0508 30.0977 47.0703 27.4023 47.0703C24.9219 47.0898 24.4531 47.0312 24.0625 46.7383C23.75 46.5039 23.6133 46.1719 23.5938 45.7031C23.5938 45.1953 23.7109 44.9023 24.1016 44.5898C24.5703 44.1797 24.8047 44.1406 29.1016 44.1406L38.4375 33.9648C44.7266 27.0703 48.0078 23.6328 48.5352 23.3594C49.2773 22.9688 49.6289 22.9492 63.1836 22.832L69.8633 16.1523C73.5352 12.4805 76.5039 9.41406 76.4453 9.33594C76.4062 9.23828 75.2734 9.17969 73.9258 9.17969C71.7383 9.17969 71.4453 9.14062 71.0938 8.78906C70.7422 8.4375 70.7031 8.10547 70.6641 4.64844C70.625 0.957031 70.625 0.898438 71.0938 0.449219L71.543 0ZM74.668 37.5H83.125C91.3281 37.5 91.6016 37.5195 91.9727 37.8906C92.1875 38.1055 92.4219 38.4766 92.4805 38.7305C92.5391 38.9648 92.5586 44.2383 92.4609 61.7578L91.9727 62.1289C91.7188 62.3438 91.25 62.5195 90.957 62.5195C90.6641 62.5 90.2344 62.3242 90.0195 62.1094C89.6484 61.7383 89.6289 61.4648 89.6289 40.4297H76.7383V90.8203L89.5312 90.7227L89.6289 67.1875L90.1758 66.7969C90.4688 66.582 90.8203 66.4062 90.957 66.4062C91.0938 66.4062 91.4258 66.5234 91.6992 66.6602C91.9531 66.7969 92.2656 67.168 92.3828 67.4805C92.5 67.8516 92.5781 72.4219 92.5586 90.8203H95.8398C98.9648 90.8398 99.1211 90.8594 99.5508 91.2695C99.9805 91.6797 100 91.8164 100 95.3125C100 98.6523 99.9609 98.9648 99.1992 100H23.418L23.0273 99.4727C22.8125 99.1797 22.6367 98.7305 22.6367 98.4961C22.6367 98.2422 22.8516 97.832 23.5938 97.0703H97.0508V93.75H2.91016V97.0703H17.7539L18.2422 97.5586C18.5156 97.832 18.75 98.2422 18.75 98.4961C18.75 98.7305 18.5742 99.1797 17.9492 100H0.761719L0.371094 99.4727C3.72529e-09 98.9648 -0.0195312 98.6328 -0.0195312 95.4102C-0.0195312 92.1875 -1.86265e-08 91.8555 0.761719 90.8203H7.40234L7.5 67.5977L8.39844 66.6992L16.25 66.6406C20.5664 66.6211 24.3945 66.6406 24.7461 66.6992C25.0977 66.7578 25.5469 66.9727 25.7617 67.1875C26.1523 67.5781 26.1523 67.832 26.1523 90.8203L29.5703 90.7227L29.668 74.2578C29.7656 58.0664 29.7852 57.7734 30.1562 57.5C30.4883 57.2656 31.9727 57.2266 47.3438 57.2266L48.2227 58.1055L48.3203 90.7227H51.6406L51.7383 46.1914L52.1484 45.8008C52.5586 45.4297 52.832 45.4102 61.0156 45.4102C69.2188 45.4102 69.4922 45.4297 70.3125 46.1914L70.3906 90.7227L73.8086 90.8203L73.75 38.3984L74.668 37.5ZM54.668 90.8203H67.3633V48.2422H54.668V90.8203ZM32.5977 90.8203H45.293V60.1562H32.5977V90.8203ZM10.3906 80.3711L10.4297 90.7227L23.2227 90.8203V69.5312C11.9727 69.5312 10.5078 69.5898 10.4297 69.7852C10.3711 69.9219 10.3516 74.6875 10.3906 80.3711Z" fill="#4BA9EF"/>
</g>
<defs>
<clipPath id="clip0_153_539">
<rect width="100" height="100" fill="white"/>
</clipPath>
</defs>
</svg>
