<svg width="100" height="100" viewBox="0 0 100 100" fill="none" xmlns="http://www.w3.org/2000/svg">
<path fill-rule="evenodd" clip-rule="evenodd" d="M87.886 10.5493C88.8089 10.5263 89.455 10.6647 90.0549 11.0109C90.5395 11.2878 91.1625 11.7263 91.4624 11.9802C91.7624 12.2571 92.2008 12.9033 92.4315 13.411C92.7084 13.988 92.893 14.8188 92.893 15.6034C92.8699 16.5496 92.7315 17.1496 92.2469 17.9805C91.9008 18.6036 91.2548 19.3421 90.8164 19.6421C90.378 19.9421 89.5473 20.2883 88.9705 20.4267C88.2783 20.5806 87.5476 20.5806 86.7785 20.4267C86.1324 20.2883 85.6248 20.219 85.6017 20.2652C85.5786 20.3113 82.7636 23.8884 79.3026 28.2502C75.8646 32.5889 73.0496 36.2352 73.0496 36.3737C73.0496 36.5121 73.2111 36.8352 73.3957 37.1352C73.5803 37.4122 73.8111 38.1737 73.8803 38.7968C73.9495 39.443 73.9034 40.3661 73.7649 40.8739C73.6265 41.3816 73.1881 42.2124 72.7727 42.697C72.3574 43.2047 71.596 43.8048 71.0884 44.0356C70.5807 44.2433 69.6347 44.451 69.0117 44.451C68.3657 44.451 67.4427 44.2433 66.9351 44.0125C66.4275 43.7817 65.6661 43.2278 65.2507 42.7663C64.8585 42.2816 64.397 41.6354 64.2586 41.2893C64.1201 40.92 64.0509 39.9969 64.1663 37.7583L58.8593 34.3889C54.6368 31.7119 53.4832 31.0657 53.2063 31.2734C53.0217 31.4119 52.5371 31.6888 52.1679 31.9196C51.7757 32.1273 50.945 32.3119 50.2067 32.3119C49.5145 32.335 48.6838 32.2658 48.3608 32.1504C47.8301 32.0119 47.3225 32.5196 34.9781 46.7588L35.4395 47.7511C35.6933 48.3281 35.901 49.2281 35.901 49.9435C35.901 50.5897 35.7395 51.5359 35.5318 52.0206C35.3472 52.4821 34.955 53.1283 34.6781 53.4052C34.4012 53.7052 33.7552 54.1668 33.2475 54.4437C32.6245 54.7668 31.8862 54.9284 30.9402 54.9284C29.9019 54.9515 29.3481 54.813 28.7482 54.4437C28.3098 54.1437 27.7329 53.7976 27.4791 53.6591C27.0638 53.4283 26.4177 53.8668 17.096 60.9748L16.9575 62.4749C16.8883 63.2826 16.6576 64.275 16.473 64.6442C16.2653 65.0135 15.8038 65.6135 15.4347 65.9366C15.0886 66.2828 14.4425 66.7213 14.0272 66.929C13.6118 67.1367 12.735 67.2982 12.0198 67.2982C11.2353 67.2982 10.4277 67.1367 9.87391 66.8597C9.41243 66.6059 8.7433 66.1212 8.39719 65.752C8.05109 65.4058 7.61269 64.7135 7.4281 64.2519C7.22043 63.7673 7.05892 62.8903 7.05892 62.2903C7.05892 61.6672 7.26658 60.7671 7.49732 60.2594C7.72805 59.7517 8.2126 59.0594 8.58178 58.7132C8.95096 58.367 9.64317 57.9285 10.1046 57.7439C10.5892 57.5362 11.4429 57.3747 12.0198 57.3747C12.5966 57.3747 13.4503 57.5362 13.9118 57.7439C14.3963 57.9285 15.0193 58.2978 15.2962 58.5516C15.5962 58.7824 15.9654 58.9209 16.1038 58.8286C16.2653 58.7363 18.5727 57.0054 26.0024 51.259L25.9793 50.1051C25.9793 49.2743 26.1408 48.605 26.6254 47.6819C27.1099 46.7357 27.5714 46.228 28.4021 45.7203C29.3481 45.1202 29.7173 45.0279 30.9171 45.0741C31.7016 45.0971 32.5323 45.1433 32.8091 45.1895C33.2014 45.2356 34.6089 43.7125 39.662 37.8737C45.5458 31.0426 46.0073 30.4426 45.7073 30.0272C45.5458 29.7733 45.2689 29.1041 45.1074 28.5271C44.8767 27.7194 44.8767 27.2347 45.0843 26.3347C45.2458 25.6654 45.6842 24.7885 46.1227 24.2808C46.5149 23.7961 47.2763 23.173 47.784 22.9192C48.3839 22.5961 49.1453 22.4345 49.976 22.4345C50.8066 22.4345 51.568 22.5961 52.1679 22.9192C52.6756 23.173 53.437 23.7961 53.8293 24.2808C54.2446 24.7654 54.7061 25.6424 54.8445 26.2193C54.9829 26.7963 55.0291 27.6732 54.7983 29.1041L65.4353 35.9121L66.289 35.3351C66.7736 35.012 67.535 34.689 67.9734 34.5966C68.4118 34.5274 69.1963 34.5274 69.7039 34.5966C70.2116 34.6428 70.7423 34.7351 70.8807 34.7813C71.0422 34.8274 74.0418 31.2503 83.9404 18.719L83.4559 17.7266C83.1559 17.1035 82.9713 16.3188 82.9713 15.5342C82.9713 14.8188 83.1559 13.9649 83.4328 13.411C83.6635 12.9033 84.1019 12.2571 84.4019 11.9802C84.7018 11.7263 85.3018 11.2878 85.7401 11.034C86.2708 10.7109 86.9861 10.5493 87.8629 10.5493H87.886ZM85.3248 15.3496C85.3018 15.8804 85.4171 16.5265 85.5556 16.8035C85.694 17.1035 86.0632 17.542 86.4093 17.7728C86.7554 18.0266 87.4015 18.2343 87.8629 18.2343C88.3244 18.2574 88.9705 18.0958 89.3396 17.9112C89.6857 17.7266 90.1241 17.2881 90.2857 16.9189C90.4703 16.5727 90.6087 15.8804 90.6087 15.3726C90.6087 14.6341 90.4472 14.288 89.8011 13.6418C89.1089 12.9494 88.832 12.8341 87.9321 12.8341C87.0323 12.8341 86.7554 12.9494 86.1093 13.6187C85.5094 14.2418 85.3479 14.6111 85.3248 15.3496ZM47.8993 25.6193C47.484 26.1039 47.3456 26.5424 47.3456 27.4194C47.3456 28.4579 47.4379 28.6425 48.1993 29.3579C48.8915 29.981 49.2607 30.1426 49.999 30.1426C50.7143 30.1426 51.1066 29.981 51.7526 29.381C52.3525 28.8271 52.5833 28.4117 52.6756 27.7194C52.7448 27.1886 52.6525 26.5424 52.491 26.2193C52.3295 25.9193 51.8218 25.4116 51.3834 25.1346C50.945 24.8346 50.3221 24.6039 49.999 24.6039C49.676 24.6269 49.1914 24.7192 48.9376 24.8116C48.6608 24.9039 48.1762 25.2731 47.8993 25.6193ZM83.2713 34.5274H92.4546L93.839 35.9121V87.1453H96.3079C98.3384 87.1453 98.8691 87.2376 99.2152 87.5607C99.4459 87.7684 99.6305 88.1377 99.6074 88.3454C99.6074 88.5762 99.4459 88.9223 99.2382 89.107C98.9152 89.407 93.1237 89.4531 49.976 89.4531C6.82818 89.4531 1.03669 89.407 0.73673 89.107C0.552141 88.9223 0.390625 88.5762 0.390625 88.3454C0.390625 88.1377 0.575215 87.7684 0.805952 87.5377C1.12898 87.1915 1.59046 87.1222 6.15904 87.1453V81.3758C6.15904 76.7141 6.22826 75.4678 6.50515 74.914C6.71281 74.4755 7.12814 74.1293 7.58961 73.9908C8.00494 73.8524 10.0123 73.7601 12.0428 73.7601C14.0733 73.7601 16.0807 73.8524 16.473 73.9908C16.9575 74.1293 17.3729 74.4755 17.5805 74.914C17.8574 75.4678 17.9266 76.7141 17.9266 87.1453H25.0795V65.2212L26.2331 63.8365H35.6933L36.847 64.9904V87.1453H43.9999L44.1152 48.1434L45.3843 46.8742H54.6599L55.7674 48.1434V87.1453H63.151V56.9131L64.4893 55.5284H68.781C71.7575 55.5284 73.2573 55.6207 73.6495 55.8054C73.9726 55.9669 74.3879 56.4515 74.5725 56.8439C74.8724 57.4901 74.9186 59.9132 74.9186 87.1453H82.0714L82.0253 35.9582L83.2713 34.5274ZM28.6559 48.605C28.4713 48.9743 28.3098 49.5974 28.3098 49.9897C28.3098 50.3589 28.4713 50.982 28.6559 51.3744C28.8405 51.7436 29.325 52.2052 29.6942 52.4129C30.0864 52.5975 30.6633 52.7591 31.0325 52.7591C31.3786 52.7591 32.0246 52.5283 32.463 52.2283C32.9707 51.8821 33.386 51.3744 33.5936 50.7743C33.8705 49.9666 33.8705 49.7589 33.5244 48.9973C33.3168 48.5127 32.8091 47.9357 32.4169 47.6819C32.0016 47.428 31.3555 47.2203 30.9632 47.2203C30.5941 47.2203 29.9941 47.3819 29.648 47.5665C29.2789 47.7511 28.8405 48.2127 28.6559 48.605ZM9.41243 62.3134C9.38936 63.2134 9.50473 63.4673 10.1969 64.1827C10.8891 64.8519 11.166 64.9904 12.0659 64.9904C12.9658 64.9904 13.2427 64.875 13.9118 64.1827C14.5579 63.4903 14.6963 63.1903 14.6963 62.3364C14.6963 61.4364 14.5809 61.1595 13.8887 60.4902C13.1965 59.7979 12.9196 59.6825 12.0198 59.6825C11.1199 59.6825 10.843 59.7979 10.1969 60.4671C9.57395 61.0902 9.4355 61.4364 9.41243 62.3134ZM66.5659 38.1968C66.4044 38.4968 66.266 39.0738 66.266 39.4892C66.266 39.8815 66.4044 40.4585 66.5659 40.7816C66.7274 41.0816 67.1658 41.497 67.535 41.7278C67.9273 41.9585 68.6656 42.1432 69.1732 42.1432C69.9578 42.1432 70.2577 41.9816 70.9038 41.3354C71.5498 40.6431 71.6883 40.3431 71.6883 39.4892C71.6883 38.5891 71.5729 38.3122 70.8807 37.6429C70.2116 36.9506 69.9116 36.8352 69.104 36.8352C68.5503 36.8352 67.835 37.0198 67.4889 37.2275C67.1428 37.4583 66.7274 37.8737 66.5659 38.1968ZM84.3788 87.1453H91.5316V36.8352H84.3788V87.1453ZM46.3072 87.1453H53.6908V49.0666H46.3072V87.1453ZM65.4584 87.1453H72.6112V57.8362H65.4584V87.1453ZM27.3868 87.1453H34.5397V65.9135H27.3868V87.1453ZM8.46641 87.1453H15.6193V76.0679H8.46641V87.1453ZM19.9571 13.0648C20.6032 13.0648 21.9645 13.2264 22.9567 13.4341C23.9258 13.6187 25.3563 14.0803 26.1178 14.4264C26.8792 14.7726 28.1252 15.5342 28.8866 16.1111C29.648 16.6881 30.7556 17.7728 31.3324 18.5113C31.9323 19.2498 32.7168 20.519 33.1322 21.3037C33.5244 22.0883 34.009 23.4038 34.1936 24.1884C34.3781 24.9731 34.5397 26.5655 34.5397 27.7194C34.5397 29.1041 34.3781 30.3503 34.0551 31.5273C33.8013 32.4735 33.2475 33.8812 32.8322 34.6428C32.3938 35.4044 31.5401 36.5814 30.9171 37.2968C30.2941 37.9891 29.0481 39.0507 28.1713 39.6507C27.2945 40.2508 25.7947 41.0354 24.8487 41.3585C23.5797 41.8201 22.5183 42.0047 20.8108 42.0739C19.1726 42.1432 18.042 42.0739 16.8883 41.797C16.0115 41.5893 14.4886 41.0354 13.5426 40.5739C12.2505 39.9507 11.3275 39.2353 9.9662 37.8737C8.72022 36.6275 7.84342 35.4967 7.26658 34.412C6.80511 33.512 6.25134 32.1042 6.0206 31.2965C5.76679 30.3041 5.62835 28.9656 5.65142 27.4886C5.65142 25.6654 5.78987 24.7654 6.25134 23.3346C6.57437 22.3191 7.22043 20.8652 7.72805 20.1036C8.2126 19.3421 8.97403 18.3036 9.41243 17.8189C9.85083 17.3112 10.8199 16.4573 11.5814 15.9265C12.3428 15.3726 13.5426 14.6803 14.2348 14.3572C14.927 14.0572 16.2422 13.6418 17.119 13.4341C18.0189 13.2495 19.288 13.0879 19.9571 13.0648ZM14.5809 16.7342C13.5195 17.265 12.4582 18.0497 11.466 19.042C10.52 19.9882 9.66624 21.1191 9.20477 22.0653C8.78944 22.873 8.28182 24.4423 8.07416 25.527C7.75113 27.1886 7.72805 27.7425 7.95879 29.3349C8.14338 30.5811 8.53563 31.758 9.13555 33.0273C9.82776 34.4351 10.4046 35.2197 11.6044 36.3737C12.4812 37.2045 13.7734 38.1507 14.4656 38.4968C15.1578 38.843 16.3115 39.2815 17.0037 39.4892C17.6959 39.6738 19.1034 39.8123 20.1186 39.8123C21.1339 39.8123 22.5414 39.6738 23.2336 39.4892C23.9258 39.2815 25.0564 38.843 25.7486 38.4968C26.4177 38.1507 27.5483 37.3429 28.2636 36.7198C28.9789 36.0736 29.948 34.9428 30.4326 34.1812C30.9402 33.4197 31.5401 32.1042 31.7939 31.2965C32.1169 30.258 32.2784 29.1271 32.2784 27.7194C32.2784 26.5193 32.14 25.1346 31.9554 24.4885C31.7477 23.8423 31.2863 22.7115 30.894 21.9499C30.5248 21.1883 29.7865 20.0806 29.3019 19.5267C28.7943 18.9497 27.8252 18.0958 27.133 17.6112C26.4408 17.1266 25.1718 16.4804 24.2719 16.1573C23.1182 15.7188 22.0568 15.5342 20.5801 15.465C19.3572 15.4188 18.0189 15.488 17.3498 15.6496C16.7268 15.8111 15.4808 16.2958 14.5809 16.7342ZM15.3885 19.0651C15.8269 19.0651 16.6114 19.2498 17.119 19.4805C17.6267 19.7113 18.2958 20.2421 18.6188 20.6806C18.9649 21.1883 19.2187 21.8806 19.2649 22.6422C19.3341 23.4961 19.2418 24.0269 18.8726 24.7654C18.6188 25.2962 18.042 25.9655 17.6497 26.2193C17.2344 26.4501 16.5191 26.727 16.0807 26.8193C15.6423 26.8886 14.927 26.8886 14.5348 26.8193C14.1195 26.727 13.4042 26.3347 12.9427 25.9193C12.5043 25.5039 11.9505 24.6962 11.7659 24.1423C11.4429 23.2422 11.4198 22.9422 11.6737 22.0653C11.8352 21.4883 12.1813 20.7037 12.4582 20.3344C12.7581 19.9652 13.335 19.5267 13.7734 19.3651C14.2118 19.2036 14.9501 19.0651 15.3885 19.0651ZM26.5792 19.9652C26.8331 19.9652 27.1792 20.1036 27.3407 20.2652C27.5022 20.4267 27.6176 20.8191 27.6176 21.1421C27.6176 21.5806 26.0947 23.2422 20.88 28.4579C15.2962 34.0428 14.0041 35.2197 13.4965 35.2197C13.0811 35.2197 12.7581 35.0351 12.6197 34.7582C12.5043 34.5043 12.4351 34.112 12.5043 33.8812C12.5735 33.6504 15.6654 30.4426 19.3803 26.727C23.6027 22.5268 26.3024 19.9652 26.5792 19.9652ZM13.7503 22.8499C13.7503 23.1038 13.981 23.6115 14.2348 23.9577C14.5579 24.3962 14.904 24.6039 15.3885 24.6039C15.7808 24.6039 16.2884 24.3962 16.5422 24.1423C16.8191 23.8423 17.0037 23.3576 17.0037 22.873C17.0037 22.273 16.8652 21.9499 16.496 21.696C16.1961 21.5114 15.6885 21.3498 15.3424 21.3498C14.9963 21.3498 14.4886 21.5806 14.2348 21.8576C13.981 22.1345 13.7503 22.5961 13.7503 22.8499ZM25.4256 28.4579C25.8178 28.5271 26.51 28.8271 26.9946 29.1271C27.456 29.4272 28.0329 30.0041 28.2406 30.4195C28.4482 30.8349 28.6328 31.6888 28.6328 32.335C28.6559 33.235 28.5174 33.7428 28.056 34.412C27.7329 34.9197 27.0869 35.4967 26.6254 35.7275C26.1639 35.9582 25.2871 36.1429 24.6872 36.1429C23.9027 36.1429 23.3489 35.9813 22.7952 35.6121C22.3568 35.3351 21.7799 34.8043 21.5261 34.4351C21.2031 33.9966 21.0185 33.3504 20.9723 32.4735C20.9031 31.4119 20.9723 31.0195 21.4338 30.3734C21.7338 29.958 22.2183 29.4041 22.5414 29.1502C22.8644 28.9194 23.4874 28.6425 23.9258 28.5271C24.3642 28.4348 25.0564 28.4117 25.4256 28.4579ZM23.2105 32.335C23.2336 32.9119 23.3951 33.2581 23.8796 33.6043C24.295 33.9274 24.6872 34.0428 25.0795 33.9505C25.4025 33.8581 25.8409 33.5812 26.0716 33.3043C26.3024 33.0043 26.4869 32.5889 26.4869 32.335C26.4869 32.0811 26.3024 31.6427 26.0716 31.3426C25.8409 31.0657 25.4025 30.7888 25.0795 30.6965C24.6641 30.6041 24.295 30.7195 23.8335 31.0657C23.3489 31.435 23.1874 31.735 23.2105 32.335Z" fill="#4BA9EF"/>
</svg>
