<svg width="19" height="20" viewBox="0 0 19 20" fill="none" xmlns="http://www.w3.org/2000/svg">
<g clip-path="url(#clip0_215_67)">
<mask id="mask0_215_67" style="mask-type:luminance" maskUnits="userSpaceOnUse" x="0" y="0" width="19" height="20">
<path d="M19 0.27002H0V19.27H19V0.27002Z" fill="white"/>
</mask>
<g mask="url(#mask0_215_67)">
<path d="M16.2567 7.14685H12.1379C12.1308 7.14685 12.1272 7.13969 12.1272 7.13611V3.01735C12.1272 1.574 11.0169 0.309716 9.5736 0.273901C8.09085 0.234504 6.87671 1.42357 6.87671 2.892V7.13252C6.87671 7.13969 6.86955 7.14327 6.86596 7.14327H2.74721C1.30385 7.14327 0.0395744 8.25354 0.00375914 9.6969C-0.0356377 11.176 1.15343 12.3902 2.62544 12.3902H6.86596C6.87313 12.3902 6.87671 12.3973 6.87671 12.4009V16.5197C6.87671 17.963 7.98698 19.2273 9.43034 19.2631C10.9095 19.3025 12.1236 18.1135 12.1236 16.6415V12.4081C12.1236 12.4009 12.1308 12.3973 12.1344 12.3973H16.3749C17.8469 12.3973 19.036 11.1868 18.9966 9.70406C18.9643 8.25712 17.7001 7.14685 16.2567 7.14685Z" fill="#4BA9EF" fill-opacity="0.45"/>
</g>
</g>
<defs>
<clipPath id="clip0_215_67">
<rect width="19" height="19" fill="white" transform="translate(0 0.27002)"/>
</clipPath>
</defs>
</svg>
