<svg width="60" height="60" viewBox="0 0 60 60" fill="none" xmlns="http://www.w3.org/2000/svg">
<g clip-path="url(#clip0_153_508)">
<path fill-rule="evenodd" clip-rule="evenodd" d="M31.8165 0.0117536C32.2736 3.48771e-05 32.6837 0.0703474 32.9884 0.222691C33.2462 0.339879 33.6681 0.668004 33.9259 0.960972C34.1837 1.25394 34.465 1.68754 34.5353 1.94535C34.6173 2.19144 34.6876 2.58988 34.6759 2.81254C34.6759 3.03519 34.6056 3.43363 34.5118 3.69144C34.3478 4.14847 34.3595 4.17191 34.6759 4.51175C34.8517 4.69925 35.9532 5.92972 37.1251 7.24222C39.1407 9.4805 39.2696 9.59769 39.5509 9.49222C39.715 9.43363 40.0431 9.37503 40.2892 9.37503C40.5236 9.37503 40.9337 9.44535 41.1915 9.51566C41.4728 9.60941 41.8946 9.89066 42.2462 10.2539C42.6095 10.6055 42.8907 11.0274 42.9845 11.3086C43.0548 11.5664 43.1251 11.9649 43.1251 12.1875C43.1251 12.4102 43.0548 12.8086 42.9728 13.0547C42.9025 13.3125 42.6446 13.7344 42.4103 13.9922C42.1876 14.2618 41.8243 14.5547 41.2384 14.8243L41.2501 24.375H45.0001V23.2618C45.0001 22.2422 45.0236 22.125 45.5743 21.5625H59.4142L59.7071 21.8555C59.9884 22.1368 60.0001 22.1953 60.0001 25.4883L58.9923 28.0078C58.3712 29.5782 57.9025 30.6094 57.7384 30.7383C57.5275 30.9024 57.2696 30.9493 55.3126 30.9375L55.2775 33.1992C55.254 35.3086 55.2306 35.4844 54.9728 36.0352C54.7736 36.4336 54.1056 37.2071 52.8986 38.4375C51.715 39.6328 51.0236 40.4297 50.8712 40.7813C50.6486 41.2735 50.6251 41.543 50.6251 47.8125H51.7736C52.5704 47.8125 53.0861 47.8711 53.4845 48.0118C53.8751 48.1524 54.2267 48.4024 54.5392 48.7618C54.8087 49.0547 55.09 49.5 55.1603 49.7578C55.2657 50.086 55.3126 51.3633 55.3126 58.125H57.3634C59.3907 58.125 59.4142 58.125 59.7071 58.418C59.8946 58.6055 60.0001 58.8399 60.0001 59.0625C60.0001 59.2735 59.8947 59.5313 59.4259 60H3.39856L3.10559 59.7071C2.91809 59.5196 2.81262 59.2852 2.81262 59.0625C2.81262 58.8516 2.91809 58.5938 3.38684 58.125H8.43762L8.47278 55.7461C8.49621 53.4493 8.50793 53.3672 8.8009 52.793C8.97668 52.4649 9.24621 52.043 9.39856 51.8555C9.56262 51.668 10.0314 51.3164 11.1915 50.6836L17.8478 50.6485C21.504 50.6368 24.4923 50.6016 24.4923 50.5664C24.4923 50.5313 23.7189 49.2657 21.0353 44.9883L20.5079 45C20.215 45 19.6407 44.918 19.2189 44.8125C18.797 44.7188 18.0939 44.4375 17.6368 44.2032C17.1329 43.9336 16.5236 43.4766 16.0548 42.9961C15.3517 42.293 14.672 41.1446 7.76965 29.168C3.62121 21.9844 0.175901 15.9024 0.105589 15.6446C0.0352763 15.3868 0.000120092 14.9414 0.0352763 14.6485C0.0704326 14.3555 0.199339 13.9102 0.328245 13.6524C0.445433 13.3946 0.703245 13.0547 0.890745 12.8907C1.07825 12.7266 1.71106 12.3282 2.28528 11.9883C2.88293 11.6485 3.62121 11.3203 3.9845 11.2383C4.34778 11.168 4.87512 11.1446 5.21496 11.1914C5.54309 11.2266 6.07043 11.4024 6.38684 11.5547C6.71496 11.7188 7.12512 11.9883 7.3009 12.1641C7.4884 12.3399 8.00403 13.0899 8.43762 13.8282C8.88293 14.5664 9.38684 15.4922 9.56262 15.8789C9.82043 16.4297 9.87903 16.7578 9.87903 17.4024C9.87903 18 9.80871 18.3868 9.62121 18.8086C9.46887 19.1368 9.21106 19.5821 9.02356 19.8047C8.84778 20.0274 8.19153 20.5196 7.57043 20.8946C6.94934 21.2578 6.30481 21.5977 6.14075 21.6563C5.96496 21.7032 5.81262 21.7735 5.78918 21.8321C5.76575 21.8789 6.09387 22.5118 6.51575 23.2383C6.93762 23.9532 7.31262 24.5743 7.33606 24.6094C7.3595 24.6446 7.52356 24.5391 7.69934 24.375C7.88684 24.211 8.6134 23.7539 9.31653 23.3555C10.0314 22.9571 10.8751 22.5352 11.1915 22.4297C11.6251 22.2891 12.0353 22.2422 12.7736 22.2891C13.5236 22.3243 13.9454 22.418 14.4728 22.6524C14.8947 22.8399 15.422 23.2149 15.7853 23.5899C16.254 24.0586 17.0157 25.2774 21.8673 33.6914L27.1876 33.75V28.6524L31.4767 24.375H39.3751L39.3868 14.8243L39.0118 14.6485C38.8009 14.5547 38.4376 14.2618 38.215 13.9922C37.9806 13.7344 37.7228 13.3125 37.6525 13.0547C37.5704 12.8086 37.5001 12.4102 37.5118 12.1875C37.5118 11.9649 37.5821 11.5664 37.6759 11.3086C37.84 10.8516 37.8282 10.8282 37.5118 10.4883C37.3361 10.2891 36.2345 9.07035 35.0626 7.75785C33.047 5.51957 32.9181 5.40238 32.6368 5.50785C32.4728 5.56644 32.1446 5.62503 31.9103 5.62503C31.6642 5.62503 31.2775 5.56644 31.0548 5.49613C30.8322 5.4141 30.4923 5.25003 29.9415 4.88675L27.9728 5.87113C26.8947 6.41019 25.9103 6.93753 25.7931 7.03128C25.6173 7.17191 25.5939 7.31253 25.6525 7.793C25.6876 8.10941 25.6876 8.69535 25.629 9.08207C25.5822 9.46878 25.4064 10.0664 25.254 10.3946C25.09 10.7344 24.715 11.2852 24.4103 11.6133C23.965 12.0821 23.4376 12.4102 19.922 14.2383V14.6485C19.922 14.9063 19.8165 15.1524 19.6525 15.3282C19.5001 15.4805 19.254 15.5977 19.0431 15.5977C18.8556 15.5977 18.5743 15.5039 18.4454 15.3868C18.3048 15.2696 17.215 13.2657 16.0079 10.9336C14.8126 8.58988 13.8282 6.55082 13.8282 6.38675C13.8282 6.22269 13.8751 6.00003 13.9337 5.88285C13.9806 5.77738 14.1798 5.61332 14.3673 5.53128C14.6134 5.42582 14.7892 5.4141 15.0001 5.50785C15.1642 5.56644 15.3751 5.68363 15.4689 5.75394C15.6095 5.85941 16.0665 5.67191 19.7345 3.80863H21.0236C22.1954 3.80863 22.3829 3.84378 22.9689 4.12503C23.3204 4.30082 23.8712 4.6641 24.7501 5.44925L29.0626 3.22269V2.81254C29.0626 2.58988 29.1329 2.19144 29.215 1.94535C29.2853 1.68754 29.5665 1.25394 29.8243 0.972691C30.0822 0.70316 30.4806 0.375035 30.7032 0.246129C30.9728 0.0937849 31.3478 0.0117536 31.8165 0.0117536ZM30.9376 2.81254C30.9376 3.03519 31.0431 3.26957 31.2306 3.45707C31.3947 3.62113 31.6642 3.75004 31.8517 3.75004C32.0275 3.76175 32.3087 3.63285 32.4962 3.45707C32.7071 3.26175 32.8126 3.04691 32.8126 2.81254C32.8126 2.58988 32.7071 2.3555 32.5196 2.168C32.3321 1.9805 32.0978 1.87503 31.8751 1.87503C31.6407 1.87503 31.4064 1.9805 31.2306 2.168C31.0665 2.33207 30.9493 2.58988 30.9376 2.81254ZM18.1993 6.69144L16.4064 7.61722C18.2462 11.2032 18.8439 12.3164 18.9142 12.3985C19.0196 12.5274 19.3712 12.3985 20.8009 11.6719C21.7736 11.1914 22.7345 10.6172 22.9571 10.4063C23.1798 10.1953 23.4493 9.80863 23.5665 9.55082C23.7072 9.25785 23.7892 8.81253 23.7892 8.37894C23.7892 7.94535 23.7072 7.50003 23.5665 7.20707C23.4493 6.94925 23.1681 6.57425 22.9571 6.36332C22.7345 6.15238 22.3595 5.90628 22.1251 5.81253C21.879 5.70707 21.3751 5.62503 21.0118 5.63675C20.6368 5.63675 20.2501 5.67191 20.1564 5.70707C20.0626 5.74222 19.172 6.18753 18.1993 6.69144ZM39.3751 12.1875C39.3751 12.4102 39.4806 12.6446 39.6681 12.8321C39.8556 13.0196 40.09 13.125 40.3126 13.125C40.547 13.125 40.7814 13.0196 40.9571 12.8321C41.1446 12.6563 41.2501 12.3985 41.2501 12.1875C41.2501 11.9649 41.1446 11.7305 40.9571 11.543C40.7696 11.3555 40.5353 11.25 40.3126 11.25C40.0782 11.25 39.8439 11.3555 39.6681 11.543C39.504 11.7071 39.3868 11.9649 39.3751 12.1875ZM2.27356 14.2383C2.03918 14.4493 1.88684 14.7071 1.87512 14.8828C1.87512 15.0469 2.41418 16.125 3.11731 17.3438C3.797 18.5391 4.47668 19.6055 4.60559 19.7227C4.74621 19.8399 5.00403 19.9336 5.19153 19.9219C5.36731 19.9219 5.94153 19.6758 6.46887 19.3711C6.99621 19.0547 7.52356 18.6797 7.64074 18.5157C7.76965 18.3516 7.91028 18.0352 7.96887 17.8125C8.02746 17.5899 8.03918 17.2149 7.98059 16.9922C7.93371 16.7696 7.53528 15.9727 7.10168 15.2344C6.66809 14.4961 6.19934 13.7578 6.05871 13.6055C5.91809 13.4532 5.62512 13.2539 5.4259 13.1719C5.21496 13.0782 4.88684 13.0078 4.71106 13.0078C4.52356 13.0078 3.9845 13.2071 3.51575 13.4532C3.047 13.6875 2.4845 14.0391 2.27356 14.2383ZM46.8751 25.0782L49.2775 29.0625H56.5431C58.0548 25.3008 58.1251 25.0664 58.1251 24.2813V23.4375H46.8751V25.0782ZM8.84778 25.875C8.672 26.0274 8.55481 26.2618 8.55481 26.461C8.55481 26.6602 10.0548 29.3555 12.6798 33.9258C15.4572 38.7305 16.9806 41.2617 17.3439 41.6367C17.6368 41.9532 18.0822 42.3282 18.34 42.4805C18.5978 42.6328 19.1251 42.8438 19.5118 42.9375C20.1212 43.1016 21.1993 43.125 27.1876 43.125C32.2618 43.125 34.2892 43.0782 34.629 42.9844C34.9103 42.8907 35.3321 42.6094 35.6837 42.2461C36.047 41.8946 36.3282 41.4727 36.422 41.1914C36.4923 40.9336 36.5626 40.5586 36.5509 40.3711C36.5509 40.1836 36.6564 39.8907 36.7853 39.7266C37.0079 39.4336 37.0196 39.4336 39.4689 39.375C41.6954 39.3164 41.965 39.293 42.2579 39.0821C42.422 38.9532 42.6798 38.6953 42.8204 38.5196C43.0079 38.2618 43.0665 38.0157 43.0665 37.5C43.0665 36.9844 43.0079 36.7383 42.8204 36.4805C42.6798 36.3047 42.422 36.0469 42.2579 35.918C41.9415 35.6836 41.7071 35.6836 31.465 35.625C21.1759 35.5664 20.9767 35.5664 20.754 35.3321C20.6251 35.2032 19.2775 32.9414 17.7423 30.293C16.2189 27.6446 14.8478 25.3125 14.6954 25.1016C14.5431 24.9024 14.1564 24.5977 13.8282 24.4336C13.3947 24.211 13.0548 24.1407 12.5157 24.1407C11.8243 24.1407 11.6837 24.1875 10.4532 24.8672C9.72668 25.2774 9.00012 25.7227 8.84778 25.8633V25.875ZM29.004 29.4844L29.0626 33.7618C42.2111 33.8203 42.2462 33.8203 42.7736 34.0782C43.0665 34.2305 43.4884 34.5 43.7111 34.6758C43.9337 34.8633 44.3087 35.3555 44.5314 35.7657C44.9064 36.4571 44.9415 36.5977 44.9415 37.5118C44.9415 38.4258 44.9064 38.5664 44.5314 39.2578C44.3087 39.668 43.9689 40.1368 43.7696 40.3008C43.5821 40.4532 43.1603 40.7227 42.8321 40.8868C42.2814 41.1797 42.129 41.1914 40.2892 41.2266C38.8126 41.25 38.3204 41.2969 38.3204 41.4024C38.3204 41.4844 38.1564 41.8828 37.9689 42.2813C37.7696 42.6914 37.3946 43.2657 37.1251 43.5586C36.8204 43.875 36.2931 44.25 35.8009 44.4961C35.3439 44.7188 34.6876 44.9414 34.3009 44.9883C33.9376 45.0352 33.6329 45.0821 33.6329 45.0938C33.6329 45.1172 34.0196 45.7383 34.4884 46.4766L35.3321 47.836L48.7501 47.8243L48.8087 40.7344C49.5236 39.2227 49.8751 38.8008 51.3868 37.2774C52.3829 36.2813 53.2384 35.3203 53.3087 35.1328C53.379 34.9571 53.4376 33.9727 53.4376 32.8828V30.9493C49.629 30.9493 48.422 30.9024 48.3165 30.8438C48.1993 30.7852 47.4962 29.7305 46.7579 28.5L45.4103 26.2618H32.2853L29.004 29.4844ZM24.797 47.4961C25.6056 48.8086 26.3322 49.9336 26.4025 50.0157C26.5079 50.1328 26.8712 49.9219 28.1134 48.9961L29.6954 47.8125C32.2853 47.8243 33.0353 47.7891 33.0353 47.7657C33.0353 47.7305 32.6603 47.0977 32.1915 46.3477L31.3361 45C25.1251 45.0118 23.3087 45.0352 23.3087 45.0703C23.3087 45.0938 23.9767 46.1953 24.797 47.4961ZM26.6486 52.4532C11.5782 52.5703 11.4962 52.5703 11.1681 52.8164C10.9806 52.9571 10.7228 53.2032 10.5939 53.3789C10.3829 53.6719 10.3595 53.9063 10.3361 55.9102L10.3009 58.1368H53.4259V50.2852L52.84 49.6993H30.2814L26.6486 52.4532Z" fill="#4BA9EF"/>
</g>
<defs>
<clipPath id="clip0_153_508">
<rect width="60" height="60" fill="white"/>
</clipPath>
</defs>
</svg>
