<svg width="60" height="60" viewBox="0 0 60 60" fill="none" xmlns="http://www.w3.org/2000/svg">
<path fill-rule="evenodd" clip-rule="evenodd" d="M29.8008 1.30078C30.293 1.30078 31.2188 1.34766 31.8398 1.41797C32.4727 1.47656 33.4688 1.64062 34.043 1.78125C34.6172 1.91016 35.4961 2.16797 35.9766 2.34375C36.457 2.53125 37.2188 2.84766 37.6758 3.05859C38.1328 3.26953 39 3.76172 39.6094 4.17187C40.2188 4.57031 41.1211 5.23828 41.6016 5.64844C42.082 6.07031 42.7969 6.77344 43.1953 7.21875C43.582 7.66406 44.1211 8.32031 44.3789 8.67188C44.6484 9.02344 45.1289 9.78516 45.457 10.3711C45.7852 10.957 46.2656 11.9531 46.5117 12.5977C46.7578 13.2422 47.0742 14.2383 47.2031 14.8242C47.3438 15.3984 47.5078 16.2187 47.5781 16.6406C47.6367 17.0625 47.6953 18.0234 47.6953 18.7852C47.6953 19.6992 47.6133 20.5781 47.4492 21.4102C47.3203 22.1133 46.9336 23.5195 46.582 24.5508C46.2422 25.582 45.6094 27.2695 45.1641 28.3008C44.7305 29.332 43.7227 31.4648 42.9375 33.0469C42.1406 34.6289 40.9102 36.9727 40.1953 38.2617C39.4688 39.5508 38.4375 41.3555 37.8984 42.2812C37.3594 43.1953 36.9141 43.9922 36.9141 44.0625C36.9141 44.1328 37.3242 44.2148 37.8164 44.25C38.3203 44.2852 39.4219 44.3906 40.2539 44.4844C41.0859 44.5781 42.7266 44.8242 43.8867 45.0117C45.0469 45.2109 46.7812 45.5742 47.7539 45.8203C48.7148 46.0664 49.957 46.4414 50.5078 46.6406C51.0586 46.8398 51.9492 47.2383 52.5 47.5195C53.0508 47.8008 53.8359 48.3398 54.2461 48.7148C54.6562 49.0898 55.0898 49.5937 55.207 49.8398C55.3359 50.0742 55.4766 50.4961 55.5352 50.7773C55.6055 51.082 55.6055 51.4922 55.5352 51.8555C55.4766 52.1836 55.2539 52.7109 55.043 53.0273C54.8203 53.3555 54.3164 53.8711 53.8945 54.1875C53.4844 54.4922 52.793 54.9375 52.3477 55.1484C51.9141 55.3711 51.1758 55.6992 50.707 55.8867C50.25 56.0742 49.3828 56.3672 48.8086 56.5312C48.2344 56.707 47.2031 56.9648 46.5234 57.1172C45.8438 57.2812 44.4727 57.5391 43.4766 57.7031C42.4805 57.8672 40.9219 58.0781 40.0195 58.1719C39.1172 58.2773 37.6406 58.4062 36.7383 58.4648C35.8359 58.5352 33.75 58.6172 32.1094 58.6641C30.4219 58.6992 27.7969 58.6758 26.0742 58.6055C24.3984 58.5352 22.207 58.3945 21.2109 58.3008C20.2148 58.207 18.6328 58.0078 17.6953 57.8789C16.7578 57.75 15.4688 57.5391 14.8242 57.4102C14.1797 57.2812 13.0195 57.0117 12.2461 56.8125C11.4727 56.6133 10.2891 56.25 9.60938 55.9922C8.92969 55.7461 8.00391 55.3359 7.55859 55.1016C7.10156 54.8555 6.44531 54.4453 6.09375 54.1758C5.74219 53.9062 5.30859 53.4961 5.13281 53.25C4.95703 52.9922 4.73438 52.5937 4.62891 52.3594C4.53516 52.1133 4.45312 51.6094 4.45312 51.2461C4.45312 50.7305 4.53516 50.4023 4.76953 49.9336C4.95703 49.5586 5.37891 49.043 5.75391 48.7031C6.11719 48.375 6.89062 47.8594 7.45312 47.5547C8.02734 47.25 8.94141 46.8398 9.49219 46.6406C10.043 46.4297 11.2734 46.0664 12.2461 45.8203C13.207 45.5742 14.9531 45.2109 16.1133 45.0117C17.2734 44.8242 18.9023 44.5781 19.7461 44.4844C20.5781 44.3906 21.6797 44.2852 22.1719 44.25C22.6758 44.2148 23.0859 44.1328 23.0859 44.0625C23.0859 43.9922 22.6406 43.1953 22.1016 42.2812C21.5625 41.3555 20.5312 39.5508 19.8047 38.2617C19.0898 36.9727 17.8594 34.6289 17.0625 33.0469C16.2773 31.4648 15.2695 29.332 14.8359 28.3008C14.3906 27.2695 13.7578 25.582 13.418 24.5508C13.0664 23.5195 12.6797 22.1133 12.5508 21.4219C12.3867 20.5781 12.3047 19.6992 12.3047 18.7852C12.3047 18.0234 12.3633 17.0625 12.4219 16.6406C12.4922 16.2187 12.6562 15.3984 12.7969 14.8242C12.9258 14.2383 13.2422 13.2422 13.4883 12.5977C13.7344 11.9531 14.2148 10.957 14.543 10.3711C14.8711 9.78516 15.3516 9.02344 15.6211 8.67188C15.8789 8.32031 16.418 7.66406 16.8047 7.21875C17.2031 6.77344 17.918 6.07031 18.3984 5.64844C18.8789 5.23828 19.7812 4.57031 20.3906 4.17187C21 3.76172 21.8672 3.26953 22.3242 3.05859C22.7695 2.84766 23.543 2.53125 24.0234 2.34375C24.5039 2.16797 25.4062 1.91016 26.0156 1.76953C26.625 1.62891 27.5273 1.47656 28.0078 1.41797C28.4883 1.35938 29.2969 1.3125 29.7891 1.30078H29.8008ZM25.9102 4.3125C25.4297 4.44141 24.6562 4.69922 24.2109 4.88672C23.7656 5.07422 23.0508 5.41406 22.6289 5.64844C22.207 5.88281 21.4453 6.38672 20.9297 6.76172C20.4141 7.14844 19.6055 7.85156 19.1367 8.33203C18.668 8.8125 17.9883 9.62109 17.6133 10.1367C17.25 10.6523 16.7109 11.5195 16.4297 12.0703C16.1484 12.6211 15.7617 13.4883 15.5859 14.0039C15.4102 14.5195 15.1758 15.3398 15.0703 15.8203C14.9648 16.3008 14.8477 17.4141 14.8125 18.2812C14.7656 19.3125 14.8008 20.1445 14.8945 20.6836C14.9766 21.1289 15.2109 22.1133 15.4336 22.8516C15.6445 23.5898 16.0078 24.6797 16.2305 25.2539C16.4531 25.8281 16.8867 26.8828 17.1797 27.5977C17.4844 28.3125 18.2695 29.9883 18.9375 31.3477C19.6055 32.707 20.8711 35.0977 21.75 36.6797C22.6406 38.2617 24.082 40.7695 24.9727 42.2461C25.8516 43.7227 27.1523 45.832 27.8438 46.9336C28.5352 48.0352 29.2969 49.2305 29.5312 49.5938C29.7656 49.9688 29.9766 50.2734 30.0117 50.2734C30.0469 50.2734 30.2578 49.9688 30.4922 49.5938C30.7266 49.2305 31.5937 47.8477 32.4375 46.5234C33.2695 45.1992 34.5 43.1953 35.168 42.0703C35.8359 40.9453 37.1133 38.7305 38.0156 37.1484C38.9062 35.5664 40.2656 33.0117 41.0273 31.4648C41.7891 29.918 42.7148 27.9375 43.0781 27.0703C43.4414 26.2031 43.9688 24.8086 44.25 23.9648C44.5312 23.1211 44.8828 21.9375 45.0117 21.3281C45.1992 20.5312 45.2695 19.8164 45.2578 18.8086C45.2578 17.8477 45.1758 17.0039 45.0117 16.1719C44.8711 15.4922 44.625 14.543 44.4609 14.0625C44.2969 13.582 43.9453 12.7617 43.6875 12.2461C43.4297 11.7305 42.9961 10.9688 42.7148 10.5469C42.4453 10.125 41.8945 9.41016 41.4961 8.96484C41.0977 8.51953 40.4414 7.86328 40.0547 7.52344C39.6562 7.17188 38.9062 6.60938 38.3906 6.26953C37.875 5.92969 37.1367 5.49609 36.75 5.29687C36.3633 5.10937 35.5664 4.79297 34.9922 4.59375C34.418 4.39453 33.5391 4.14844 33.0586 4.04297C32.543 3.92578 31.4414 3.83203 30.3633 3.80859C29.168 3.77344 28.2422 3.80859 27.668 3.91406C27.1875 3.99609 26.3906 4.18359 25.9102 4.3125ZM18.7617 47.0508C17.9531 47.1562 16.4766 47.4023 15.4805 47.5898C14.4844 47.7891 13.1133 48.1055 12.4336 48.293C11.7539 48.4922 10.6992 48.832 10.0898 49.0547C9.48047 49.2891 8.63672 49.6641 8.21484 49.9102C7.79297 50.1562 7.33594 50.5078 7.18359 50.6953C7.04297 50.8828 6.91406 51.1641 6.91406 51.3281C6.91406 51.5273 7.07812 51.7734 7.41797 52.0781C7.69922 52.3359 8.44922 52.793 9.09375 53.0977C9.73828 53.4023 10.8984 53.8477 11.6719 54.082C12.4453 54.3164 13.9805 54.6797 15.0703 54.9023C16.1602 55.125 17.8242 55.4062 18.7617 55.5352C19.6992 55.6641 21.0703 55.8281 21.8086 55.8984C22.5469 55.957 24.082 56.0742 25.207 56.1328C26.332 56.1914 28.5 56.25 30.0117 56.25C31.5234 56.25 33.6914 56.1914 34.8164 56.1328C35.9414 56.0742 37.4766 55.957 38.2148 55.8984C38.9531 55.8281 40.3477 55.6641 41.3203 55.5352C42.2812 55.4062 43.7344 55.1719 44.543 55.0195C45.3516 54.8555 46.6992 54.5391 47.5312 54.3164C48.3633 54.082 49.5352 53.707 50.1094 53.4727C50.6836 53.25 51.4219 52.9102 51.75 52.7344C52.0664 52.5469 52.5117 52.2187 52.7227 52.0078C52.9336 51.7969 53.1094 51.5391 53.1211 51.4453C53.1211 51.3516 53.1094 51.1875 53.0977 51.0938C53.0859 51 52.9922 50.8125 52.8867 50.6953C52.7695 50.5781 52.3711 50.2617 51.9844 50.0156C51.5977 49.7695 50.7539 49.3594 50.1094 49.1133C49.4648 48.8672 48.3633 48.5039 47.6484 48.3047C46.9336 48.1055 45.668 47.8125 44.8359 47.6484C44.0039 47.4844 42.5977 47.2383 41.7305 47.1211C40.8633 46.9922 39.2109 46.8047 38.0625 46.7109C36.9258 46.6055 35.8477 46.5234 35.6602 46.5234C35.3789 46.5234 35.2031 46.7461 33.8789 48.832C33.082 50.1094 32.0742 51.6445 31.6523 52.2539C31.2305 52.8633 30.7617 53.4375 30.5977 53.543C30.4336 53.6367 30.1406 53.707 29.9531 53.6953C29.7539 53.6836 29.4844 53.5898 29.332 53.4961C29.1914 53.4023 28.5352 52.4883 27.8672 51.4805C27.1992 50.4609 26.2148 48.9258 25.6641 48.0703L24.6797 46.5234C23.5898 46.5469 22.5938 46.6172 21.75 46.6992C20.9062 46.7812 19.5703 46.9336 18.7617 47.0508ZM29.9531 11.3789C30.5977 11.3789 31.3594 11.4258 31.6523 11.4844C31.9453 11.5547 32.5195 11.7422 32.9414 11.918C33.3633 12.0938 33.9961 12.4219 34.3477 12.6562C34.6992 12.9023 35.2969 13.4297 35.6836 13.8398C36.0586 14.25 36.5391 14.9062 36.75 15.293C36.9727 15.6797 37.2656 16.3945 37.418 16.875C37.6406 17.5898 37.6875 18 37.6758 19.1016C37.6758 20.2148 37.6172 20.6133 37.3594 21.3867C37.1953 21.9141 36.8086 22.7109 36.4805 23.2031C36.1641 23.6836 35.5781 24.375 35.1914 24.7266C34.8047 25.0781 34.125 25.5703 33.6797 25.8047C33.2461 26.0391 32.4609 26.3438 31.9453 26.4844C31.3594 26.6367 30.6328 26.7188 30.0117 26.7188C29.3906 26.7188 28.6641 26.6367 28.0781 26.4844C27.5625 26.3438 26.7773 26.0391 26.3438 25.8047C25.8984 25.5703 25.2188 25.0781 24.832 24.7266C24.4453 24.375 23.8594 23.6836 23.543 23.2031C23.2148 22.7109 22.8281 21.9141 22.6641 21.3867C22.4062 20.6133 22.3477 20.2148 22.3477 19.1016C22.3359 18 22.3828 17.5898 22.6055 16.875C22.7578 16.3945 23.0508 15.6797 23.2734 15.293C23.4844 14.9062 23.9648 14.25 24.3398 13.8398C24.7266 13.4297 25.3242 12.9023 25.6758 12.6562C26.0273 12.4219 26.6133 12.1055 26.9648 11.9531C27.3164 11.8008 27.8672 11.6133 28.1953 11.5312C28.5117 11.4492 29.3086 11.3789 29.9531 11.3789ZM28.1953 14.0977C27.9375 14.1914 27.4922 14.4141 27.1992 14.5898C26.9062 14.7773 26.4375 15.1641 26.1562 15.457C25.875 15.75 25.4883 16.3125 25.3008 16.6992C25.1133 17.0859 24.9023 17.7773 24.832 18.2227C24.7383 18.832 24.7383 19.2539 24.832 19.8633C24.9023 20.3203 25.125 21 25.3125 21.3867C25.5 21.7734 25.9336 22.3711 26.2852 22.7227C26.6836 23.1328 27.2109 23.5078 27.7852 23.7773C28.6406 24.1875 28.6992 24.1992 30.0117 24.1992C31.3242 24.1992 31.3828 24.1875 32.2383 23.7773C32.8125 23.5078 33.3398 23.1328 33.7383 22.7227C34.0898 22.3711 34.5234 21.7734 34.7109 21.3867C34.8984 21 35.1211 20.3203 35.1914 19.8633C35.2852 19.2539 35.2852 18.832 35.1914 18.2227C35.1211 17.7773 34.9102 17.0859 34.7227 16.6992C34.5352 16.3125 34.1484 15.75 33.8672 15.457C33.5859 15.1641 33.1172 14.7773 32.8242 14.5898C32.5312 14.4141 32.0273 14.168 31.7109 14.0625C31.3828 13.957 30.832 13.8398 30.4805 13.8047C30.1289 13.7695 29.5664 13.7812 29.25 13.8281C28.9219 13.8867 28.4531 14.0039 28.1953 14.0977Z" fill="#4BA9EF"/>
</svg>
