<svg width="60" height="60" viewBox="0 0 60 60" fill="none" xmlns="http://www.w3.org/2000/svg">
<g clip-path="url(#clip0_153_524)">
<path fill-rule="evenodd" clip-rule="evenodd" d="M36.5977 0.0117305C40.207 1.1785e-05 40.6172 0.0234493 41.3906 0.234387C41.8594 0.363293 42.6094 0.644543 43.0664 0.855481C43.5234 1.07814 44.2148 1.52345 44.6133 1.85157C45.0234 2.19142 45.5977 2.78907 45.8906 3.19923C46.1953 3.59767 46.6172 4.28907 46.8281 4.74611C47.0391 5.20314 47.2852 5.97657 47.3906 6.48048C47.4961 6.97267 47.5781 7.85157 47.5781 8.43751C47.5781 9.02345 47.5312 9.58595 47.4727 9.70314C47.4258 9.80861 47.2266 9.97267 47.0391 10.0547C46.7461 10.1953 46.6406 10.1836 46.3125 10.0313C46.1016 9.92579 45.9141 9.72657 45.8906 9.58595C45.8555 9.43361 45.8086 8.76564 45.7852 8.08595C45.75 7.20704 45.6562 6.62111 45.457 6.03517C45.293 5.56642 44.9297 4.86329 44.5898 4.39454C44.2031 3.8672 43.7227 3.37501 43.1836 2.98829C42.7266 2.66017 42 2.27345 41.543 2.10939C40.7461 1.82814 40.6172 1.81642 32.9883 1.74611L32.3438 2.07423C31.9336 2.29689 31.5703 2.60157 30.9961 3.42189L30.9609 7.94532C30.9375 11.707 30.9609 12.5625 31.1016 12.9492C31.1953 13.207 31.4766 13.5938 31.7227 13.8164C31.9688 14.0391 32.3438 14.2852 32.543 14.3789C32.8477 14.4961 34.2773 14.5313 45.8203 14.5313V13.7109C45.8203 13.2656 45.8555 12.8086 45.9023 12.7031C45.9609 12.5977 46.1602 12.4336 46.3477 12.3399C46.6406 12.1992 46.7578 12.1875 47.0391 12.3281C47.2266 12.4102 47.4258 12.5742 47.4727 12.6797C47.5312 12.7969 47.5781 13.5 47.5781 14.2383C47.5781 15.5391 47.5898 15.6094 47.9297 16.1367C48.1523 16.4883 48.3281 16.9922 48.4102 17.4609C48.4805 17.8828 48.5156 18.7266 48.4805 19.3359C48.4453 19.957 48.3281 20.6602 48.2227 20.918C48.1172 21.1758 47.8359 21.5859 47.6016 21.8438C47.3672 22.0899 46.8516 22.4414 46.4648 22.6289C46.0781 22.8164 45.4336 23.0039 44.3086 23.1445L44.2383 24.0234C44.1914 24.5039 44.0625 25.3242 43.9453 25.8399C43.8281 26.3555 43.5938 27.0938 43.418 27.4805C43.2539 27.8672 42.8789 28.5234 42.5977 28.9453C42.3281 29.3672 41.7422 30.0352 40.5469 31.1719L40.6055 34.5938L42.0117 35.0391C42.7852 35.2852 45.2109 36.0469 47.4023 36.7266C49.5938 37.418 51.7852 38.168 52.2656 38.4024C52.8281 38.6836 53.3789 39.0703 53.7891 39.4922C54.1641 39.8672 54.5859 40.4649 54.7969 40.8984C55.0078 41.3203 55.2539 42.0469 55.3594 42.5039C55.4766 43.043 55.5469 43.9219 55.5469 44.8828C55.5469 46.3359 55.5352 46.418 55.2539 46.7578C55.0664 46.9922 54.8438 47.1094 54.6328 47.1094C54.457 47.1211 54.1875 47.0156 54.0234 46.8867C53.7305 46.6641 53.7305 46.6289 53.6719 44.5664C53.6133 42.6328 53.5898 42.4336 53.3086 41.8359C53.1445 41.4844 52.8047 40.9922 52.5703 40.7461C52.3359 40.5117 51.9258 40.1836 51.6445 40.0313C51.375 39.8789 48.6094 38.9531 39.8438 36.2109L37.3477 38.0859C35.5195 39.4805 34.7813 39.9727 34.5352 39.9609C34.3125 39.9609 33.5273 39.4336 29.2969 36.2109L28.3828 36.5508C27.8906 36.7383 26.1094 37.4063 24.4336 38.0274C22.7578 38.6484 21.1992 39.2578 20.9766 39.375C20.7539 39.4922 20.4023 39.7617 20.2031 39.9844C20.0039 40.1953 18.4336 42.1992 13.5938 48.5156V49.4883C13.5938 50.0156 13.5352 50.6367 13.4648 50.8594C13.3945 51.082 13.1836 51.4688 12.9961 51.7149C12.6914 52.1133 12.6562 52.2305 12.6562 53.0859C12.6562 53.8711 12.6211 54.0586 12.4219 54.2578C12.2812 54.3984 12.0352 54.4922 11.7773 54.4922C11.4609 54.4922 11.3086 54.4102 11.1328 54.1758C10.9688 53.9531 10.8867 53.6719 10.8984 52.7344H8.08594V54.2578C8.08594 55.0899 8.14453 56.0274 8.20312 56.3438C8.27344 56.6602 8.48438 57.0938 8.70703 57.3516C8.90625 57.6094 9.25781 57.8789 9.45703 57.9727C9.66797 58.0547 10.1719 58.125 10.5703 58.125C11.0625 58.125 11.4844 58.043 11.8359 57.8789C12.1289 57.75 12.4922 57.5274 12.6562 57.3984C12.8203 57.2695 14.332 55.4883 19.0898 49.7461L19.1016 47.9531C19.1016 46.9805 19.1367 46.0899 19.1836 45.9844C19.2422 45.8789 19.418 45.7149 19.5938 45.6328C19.7812 45.5391 20.0391 45.4922 20.1797 45.5274C20.332 45.5625 20.5312 45.668 20.625 45.7734C20.7188 45.8906 20.8242 46.2656 20.918 47.2852L46.4062 47.3438V46.8164C46.4062 46.418 46.4766 46.2188 46.6992 45.9961C46.8516 45.832 47.1211 45.7031 47.2852 45.7031C47.4492 45.7031 47.707 45.832 48.1641 46.2891V58.2422H53.6719V49.8047L53.9648 49.5117C54.1289 49.3359 54.3867 49.2188 54.5742 49.2188C54.7617 49.2188 55.0195 49.3242 55.4414 49.7461L55.4297 54.6094C55.418 59.4609 55.418 59.4727 54.9023 60.0117L19.5703 60L19.3359 59.6719C19.1016 59.3672 19.0898 59.1914 19.1016 52.5L16.9922 55.0547C15.832 56.4492 14.5664 57.9492 14.1797 58.3828C13.6289 59.0039 13.2891 59.2734 12.6211 59.5899C11.8945 59.9414 11.6602 60 10.8984 60C10.2305 60 9.83203 59.9297 9.19922 59.6836C8.55469 59.4375 8.22656 59.2149 7.66406 58.6641C7.14844 58.1484 6.87891 57.75 6.67969 57.2461C6.44531 56.625 6.39844 56.2969 6.36328 54.5156C6.33984 53.0039 6.29297 52.5 6.17578 52.5C6.10547 52.5117 5.77734 52.2774 5.47266 52.0078C5.0625 51.6445 4.85156 51.3399 4.71094 50.918C4.53516 50.4141 4.51172 49.7578 4.51172 46.2891C4.51172 43.2656 4.55859 42.1172 4.67578 41.7188C4.76953 41.4141 5.01563 41.0156 5.26172 40.7695C5.49609 40.5352 5.89453 40.2774 6.15234 40.207C6.41016 40.1367 6.76172 40.0781 7.26562 40.0781L7.30078 38.168C7.32422 36.2695 7.32422 36.2461 7.67578 35.6836C7.89844 35.3203 8.25 34.9688 8.60156 34.7578C9.09375 34.4414 9.29297 34.3945 9.94922 34.3945C10.5 34.4063 10.8633 34.4766 11.1914 34.6406C11.4492 34.7813 11.8125 35.0742 12.0117 35.2969C12.2109 35.5313 12.4336 35.918 12.5039 36.1641C12.5977 36.457 12.6562 37.3594 12.6562 38.6719C12.6445 40.6172 12.6562 40.7344 12.9023 40.957C13.0312 41.0859 13.2305 41.3555 13.3359 41.543C13.4883 41.8125 13.5469 42.3516 13.6523 45.5508L16.3477 42.0469C17.8359 40.1133 19.1953 38.4141 19.3945 38.2734C19.5938 38.1211 19.957 37.8984 20.2148 37.7695C20.4727 37.6406 22.4414 36.8789 28.4883 34.6289L28.4766 31.1133L27.6445 30.293C27.1992 29.8477 26.5898 29.0977 26.3086 28.6524C26.0273 28.207 25.6523 27.457 25.4883 27.0117C25.3125 26.5664 25.1016 25.8047 25.0078 25.3477C24.9141 24.8789 24.8438 24.1875 24.8438 23.1445L24.1758 23.0625C23.8008 23.0156 23.2617 22.8984 22.9688 22.793C22.6758 22.6875 22.207 22.4414 21.9141 22.2188C21.5977 21.9961 21.2461 21.5742 21.0352 21.1992C20.7188 20.6133 20.6836 20.4609 20.6484 19.1602C20.625 18.3867 20.6602 17.4844 20.7305 17.168C20.8008 16.8399 21.0117 16.3711 21.5391 15.6445L21.5859 12.0703C21.6328 8.84767 21.6562 8.43751 21.8672 7.85157C22.0078 7.50001 22.2422 6.97267 22.418 6.6797C22.582 6.38673 22.957 5.90626 23.25 5.58986C23.543 5.28517 24.0703 4.85157 24.4102 4.62892C24.7383 4.40626 25.3359 4.11329 25.7227 3.97267C26.2031 3.80861 26.8594 3.70314 29.1797 3.57423L29.3555 3.04689C29.4492 2.75392 29.6719 2.28517 29.8594 1.9922C30.0352 1.69923 30.4219 1.26564 30.7148 1.03126C30.9961 0.796887 31.5469 0.468762 31.9336 0.304699C32.625 0.0234493 32.6719 0.0234493 36.5977 0.0117305ZM25.7578 5.88282C25.4766 6.01173 24.9961 6.37501 24.668 6.6797C24.3047 7.01954 23.9531 7.52345 23.7305 7.98048L23.3789 8.73048L23.3203 14.5313C26.4961 14.5313 27.1875 14.4844 27.457 14.3789C27.6562 14.2852 28.0078 14.0625 28.2305 13.875C28.4531 13.6875 28.7344 13.3242 28.8398 13.0664C29.0391 12.6445 29.0625 12.2109 29.0625 8.98829V5.39064C27.5625 5.41407 26.9297 5.46095 26.6953 5.51954C26.4492 5.57814 26.0273 5.7422 25.7578 5.88282ZM28.418 15.832C28.0312 16.0195 27.4688 16.2188 27.1523 16.2656L26.6016 16.3477C26.6016 23.5899 26.6484 24.7383 26.7773 25.3711C26.8711 25.8164 27.1523 26.6133 27.4102 27.1289C27.7617 27.8438 28.0664 28.2539 28.6758 28.8281C29.1094 29.25 29.8477 29.7891 30.293 30.0235C30.75 30.2578 31.5352 30.5742 32.0508 30.7266C32.8242 30.9375 33.2695 30.9844 34.5703 30.9844C35.707 30.9844 36.3633 30.9258 36.9141 30.7734C37.3359 30.668 38.1211 30.3516 38.6719 30.082C39.4102 29.7188 39.8789 29.3906 40.5 28.7695C41.0391 28.2305 41.4492 27.6914 41.6953 27.1875C41.8945 26.7656 42.1641 26.0859 42.2695 25.6641C42.4453 25.0078 42.4805 24.3281 42.4805 20.625V16.3477L32.4023 16.2305C31.4062 15.7734 30.8789 15.4102 30.5859 15.1406C30.293 14.8711 30.0234 14.6602 29.9883 14.6484C29.9531 14.6484 29.7422 14.8359 29.5195 15.0703C29.2969 15.293 28.8047 15.6328 28.418 15.832ZM22.6875 17.0274C22.4766 17.3086 22.4414 17.5664 22.4062 18.668C22.3828 19.7461 22.4062 20.0508 22.582 20.3789C22.6992 20.6016 22.9453 20.8945 23.1211 21.0234C23.3555 21.1992 23.6719 21.2813 24.1523 21.293L24.8438 21.3281V16.2891C23.9766 16.2891 23.5547 16.3828 23.332 16.5C23.1094 16.6055 22.8164 16.8516 22.6875 17.0274ZM44.2969 21.3867C45.3398 21.2813 45.7969 21.1406 45.9844 21.0234C46.1719 20.9063 46.4062 20.6367 46.5117 20.4492C46.6523 20.1914 46.6992 19.7695 46.6992 18.8086C46.6992 17.8008 46.6523 17.4375 46.5 17.1328C46.3828 16.9336 46.1719 16.6758 46.0312 16.582C45.8789 16.4766 45.4453 16.3711 45.0469 16.3242L44.332 16.2539L44.2969 21.3867ZM30.2227 33.5039L30.2344 34.7461C33.5039 37.1953 34.5 37.9102 34.5703 37.9102C34.6289 37.9102 35.6133 37.2188 36.7383 36.3633L38.7891 34.8047V32.1094C38.0156 32.4492 37.3711 32.6484 36.8555 32.7656C36.1875 32.918 35.4844 32.9766 34.3945 32.9766C33.3984 32.9766 32.6016 32.9063 32.0859 32.7774C31.6523 32.6719 31.0781 32.4844 30.8203 32.3555C30.5508 32.2383 30.3047 32.168 30.2695 32.2031C30.2344 32.2383 30.2109 32.8242 30.2227 33.5039ZM9.17578 36.6211C9.08203 36.8203 9.02344 37.4649 9.02344 38.4961V40.0781H10.8984C10.9102 36.9727 10.8867 36.7031 10.6992 36.4805C10.582 36.3281 10.3359 36.1875 10.1367 36.1641C9.94922 36.1289 9.67969 36.1524 9.55078 36.2227C9.42188 36.2813 9.25781 36.457 9.17578 36.6211ZM6.28125 42.3867L6.32812 50.3906C6.91406 50.9766 6.92578 50.9766 9.09375 50.9766C11.25 50.9766 11.2617 50.9766 11.5547 50.6836C11.7891 50.4492 11.8359 50.2734 11.8359 49.7461V49.1016C8.84766 49.1016 8.77734 49.0899 8.49609 48.8086C8.33203 48.6445 8.20312 48.375 8.20312 48.1992C8.20312 48.0117 8.32031 47.7656 8.46094 47.6133C8.71875 47.3672 8.83594 47.3555 10.2891 47.3438H11.8359V45.4688C8.84766 45.4688 8.77734 45.457 8.49609 45.1758C8.33203 45.0117 8.20312 44.7422 8.20312 44.5664C8.20312 44.3789 8.32031 44.1328 8.46094 43.9805C8.71875 43.7344 8.83594 43.7227 10.2891 43.7109H11.8359C11.8477 42.6563 11.7773 42.3867 11.6133 42.1641L11.3672 41.8359C6.89062 41.8359 6.83203 41.8477 6.5625 42.1055L6.28125 42.3867ZM20.8594 54.6211H27.7734C28.2305 55.0781 28.3594 55.3359 28.3594 55.5C28.3594 55.6641 28.2305 55.9219 28.0664 56.0859L27.7852 56.3789H20.8594V58.2539H46.4062V56.3789C31.2539 56.3906 31.1016 56.3789 30.7852 56.1445C30.5391 55.9688 30.4688 55.8164 30.4688 55.5C30.4688 55.1836 30.5391 55.0313 30.7852 54.8555C31.1016 54.6211 31.2539 54.6094 38.7539 54.6211H46.4062V49.1133H20.8594V54.6211ZM15.5625 14.6016L16.0664 14.9531C16.3828 15.1758 16.6875 15.5391 17.2266 16.5938V22.3359L18.9258 24.0352C19.875 24.9727 20.7188 25.875 20.8125 26.0625C20.8945 26.2383 20.9766 26.4609 20.9766 26.5547C20.9766 26.6484 20.8711 26.8359 20.7422 26.9649C20.5312 27.1758 20.3555 27.1992 17.2266 27.1992V27.9961C17.2266 28.6406 17.168 28.8984 16.8984 29.4258C16.6992 29.8242 16.3828 30.1992 16.1016 30.3984C15.832 30.5859 15.3516 30.7735 14.9414 30.8438C14.4961 30.9258 12.832 30.9609 10.4297 30.9258C6.63281 30.8906 6.62109 30.8906 6.04687 30.5977C5.71875 30.4336 5.30859 30.1172 5.13281 29.8945C4.94531 29.6719 4.74609 29.2969 4.6875 29.0742C4.61719 28.8281 4.57031 26.2149 4.57031 22.6875C4.57031 18.2813 4.60547 16.5938 4.72266 16.2539C4.79297 16.0078 4.99219 15.6445 5.16797 15.4336C5.33203 15.2344 5.69531 14.9531 5.98828 14.8008C6.50391 14.543 6.52734 14.543 15.5625 14.6016ZM6.32812 22.6289C6.32812 26.2969 6.375 28.582 6.44531 28.7227C6.50391 28.8516 6.72656 29.0156 6.9375 29.0742C7.16016 29.1445 8.80078 29.1914 10.9219 29.1914C13.2539 29.1914 14.6484 29.1445 14.8477 29.0625C15.0234 28.9922 15.2344 28.8516 15.3164 28.7461C15.4102 28.6172 15.457 28.0899 15.4688 27.3164C15.4688 26.543 15.5273 26.0156 15.6211 25.8984C15.6914 25.7813 15.9023 25.6406 16.0781 25.5703C16.2539 25.5 16.7344 25.4414 17.1328 25.4414H17.8711L15.4805 23.0391C15.4688 16.8633 15.4688 16.8281 15.2109 16.5703C14.9414 16.3125 14.918 16.3008 10.8633 16.3008C6.94922 16.3008 6.78516 16.3125 6.5625 16.5352C6.32812 16.7695 6.32812 16.9219 6.32812 22.6289ZM30.7734 17.8242C31.0391 17.8242 31.25 17.9141 31.4062 18.0938C31.6055 18.3047 31.6406 18.5156 31.6406 19.2656C31.6406 20.0156 31.5938 20.2149 31.4062 20.4024C31.2539 20.543 31.0195 20.6367 30.7617 20.6367C30.4453 20.6367 30.293 20.5547 30.1172 20.3203C29.9297 20.0742 29.8711 19.8047 29.8594 19.2188C29.8594 18.5859 29.9062 18.3867 30.1055 18.1289C30.293 17.9063 30.4805 17.8242 30.7734 17.8242ZM38.3789 17.8242C38.6836 17.8242 38.8477 17.9063 39.0234 18.1524C39.2109 18.3984 39.2695 18.6445 39.2695 19.2305C39.2695 19.8164 39.2109 20.0742 39.0234 20.3203C38.8477 20.5547 38.6836 20.6367 38.3789 20.6367C38.1211 20.6367 37.875 20.543 37.7344 20.4024C37.5352 20.2031 37.5 20.0156 37.5 19.2305C37.5 18.4453 37.5352 18.2578 37.7344 18.0586C37.875 17.918 38.1211 17.8242 38.3789 17.8242ZM32.332 23.6836C32.4375 23.6836 32.6602 23.7891 32.8359 23.918C33.0703 24.082 33.1875 24.3047 33.2461 24.6563C33.2813 24.9375 33.4453 25.2891 33.6211 25.4766C33.8242 25.6953 34.082 25.8281 34.3945 25.875C34.7695 25.9219 34.957 25.875 35.2734 25.6524C35.6016 25.4297 35.7188 25.2422 35.8594 24.6914C36 24.1641 36.1055 23.9766 36.3516 23.8477C36.5625 23.7422 36.7969 23.7188 36.9961 23.7774C37.1602 23.8242 37.3828 23.9883 37.4766 24.1524C37.6055 24.3516 37.6406 24.6094 37.5938 24.9727C37.5586 25.2656 37.418 25.7109 37.2891 25.9688C37.1602 26.2266 36.8789 26.6016 36.6562 26.8008C36.4453 27.0117 36.082 27.2695 35.8594 27.3867C35.5664 27.5391 35.1914 27.6094 34.5703 27.6094C33.9023 27.6094 33.5742 27.5391 33.2227 27.3633C32.9648 27.2227 32.5664 26.9414 32.3555 26.7188C32.1328 26.4961 31.8516 26.1094 31.7344 25.8516C31.6172 25.5938 31.5234 25.1133 31.5117 24.7734C31.5 24.2461 31.5352 24.1406 31.8164 23.9297C32.0039 23.7891 32.2266 23.6836 32.332 23.6836ZM13.6289 20.0508C13.9688 20.0508 14.1094 20.1211 14.2969 20.3789C14.4258 20.5547 14.5312 20.8008 14.5312 20.9297C14.5312 21.0703 13.7227 21.9727 12.5039 23.2031C11.3906 24.3164 10.3828 25.2656 10.2539 25.3242C10.125 25.3711 9.89062 25.3711 9.72656 25.3125C9.5625 25.2539 8.94141 24.7266 8.35547 24.1289C7.52344 23.2969 7.27734 22.9688 7.26562 22.7227C7.26562 22.5234 7.38281 22.2774 7.54688 22.1016C7.71094 21.9375 7.96875 21.8086 8.13281 21.8086C8.34375 21.8086 8.67188 22.0313 9.96094 23.2734L11.5781 21.668C13.0781 20.1797 13.2305 20.0508 13.6289 20.0508Z" fill="#4BA9EF"/>
</g>
<defs>
<clipPath id="clip0_153_524">
<rect width="60" height="60" fill="white"/>
</clipPath>
</defs>
</svg>
