<svg width="60" height="60" viewBox="0 0 60 60" fill="none" xmlns="http://www.w3.org/2000/svg">
<g clip-path="url(#clip0_153_516)">
<path fill-rule="evenodd" clip-rule="evenodd" d="M29.9414 0.0117696C30.8086 5.08158e-05 31.1367 0.0469258 31.7578 0.29302C32.1797 0.457082 32.7304 0.714895 32.9882 0.867238C33.2461 1.01958 33.7382 1.45318 34.0898 1.82818C34.4297 2.21489 34.8398 2.76568 34.9922 3.08208C35.1445 3.38677 35.3554 3.96099 35.4492 4.37114C35.5429 4.76958 35.625 5.33208 35.625 5.62505C35.6367 6.15239 35.6367 6.15239 36.4804 6.67974C36.9492 6.96099 37.7695 7.62896 38.3086 8.14458C38.8828 8.69536 39.5742 9.51568 39.9726 10.1368C40.3593 10.7227 40.8281 11.5665 41.0156 12.0118C41.1914 12.4571 41.4609 13.254 41.6132 13.7696C41.8242 14.5547 41.8711 15.1055 41.9179 17.1094C41.9414 18.4336 41.9882 19.5821 42.0234 19.6641C42.0468 19.7461 42.3047 19.5821 42.6914 19.2188C43.0195 18.9024 43.6172 18.4571 44.0039 18.2227C44.3906 17.9883 45.1289 17.6719 45.6445 17.5079C46.1836 17.3321 47.0156 17.1797 47.5781 17.1446C48.2812 17.0977 48.8672 17.1329 49.5703 17.2735C50.1211 17.3907 50.9297 17.6485 51.3867 17.8594C51.8437 18.0704 52.5234 18.4688 52.8984 18.7618C53.2851 19.043 53.8828 19.6172 54.2226 20.0391C54.5625 20.461 55.0312 21.1758 55.2539 21.6211C55.4765 22.0665 55.7343 22.8165 55.8398 23.2618C55.9453 23.7071 56.0273 24.5625 56.0273 25.1368C56.0273 25.711 55.9687 26.4376 55.9101 26.754C55.8398 27.0586 55.664 27.6094 55.5234 27.9727C55.3828 28.3477 55.1601 28.8399 55.0312 29.0625C54.9023 29.2852 54.5507 29.7891 54.2578 30.1758C53.9531 30.5625 53.5547 30.9844 53.0273 31.3243L54.0234 31.5352C54.5742 31.6407 55.2773 31.8516 55.6054 31.9922C55.9218 32.1329 56.4843 32.4493 56.8359 32.6954C57.1875 32.9297 57.7382 33.4219 58.0664 33.7618C58.3828 34.1133 58.8398 34.7696 59.0859 35.2149C59.3203 35.6719 59.6132 36.3985 59.7539 36.8555C59.9648 37.5704 60 37.9922 60 42.6563L59.6718 42.8907C59.4961 43.0313 59.2383 43.1368 59.0859 43.125C58.9453 43.125 58.6992 42.9961 58.5351 42.8321C58.2422 42.5391 58.2422 42.5274 58.2422 40.3711C58.2422 38.8711 58.1836 37.9571 58.0664 37.4063C57.9726 36.9727 57.7031 36.3047 57.4687 35.918C57.2461 35.5313 56.9179 35.0625 56.7422 34.875C56.5664 34.6875 56.1093 34.336 55.7226 34.0782C55.3359 33.8321 54.6797 33.5157 54.2578 33.3868C53.5312 33.1641 53.1914 33.1524 47.8125 33.1876C42.2578 33.2227 42.1172 33.2227 41.4843 33.4805C41.1328 33.6211 40.5703 33.9258 40.2539 34.1485C39.7031 34.5352 39.6797 34.5586 39.9609 34.6172C40.125 34.6407 40.7343 34.7813 41.3086 34.9102C41.8828 35.0391 42.7265 35.3321 43.1836 35.5547C43.6406 35.7774 44.3203 36.2227 44.707 36.5391C45.0937 36.8438 45.6914 37.4766 46.0195 37.9219C46.3593 38.3672 46.8047 39.129 47.0039 39.6094C47.2031 40.0899 47.4375 40.8282 47.5312 41.25C47.6484 41.7891 47.6953 43.0079 47.6953 45.4102C47.707 48.6446 47.6953 48.8204 47.4609 49.1251C47.2968 49.3594 47.1211 49.4532 46.875 49.4532C46.6523 49.4532 46.4179 49.3477 45.9375 48.8672V45.4922C45.9375 42.8672 45.8906 41.9649 45.75 41.3672C45.6562 40.9454 45.3867 40.2657 45.1757 39.8438C44.9531 39.4102 44.4492 38.7657 44.039 38.3438C43.6172 37.9219 42.9726 37.4415 42.539 37.2071C42.1172 36.9961 41.4609 36.7383 41.0742 36.6446C40.6875 36.5508 40.1718 36.4336 39.4922 36.3282V46.6407L40.0781 46.9922C40.4882 47.2383 40.7695 47.5196 41.0156 47.9649C41.3086 48.4688 41.3672 48.7032 41.3672 49.336C41.3672 49.8868 41.2968 50.2383 41.0976 50.6133C40.957 50.9063 40.6523 51.2813 40.4297 51.4688C40.207 51.6563 39.7265 51.8907 39.375 51.9844C38.9531 52.1016 38.5664 52.1368 38.2617 52.0899C38.0039 52.043 37.6289 51.9258 37.4414 51.8321C37.2539 51.7266 36.9375 51.5157 36.7617 51.3399C36.5742 51.1758 36.3164 50.8243 36.1758 50.5665C36 50.2266 35.9297 49.875 35.9179 49.3243C35.9179 48.668 35.9648 48.4688 36.2695 47.9766C36.4804 47.6368 36.8554 47.2618 37.7226 46.6993L37.7343 35.9766H37.4648C37.3125 35.9766 35.8593 37.0196 33.75 38.625C31.3476 40.4532 30.1992 41.2618 30 41.25C29.8007 41.25 28.5937 40.4063 26.25 38.6133C24.1406 37.0079 22.6875 35.9766 22.2656 35.9766V41.1329L22.6406 41.1915C22.8515 41.2149 23.3437 41.4024 23.7304 41.5899C24.1289 41.7891 24.6914 42.1993 25.0312 42.5626C25.3593 42.9024 25.7578 43.418 25.9336 43.711C26.0976 44.004 26.3203 44.5547 26.4257 44.9415C26.5547 45.4336 26.6015 46.2071 26.6015 47.5547C26.6015 48.9961 26.5547 49.5586 26.4257 49.8868C26.3203 50.1329 26.039 50.5313 25.8047 50.7774C25.5 51.0821 25.1718 51.2813 24.7265 51.3985C24.375 51.504 24.0351 51.6563 23.9648 51.7266C23.8945 51.8086 23.7304 51.9375 23.5781 52.0079C23.4257 52.0899 23.1914 52.1133 23.0039 52.0665C22.8398 52.0079 22.6289 51.8672 22.5351 51.7383C22.4414 51.586 22.3828 51.1641 22.3828 50.5899C22.3828 49.8399 22.4179 49.6524 22.6172 49.4532C22.7578 49.3125 23.0039 49.2188 23.2383 49.2188C23.4843 49.2188 23.7187 49.3243 24.1992 49.8165L24.8672 49.2774L24.832 47.2852C24.7851 45.4922 24.7617 45.2461 24.5156 44.7891C24.375 44.5196 24.1054 44.1211 23.9179 43.9219C23.7422 43.711 23.2968 43.3829 22.957 43.1954C22.5 42.9493 22.1132 42.8321 21.5625 42.7969C20.9648 42.7618 20.6484 42.8086 20.0976 43.0196C19.664 43.1836 19.207 43.4649 18.9257 43.7579C18.6679 44.0274 18.3281 44.5079 18.164 44.8243C17.9179 45.3516 17.8828 45.5977 17.8359 47.2266C17.7968 48.4375 17.8242 49.1329 17.9179 49.3125C17.9882 49.4532 18.164 49.6055 18.3047 49.6641C18.4804 49.7227 18.6211 49.6758 18.8203 49.4883C18.9726 49.336 19.2422 49.2188 19.4179 49.2188C19.5937 49.2188 19.8632 49.3008 20.0039 49.3946C20.25 49.5586 20.2734 49.6641 20.2734 50.625C20.2734 51.6446 20.2617 51.6915 19.9453 51.9141C19.7695 52.0547 19.5351 52.1602 19.4179 52.1485C19.3125 52.1485 19.0781 52.0196 18.8906 51.8672C18.7148 51.7149 18.3632 51.5274 18.1054 51.4571C17.8476 51.3868 17.4609 51.2227 17.25 51.0938C17.0507 50.9649 16.7461 50.6836 16.5937 50.4844C16.4414 50.2735 16.2539 49.8868 16.1836 49.629C16.1133 49.3711 16.0547 48.4219 16.0547 47.5196C16.0547 46.4766 16.125 45.6094 16.2304 45.1407C16.3242 44.7422 16.5351 44.168 16.6875 43.8633C16.8398 43.5469 17.1562 43.0899 17.3672 42.8321C17.5898 42.5743 18.0586 42.1758 18.4101 41.9415C18.7617 41.6954 19.3593 41.4024 20.4492 41.0274L20.5078 36.3282L20.0625 36.3985C19.8281 36.4336 19.3125 36.5508 18.9257 36.6446C18.539 36.7383 17.8828 36.9961 17.4609 37.2071C17.0273 37.4415 16.3828 37.9219 15.9609 38.3438C15.5507 38.7657 15.0468 39.4102 14.8242 39.8438C14.6132 40.2657 14.3437 40.9454 14.25 41.3672C14.0976 42.0118 14.0625 43.3243 14.0625 58.2422H18.75V56.1915C18.75 54.293 18.7734 54.1172 18.9843 53.9063C19.125 53.7657 19.3828 53.6719 19.5937 53.6719C19.8398 53.6602 20.0625 53.754 20.2148 53.918C20.4257 54.1407 20.4492 54.3516 20.5078 58.2422H39.4922L39.5156 56.2032C39.5508 54.3516 39.5742 54.1407 39.7851 53.918C39.9375 53.754 40.1601 53.6602 40.3945 53.6719C40.6172 53.6719 40.875 53.7657 41.0156 53.9063C41.2265 54.1172 41.25 54.293 41.25 58.2422H45.9375V52.3829L46.2304 52.0899C46.3828 51.9258 46.6523 51.7969 46.8164 51.7969C46.9804 51.7969 47.2382 51.9258 47.6953 52.3829V58.2422H53.2031V51.211C53.2031 45.4688 53.2382 44.1211 53.3672 43.8633C53.4492 43.6758 53.7422 43.336 54.0117 43.1016C54.3164 42.8204 54.6093 42.6563 54.8086 42.6563C54.9961 42.6446 55.2539 42.7383 55.3945 42.8555C55.5351 42.9727 55.6875 43.1954 55.7226 43.3594C55.7812 43.5821 55.6992 43.7813 54.9609 44.7657V58.2422H58.2422V46.0547L58.5351 45.7618C58.6875 45.5977 58.9336 45.4688 59.0859 45.4688C59.2383 45.4571 59.4961 45.5625 60 45.9375V52.6524C60.0117 59.2149 60 59.3672 59.5312 60H0.468718L0.234343 59.6836C-3.21213e-05 59.3672 -0.0117509 59.2032 -3.21246e-05 50.9766L0.316374 50.7422C0.503874 50.6016 0.761687 50.4961 0.902312 50.5079C1.05466 50.5079 1.30075 50.6368 1.75778 51.0938V58.2422H5.03903V44.7657L4.61716 44.2149C4.30075 43.7813 4.21872 43.5821 4.27731 43.3594C4.31247 43.1954 4.46481 42.9727 4.60544 42.8555C4.74606 42.7383 5.00387 42.6446 5.17966 42.6563C5.39059 42.6563 5.68356 42.8204 5.98825 43.1016C6.25778 43.336 6.55075 43.6758 6.63278 43.8633C6.76169 44.1211 6.79684 45.4688 6.79684 58.2422H12.3047V50.1211C12.3047 43.7227 12.3398 41.8477 12.4687 41.25C12.5625 40.8282 12.7968 40.0899 12.9961 39.6094C13.1953 39.129 13.6406 38.3672 13.9804 37.9219C14.3086 37.4766 14.9062 36.8438 15.2929 36.5391C15.6797 36.2227 16.3711 35.7774 16.8164 35.5547C17.2617 35.3321 18.1172 35.0391 18.6914 34.9102C19.2656 34.7813 19.875 34.6407 20.039 34.6172C20.3203 34.5586 20.2968 34.5352 19.7461 34.1485C19.4179 33.9258 18.8672 33.6211 18.5156 33.4805C17.8828 33.2227 17.7422 33.2227 12.1875 33.1876C6.80856 33.1524 6.46872 33.1641 5.74216 33.3868C5.32028 33.5157 4.66403 33.8204 4.27731 34.0782C3.89059 34.3243 3.37497 34.7579 3.12887 35.0508C2.88278 35.3321 2.53122 35.8829 2.332 36.2696C2.1445 36.6563 1.94528 37.2657 1.87497 37.6172C1.80466 37.9805 1.75778 40.2657 1.75778 47.5782L1.46481 47.8711C1.31247 48.0352 1.06637 48.1641 0.91403 48.1641C0.761687 48.1758 0.503874 48.0704 -3.21246e-05 47.6954L0.0585616 37.3243L0.374968 36.4219C0.562468 35.918 0.890593 35.2032 1.12497 34.8399C1.35934 34.4649 1.7695 33.9258 2.03903 33.6563C2.29684 33.3751 2.81247 32.9415 3.16403 32.6954C3.51559 32.4493 4.06637 32.1329 4.3945 31.9922C4.71091 31.8516 5.42575 31.6407 6.97262 31.3243L6.63278 31.1016C6.44528 30.9844 6.04684 30.5625 5.74216 30.1758C5.44919 29.7891 5.09762 29.2852 4.96872 29.0625C4.83981 28.8399 4.61716 28.3477 4.47653 27.9844C4.33591 27.6094 4.16012 27.0586 4.08981 26.754C4.03122 26.4376 3.97262 25.711 3.97262 25.1368C3.97262 24.5625 4.05466 23.7071 4.16012 23.2618C4.26559 22.8165 4.52341 22.0665 4.74606 21.6211C4.96872 21.1758 5.39059 20.4961 5.68356 20.1329C5.97653 19.7579 6.51559 19.2188 6.87887 18.9141C7.25387 18.6211 7.98044 18.1758 8.49606 17.9297C9.03512 17.6719 9.85544 17.3907 10.4297 17.2735C11.1328 17.1329 11.7187 17.0977 12.4218 17.1446C12.9843 17.1797 13.8164 17.3321 14.3554 17.5079C14.8711 17.6719 15.6093 17.9883 15.9961 18.2227C16.3828 18.4571 16.9804 18.9024 17.3086 19.2188C17.6953 19.5821 17.9531 19.7461 17.9765 19.6641C18.0117 19.5821 18.0586 18.4336 18.082 17.1094C18.1289 14.9649 18.164 14.5899 18.4453 13.629C18.6093 13.0313 18.914 12.1876 19.1133 11.754C19.3008 11.3086 19.7461 10.5352 20.0976 10.0196C20.4375 9.50396 21.1523 8.66021 21.6914 8.14458C22.2304 7.62896 23.0507 6.96099 23.5195 6.67974C24.3632 6.15239 24.3632 6.15239 24.375 5.62505C24.375 5.33208 24.457 4.76958 24.5507 4.37114C24.6445 3.96099 24.8554 3.38677 25.0078 3.08208C25.1601 2.76568 25.5703 2.21489 25.9101 1.82818C26.2617 1.45318 26.7304 1.0313 26.9531 0.902395C27.1757 0.76177 27.7031 0.503957 28.125 0.328176C28.7461 0.0703633 29.0742 0.0117696 29.9414 0.0117696ZM27.9492 2.36724C27.6914 2.5313 27.3047 2.85943 27.082 3.11724C26.8593 3.36333 26.5898 3.78521 26.4843 4.04302C26.3789 4.30083 26.25 4.69927 26.2148 4.92193L26.1445 5.33208C27.3633 5.01568 28.2304 4.87505 28.8515 4.80474C29.625 4.72271 30.375 4.72271 31.1367 4.80474C31.7695 4.87505 32.6367 5.01568 33.0703 5.13286C33.5039 5.23833 33.8672 5.30864 33.8672 5.27349C33.8672 5.23833 33.7851 4.92193 33.6797 4.57036C33.5742 4.2188 33.3632 3.73833 33.2226 3.51568C33.082 3.29302 32.7656 2.92974 32.5078 2.70708C32.2617 2.48443 31.8164 2.20318 31.5234 2.07427C31.207 1.93364 30.6562 1.81646 30.1757 1.79302C29.707 1.7813 29.1562 1.82818 28.8867 1.91021C28.6289 2.00396 28.207 2.20318 27.9492 2.36724ZM26.8007 7.0313C26.1914 7.23052 25.289 7.65239 24.7265 7.99224C24.1757 8.33208 23.3906 8.92974 22.9804 9.31646C22.5703 9.70318 22.0078 10.336 21.7265 10.7227C21.457 11.1094 21.0234 11.8711 20.7656 12.4219C20.5078 12.9727 20.2148 13.7579 20.0976 14.1797C19.9804 14.6251 19.875 15.6211 19.8281 16.5821L19.7695 18.2227C20.2031 18.0938 20.5664 18.0352 20.8593 18.0001C21.1523 17.9649 21.5625 18.0001 21.7968 18.0821C22.0312 18.1641 22.3125 18.3985 22.4648 18.6329C22.6875 18.9493 22.7343 19.2071 22.7343 19.7813C22.7343 20.2852 22.7812 20.5079 22.875 20.5079C22.957 20.5079 23.3203 20.4141 23.6718 20.2969C24.0234 20.168 24.5742 19.9336 24.9023 19.7696C25.2187 19.6055 25.8867 19.1954 26.3672 18.8555C26.8476 18.5157 27.7968 17.6954 28.4765 17.0274C29.3789 16.1368 29.789 15.8086 30 15.8086C30.2109 15.8086 30.6211 16.1368 31.5234 17.0274C32.2031 17.6954 33.1523 18.5157 33.6328 18.8555C34.1132 19.1954 34.7695 19.6055 35.0976 19.7696C35.414 19.9336 35.9765 20.168 36.3281 20.2969C36.6797 20.4141 37.0429 20.5079 37.1133 20.5079C37.2187 20.5079 37.2656 20.2852 37.2656 19.7696C37.2656 19.254 37.3359 18.9376 37.5 18.668C37.6289 18.4571 37.8515 18.2227 37.9922 18.1524C38.1445 18.0704 38.4961 18.0118 38.789 18.0001C39.082 18.0001 39.5273 18.0352 39.7851 18.0938L40.2539 18.1875C40.1367 15.668 40.0078 14.6016 39.9023 14.1797C39.7851 13.7579 39.4922 12.9727 39.2343 12.4219C38.9765 11.8711 38.5429 11.1094 38.2617 10.7227C37.9804 10.336 37.4765 9.75005 37.125 9.41021C36.7851 9.08208 36.1054 8.54302 35.625 8.20318C35.1445 7.87505 34.3359 7.45318 33.832 7.26568C33.3398 7.06646 32.6015 6.8438 32.1914 6.75005C31.7929 6.6563 31.0429 6.55083 30.5273 6.52739C30.0117 6.49224 29.2031 6.51568 28.7343 6.57427C28.2773 6.63286 27.3984 6.8438 26.8007 7.0313ZM27.6562 20.086C27.0468 20.543 26.0976 21.1407 25.5468 21.4219C24.9961 21.6915 24.1523 22.0079 23.6718 22.1368L22.7929 22.3594C22.7343 23.9649 22.7812 24.8086 22.8633 25.254C22.9453 25.7579 23.1914 26.4375 23.4843 27.0118C23.8476 27.75 24.1992 28.1954 25.0664 29.0743C25.6875 29.6836 26.4492 30.375 26.7773 30.586C27.0937 30.8086 27.7031 31.1016 28.125 31.254C28.6992 31.4532 29.1562 31.5235 29.9414 31.5235C30.6797 31.5235 31.2304 31.4532 31.7578 31.2891C32.1797 31.1602 32.8125 30.8672 33.164 30.6329C33.5156 30.3985 34.3125 29.6954 34.9218 29.0743C35.6836 28.3008 36.1758 27.6915 36.4687 27.129C36.7148 26.6836 36.9843 25.9336 37.0781 25.4883C37.1836 25.043 37.2656 24.129 37.2656 23.461V22.2657C36.8086 22.2657 36.2695 22.125 35.7656 21.961C35.2734 21.7969 34.5 21.4571 34.0429 21.211C33.5859 20.9649 32.7422 20.3907 32.1679 19.9454C31.5937 19.5 30.8789 18.879 30.5859 18.586C30.2929 18.293 30.0351 18.0469 30 18.0469C29.9648 18.0469 29.6718 18.3165 29.3554 18.6446C29.0273 18.9727 28.2656 19.6172 27.6562 20.086ZM9.37497 19.4297C9.082 19.5586 8.53122 19.8985 8.1445 20.1915C7.75778 20.4844 7.25387 20.9766 7.0195 21.293C6.78512 21.5977 6.48044 22.0665 6.35153 22.3243C6.22262 22.5821 6.03512 23.086 5.92966 23.4375C5.81247 23.8243 5.74216 24.5157 5.74216 25.1368C5.74216 25.8516 5.81247 26.4375 5.96481 26.9532C6.09372 27.375 6.41012 28.0313 6.65622 28.418C6.90231 28.8047 7.41794 29.4141 7.80466 29.7657C8.22653 30.1524 8.82419 30.5508 9.33981 30.7852C9.82028 31.0079 10.5937 31.2305 11.0976 31.3126C11.8711 31.4297 12.164 31.418 13.0078 31.254C13.5586 31.1485 14.3437 30.8907 14.7656 30.6915C15.2461 30.4454 15.8203 30.0235 16.3008 29.543C16.7695 29.0743 17.2265 28.4766 17.4492 28.0313C17.6484 27.6329 17.8945 27 17.9882 26.625C18.082 26.2618 18.164 25.5821 18.164 25.1368C18.164 24.6915 18.082 24 17.9765 23.6133C17.8828 23.2266 17.6601 22.6172 17.4961 22.2657C17.3086 21.879 16.8633 21.293 16.3593 20.7891C15.832 20.2618 15.2578 19.8165 14.789 19.5821C14.3906 19.3829 13.7343 19.1368 13.3242 19.043C12.9257 18.9493 12.2812 18.879 11.8945 18.879C11.5078 18.879 10.8984 18.961 10.5468 19.043C10.1953 19.125 9.66794 19.3008 9.37497 19.4297ZM45.0703 19.6641C44.5547 19.9454 44.0039 20.379 43.5468 20.8594C43.1484 21.2813 42.6797 21.9141 42.5039 22.2657C42.3398 22.6172 42.1172 23.2266 42.0117 23.6133C41.9179 24 41.8359 24.6915 41.8359 25.1368C41.8359 25.5821 41.9179 26.2618 42.0117 26.6368C42.1054 27.0001 42.3515 27.6329 42.5507 28.0313C42.7734 28.4766 43.2304 29.0743 43.6992 29.543C44.1797 30.0235 44.7539 30.4454 45.2343 30.6915C45.6562 30.8907 46.4414 31.1485 46.9922 31.254C47.8359 31.418 48.1289 31.4297 48.8906 31.3126C49.4062 31.2305 50.1797 31.0079 50.6484 30.7852C51.1758 30.5508 51.7734 30.1524 52.1953 29.7657C52.582 29.4141 53.0976 28.8047 53.3437 28.418C53.5898 28.0313 53.9062 27.375 54.0351 26.9532C54.1875 26.4375 54.2578 25.8516 54.2578 25.1368C54.2578 24.5157 54.1875 23.8125 54.0703 23.4375C53.9648 23.086 53.7187 22.4883 53.5195 22.1016C53.3086 21.7266 52.9101 21.1641 52.6172 20.8594C52.3242 20.5665 51.7968 20.1211 51.4453 19.8985C51.0937 19.6641 50.4609 19.3477 50.039 19.2071C49.5703 19.0547 48.8906 18.9375 48.2812 18.9141C47.6367 18.8907 47.039 18.9376 46.582 19.0547C46.1953 19.1485 45.5156 19.4297 45.0703 19.6641ZM19.4883 20.6485C19.3828 20.8594 19.3007 21.2461 19.3007 21.504C19.3007 21.7735 19.4062 22.1485 19.5468 22.3829C19.6758 22.6055 19.9101 22.8633 20.0625 22.9571C20.2148 23.0508 20.4726 23.168 20.6484 23.2266L20.9765 23.3204C20.9765 19.8165 20.9765 19.8047 20.707 19.8047C20.5664 19.8047 20.2734 19.9102 20.0625 20.0391C19.8632 20.168 19.6054 20.4493 19.4883 20.6485ZM39.0234 23.3204C39.5273 23.168 39.7851 23.0508 39.9375 22.9571C40.0898 22.8633 40.3242 22.6055 40.4531 22.3829C40.5937 22.1485 40.6992 21.7735 40.6992 21.504C40.6992 21.2461 40.6172 20.8594 40.5117 20.6485C40.3945 20.4493 40.1367 20.168 39.9258 20.0391C39.7265 19.9102 39.4336 19.8047 39.2812 19.8047C39.0234 19.8047 39.0234 19.8165 39.0234 21.5625V23.3204ZM19.7461 26.8946C19.6406 27.3399 19.3593 28.1368 19.1133 28.6524C18.8086 29.2852 18.3984 29.8711 17.8359 30.4688L17.0273 31.3477C18.5156 31.6407 19.289 31.9102 19.7695 32.1563L20.625 32.5782C21.0586 31.8047 21.3633 31.4297 21.5742 31.2422C21.7968 31.0547 22.1836 30.8086 22.4414 30.6915C22.6992 30.5743 23.1093 30.4688 23.3437 30.4688C23.5898 30.4688 23.789 30.4454 23.789 30.4102C23.789 30.375 23.5078 30.0352 23.1679 29.6602C22.8398 29.2852 22.3593 28.6407 22.1132 28.2305C21.8672 27.8204 21.539 27.0704 21.3867 26.5665C21.2226 26.0743 21.0937 25.5352 21.0937 25.3711C21.0937 25.1485 21.0234 25.0665 20.7773 25.0196C20.5898 24.9844 20.332 24.9375 20.1914 24.9024C19.9453 24.8438 19.9218 24.879 19.9218 25.4532C19.9218 25.793 19.8398 26.4375 19.7461 26.8946ZM39.164 25.0313C38.9765 25.0665 38.9062 25.1602 38.9062 25.3711C38.9062 25.5352 38.7773 26.0743 38.6132 26.5665C38.4609 27.0704 38.1328 27.8204 37.8867 28.2305C37.6406 28.6407 37.1601 29.2852 36.832 29.6602C36.4922 30.0352 36.2109 30.375 36.2109 30.4102C36.2109 30.4454 36.4101 30.4688 36.6562 30.4688C36.8906 30.4688 37.3007 30.5743 37.5586 30.6915C37.8164 30.8086 38.2031 31.0547 38.4257 31.2422C38.6367 31.4297 38.9414 31.8047 39.0937 32.0743L39.375 32.5782C40.7109 31.9102 41.4843 31.6407 42.0234 31.5352L42.9726 31.3477C41.6015 29.8711 41.1914 29.2852 40.8867 28.6524C40.6406 28.1368 40.3593 27.3399 40.2539 26.8946C40.1601 26.4493 40.0781 25.793 40.0781 25.4532C40.0781 25.125 40.0429 24.8555 39.9961 24.8555C39.9375 24.8672 39.7968 24.8907 39.6679 24.9258C39.539 24.9493 39.3164 24.9961 39.164 25.0313ZM22.4414 32.9297C22.3476 33.1172 22.2656 33.4922 22.2656 33.75C22.2656 34.0079 22.3007 34.2188 22.3476 34.2188C22.4062 34.2188 22.9218 34.1368 23.4961 34.043C24.0703 33.9375 24.6445 33.8321 24.75 33.8086C24.9257 33.7618 24.9609 33.6211 24.9609 32.9883V32.2266C23.6015 32.2383 23.1328 32.3086 22.9336 32.4024C22.7578 32.4961 22.5351 32.7422 22.4414 32.9297ZM35.039 32.9883C35.039 33.6797 35.0625 33.75 35.2968 33.8086C35.4492 33.8321 36.0117 33.9375 36.5625 34.043C37.1132 34.1368 37.5937 34.2188 37.6406 34.2188C37.6992 34.2188 37.7343 34.0079 37.7343 33.75C37.7343 33.4922 37.6523 33.1172 37.5586 32.9297C37.4648 32.7422 37.2187 32.4961 37.0312 32.4024C36.8203 32.2969 36.3515 32.2266 35.8593 32.2266H35.039V32.9883ZM26.3906 35.1563C26.2148 35.2969 25.9687 35.4024 25.8398 35.4024C25.7109 35.4024 25.5 35.4493 25.3711 35.4961C25.1718 35.5665 25.5468 35.8946 27.5625 37.418L30 39.2579C34.4531 35.8946 34.8281 35.5665 34.6289 35.4961C34.5 35.4493 34.289 35.4024 34.1601 35.4024C34.0312 35.4024 33.7851 35.2969 33.5976 35.1563C33.2929 34.9336 33.2812 34.8868 33.2812 33.8086C33.2812 33.1993 33.2461 32.6954 33.1875 32.6954C33.1406 32.6954 32.789 32.8126 32.4023 32.9532C31.7929 33.1876 31.4765 33.2227 30 33.211C28.5468 33.211 28.207 33.1758 27.5976 32.9532C27.2109 32.8126 26.8593 32.6954 26.8007 32.6954C26.7539 32.6954 26.7187 33.1993 26.7187 33.8086C26.7187 34.8868 26.707 34.9336 26.3906 35.1563ZM37.7578 48.9375C37.664 49.1368 37.6289 49.3946 37.6757 49.5704C37.7226 49.7344 37.8515 49.9571 37.957 50.0743C38.0625 50.1797 38.2851 50.3086 38.4609 50.3321C38.6484 50.3672 38.9297 50.3204 39.1054 50.2266C39.2929 50.1446 39.4687 49.9805 39.5156 49.875C39.5742 49.7696 39.6093 49.5118 39.6093 49.3008C39.6093 49.0547 39.5273 48.8438 39.3515 48.6797C39.1992 48.5391 38.9765 48.3985 38.8476 48.3633C38.7187 48.3282 38.4492 48.3633 38.2617 48.4454C38.0742 48.5274 37.8398 48.75 37.7578 48.9375Z" fill="#4BA9EF"/>
</g>
<defs>
<clipPath id="clip0_153_516">
<rect width="60" height="60" fill="white"/>
</clipPath>
</defs>
</svg>
