<svg width="27" height="28" viewBox="0 0 27 28" fill="none" xmlns="http://www.w3.org/2000/svg">
<g clip-path="url(#clip0_46_3649)">
<path fill-rule="evenodd" clip-rule="evenodd" d="M13.4474 0.505371C14.0222 0.505371 14.4599 0.526465 14.7394 0.579199C14.9714 0.621387 15.3405 0.695215 15.5567 0.742676C15.773 0.790137 16.2106 0.916699 16.5323 1.02744C16.854 1.13291 17.3075 1.32275 17.5501 1.44404C17.7874 1.56006 18.1407 1.76045 18.3358 1.87646C18.5362 1.99775 18.8843 2.24033 19.1163 2.41963C19.3483 2.59893 19.7386 2.9417 19.9864 3.18955C20.2343 3.4374 20.5771 3.82764 20.7564 4.05967C20.9304 4.2917 21.1624 4.61865 21.2679 4.7874C21.3733 4.95088 21.5737 5.30947 21.7056 5.57314C21.8427 5.84209 22.022 6.25342 22.1064 6.48545C22.1907 6.71748 22.3173 7.13408 22.3858 7.4083C22.4544 7.68252 22.5335 8.08857 22.5651 8.30478C22.5968 8.521 22.6337 8.92705 22.6548 9.20127C22.6706 9.49131 22.6601 9.91318 22.6231 10.2032C22.5915 10.4774 22.4913 10.9784 22.4069 11.3106C22.3173 11.6429 22.138 12.2019 22.0062 12.5499C21.8743 12.8979 21.5579 13.6099 21.3048 14.1319C21.0464 14.654 20.6878 15.3448 20.5032 15.6612C20.3239 15.9829 18.5942 18.7726 16.6642 21.8681C14.7341 24.9636 13.1521 27.4948 13.1521 27.4843C13.1468 27.479 11.7335 25.0796 10.0091 22.1476C8.28467 19.2155 6.78702 16.6579 6.67627 16.4522C6.57081 16.2466 6.31241 15.7245 6.10674 15.2921C5.90108 14.8544 5.59522 14.1583 5.4212 13.7364C5.25245 13.3146 4.99405 12.6132 4.85166 12.1808C4.70928 11.7431 4.54053 11.1419 4.47725 10.836C4.38233 10.3983 4.35596 10.1188 4.36123 9.51768C4.36123 9.0958 4.39288 8.56318 4.42452 8.33115C4.46143 8.09912 4.54581 7.68252 4.61436 7.4083C4.68291 7.13408 4.80948 6.71748 4.89385 6.48545C4.97823 6.25342 5.14698 5.86846 5.26827 5.62588C5.38428 5.38857 5.58467 5.03525 5.70069 4.83486C5.82198 4.63975 6.06456 4.2917 6.24385 4.05967C6.42315 3.82764 6.76592 3.4374 7.01377 3.18955C7.26163 2.9417 7.65186 2.59893 7.88389 2.41963C8.11592 2.24033 8.46397 1.99775 8.65909 1.87646C8.85948 1.76045 9.1917 1.57588 9.39737 1.47041C9.60831 1.36494 10.0196 1.18564 10.3097 1.08018C10.5997 0.974707 11.0638 0.832324 11.338 0.769043C11.6122 0.711035 12.0077 0.62666 12.2081 0.584473C12.4138 0.547559 12.9622 0.510645 13.4474 0.505371ZM12.1554 4.30225C11.9233 4.36025 11.5648 4.48154 11.3644 4.57119C11.164 4.66084 10.7948 4.8665 10.547 5.02998C10.2991 5.19346 9.94581 5.47822 9.75596 5.66807C9.56612 5.85791 9.28135 6.20596 9.12315 6.43271C8.97022 6.66475 8.76983 7.00225 8.69073 7.18682C8.61163 7.36611 8.47979 7.71943 8.40596 7.97783C8.29522 8.3417 8.26358 8.58955 8.24249 9.1749C8.22139 9.78135 8.23721 10.0028 8.32159 10.4142C8.37959 10.6884 8.49561 11.0944 8.59053 11.3106C8.68018 11.5269 8.85948 11.8907 8.99131 12.1175C9.12315 12.339 9.40264 12.7028 9.60831 12.9243C9.81924 13.1458 10.1462 13.4464 10.336 13.5888C10.5259 13.7312 10.895 13.9579 11.1534 14.0845C11.4118 14.211 11.8653 14.3798 12.1554 14.4536C12.4507 14.5274 12.9148 14.596 13.2101 14.6171C13.5739 14.6329 13.9009 14.6171 14.2489 14.5591C14.5337 14.5116 14.9134 14.422 15.0927 14.364C15.2773 14.3007 15.5778 14.1741 15.7677 14.0845C15.9575 13.9896 16.2265 13.8366 16.3741 13.7364C16.5165 13.6415 16.7907 13.4306 16.9753 13.2671C17.1599 13.1036 17.4552 12.7819 17.6292 12.5499C17.8032 12.3179 18.0511 11.9118 18.1776 11.6534C18.3042 11.395 18.4677 10.9415 18.5415 10.6515C18.6575 10.2138 18.6786 10.0028 18.6839 9.41221C18.6839 8.92178 18.6575 8.56846 18.5942 8.27842C18.5415 8.04639 18.4044 7.62979 18.2937 7.35557C18.1776 7.08135 17.972 6.68584 17.8401 6.48545C17.703 6.28506 17.3814 5.90537 17.1177 5.6417C16.8171 5.34639 16.4743 5.07217 16.2159 4.91924C15.9839 4.77686 15.6148 4.59229 15.3985 4.50791C15.1823 4.41826 14.771 4.29697 14.4862 4.24424C14.1487 4.17568 13.7901 4.14404 13.4315 4.14404C13.1362 4.14932 12.8251 4.16514 12.7355 4.17568C12.6458 4.18623 12.3874 4.24424 12.1554 4.30225Z" fill="#4BA9EF"/>
</g>
<defs>
<clipPath id="clip0_46_3649">
<rect width="27" height="27" fill="white" transform="translate(0 0.5)"/>
</clipPath>
</defs>
</svg>
