<svg width="27" height="28" viewBox="0 0 27 28" fill="none" xmlns="http://www.w3.org/2000/svg">
<path d="M6.32819 3.33716C6.13835 3.41626 5.90104 3.53755 5.80085 3.61138C5.70065 3.67994 5.40534 3.90669 5.14167 4.11236C4.878 4.32329 4.47194 4.66607 4.23464 4.88228C3.99733 5.09849 3.68093 5.42544 3.53327 5.61529C3.38034 5.80513 3.17995 6.12681 3.08503 6.3272C2.98483 6.52759 2.86882 6.89673 2.81608 7.14458C2.7528 7.46626 2.73698 7.71939 2.75808 8.04107C2.77917 8.28892 2.83718 8.65806 2.89519 8.85845C2.95319 9.05884 3.12194 9.5229 3.27487 9.88677C3.4278 10.2506 3.77058 10.9731 4.03425 11.4952C4.29792 12.0172 4.68815 12.7397 4.90436 13.1036C5.1153 13.4674 5.47917 14.0475 5.7112 14.3956C5.94323 14.7436 6.32819 15.2868 6.5655 15.6085C6.79753 15.9301 7.2405 16.4838 7.54108 16.8477C7.84167 17.2116 8.51667 17.934 9.04401 18.4561C9.56608 18.9835 10.2885 19.6585 10.6524 19.959C11.0163 20.2596 11.57 20.7026 11.8917 20.9399C12.2133 21.1772 12.8145 21.5938 13.2364 21.8733C13.6583 22.1475 14.2964 22.543 14.6602 22.754C15.0241 22.9596 15.7202 23.3288 16.2159 23.5713C16.7116 23.8139 17.4341 24.1461 17.8243 24.3096C18.2145 24.4731 18.726 24.6524 18.9581 24.7104C19.2007 24.7684 19.5592 24.8106 19.8018 24.8106C20.1024 24.8106 20.345 24.7737 20.6456 24.6788C20.8776 24.6049 21.2467 24.4467 21.463 24.3307C21.7477 24.1672 22.0114 23.9563 22.4122 23.5502C22.718 23.2444 23.1874 22.7065 23.4563 22.3585C23.7253 22.0104 23.9942 21.6202 24.0575 21.4883C24.1208 21.3565 24.1946 21.1086 24.2262 20.9346C24.2632 20.7079 24.2632 20.5233 24.2157 20.2754C24.1788 20.0856 24.0944 19.8167 24.0259 19.669C23.952 19.5266 23.7938 19.2893 23.6673 19.1469C23.5407 19.0045 23.3087 18.7989 23.1505 18.6934C22.9923 18.5879 22.4596 18.2715 21.9639 17.9973C21.4682 17.7178 20.4979 17.1799 19.8018 16.795C19.0583 16.3889 18.3833 16.062 18.1671 15.9934C17.8823 15.909 17.7083 15.8879 17.4024 15.909C17.144 15.9249 16.9278 15.9723 16.7801 16.0461C16.6589 16.1094 16.4637 16.2571 16.3477 16.3731C16.2317 16.4891 16.0788 16.7053 16.005 16.8477C15.9311 16.9954 15.8415 17.2379 15.7993 17.3909C15.7624 17.5385 15.7044 17.7178 15.6675 17.7864C15.6358 17.8497 15.5567 17.9393 15.4882 17.9815C15.4249 18.0237 15.2667 18.0606 15.1348 18.0606C14.9608 18.0606 14.8342 18.0184 14.6602 17.9077C14.5284 17.8286 14.2331 17.5965 14.001 17.4014C13.769 17.2116 13.3208 16.8161 12.9991 16.5313C12.6774 16.2465 12.0868 15.677 11.6807 15.2604C11.2747 14.8385 10.7157 14.2374 10.4415 13.9157C10.1673 13.594 9.83503 13.1932 9.70319 13.0245C9.50808 12.7713 9.46062 12.6659 9.44479 12.4497C9.42897 12.2124 9.4448 12.1596 9.57663 12.0067C9.68737 11.8801 9.81394 11.8116 10.046 11.7536C10.22 11.7061 10.4942 11.6059 10.6524 11.5321C10.8106 11.4583 11.0426 11.2948 11.1639 11.1682C11.2905 11.0417 11.4434 10.8307 11.5014 10.6936C11.5647 10.5512 11.628 10.335 11.6385 10.2032C11.6544 10.0713 11.628 9.79185 11.5805 9.57036C11.5331 9.35415 11.4012 9.00611 11.2905 8.80572C11.1798 8.60533 10.9214 8.16236 10.721 7.83013C10.5153 7.4979 10.0354 6.61724 9.65046 5.87896C9.2655 5.14068 8.88054 4.42876 8.79089 4.29693C8.70651 4.16509 8.55886 3.98052 8.46921 3.8856C8.37956 3.7854 8.21081 3.63775 8.09479 3.55865C7.97878 3.47954 7.75202 3.36353 7.59382 3.30025C7.40925 3.23169 7.18776 3.18951 6.98737 3.19478C6.77116 3.19478 6.5655 3.24224 6.32819 3.33716Z" fill="#4BA9EF"/>
</svg>
