<svg width="38" height="38" viewBox="0 0 38 38" fill="none" xmlns="http://www.w3.org/2000/svg">
<path d="M19 19C20.8897 19 22.7019 18.2493 24.0381 16.9131C25.3743 15.5769 26.125 13.7647 26.125 11.875C26.125 9.98533 25.3743 8.17306 24.0381 6.83686C22.7019 5.50067 20.8897 4.75 19 4.75C17.1103 4.75 15.2981 5.50067 13.9619 6.83686C12.6257 8.17306 11.875 9.98533 11.875 11.875C11.875 13.7647 12.6257 15.5769 13.9619 16.9131C15.2981 18.2493 17.1103 19 19 19ZM23.75 11.875C23.75 13.1348 23.2496 14.343 22.3588 15.2338C21.468 16.1246 20.2598 16.625 19 16.625C17.7402 16.625 16.532 16.1246 15.6412 15.2338C14.7504 14.343 14.25 13.1348 14.25 11.875C14.25 10.6152 14.7504 9.40704 15.6412 8.51624C16.532 7.62544 17.7402 7.125 19 7.125C20.2598 7.125 21.468 7.62544 22.3588 8.51624C23.2496 9.40704 23.75 10.6152 23.75 11.875ZM33.25 30.875C33.25 33.25 30.875 33.25 30.875 33.25H7.125C7.125 33.25 4.75 33.25 4.75 30.875C4.75 28.5 7.125 21.375 19 21.375C30.875 21.375 33.25 28.5 33.25 30.875ZM30.875 30.8655C30.8726 30.2812 30.5093 28.5238 28.899 26.9135C27.3505 25.365 24.4364 23.75 19 23.75C13.5636 23.75 10.6495 25.365 9.101 26.9135C7.49075 28.5238 7.12975 30.2812 7.125 30.8655H30.875Z" fill="black"/>
</svg>
