<svg width="24" height="23" viewBox="0 0 24 23" fill="none" xmlns="http://www.w3.org/2000/svg">
<path d="M7.247 0.737546C6.06081 0.793621 5.25077 0.983294 4.54263 1.2621C3.80973 1.54829 3.18855 1.93232 2.57048 2.55384C1.95242 3.17536 1.57181 3.79821 1.2882 4.53367C1.01372 5.24477 0.827768 6.05708 0.775371 7.24627C0.722973 8.43546 0.711379 8.81771 0.717176 11.8511C0.722973 14.8845 0.736351 15.2648 0.793877 16.4564C0.850511 17.6447 1.03914 18.4561 1.3174 19.1659C1.60347 19.9002 1.98631 20.5224 2.60682 21.1419C3.22734 21.7614 3.84853 22.1419 4.58432 22.4265C5.29336 22.7011 6.10429 22.8883 7.29092 22.9403C8.47756 22.9924 8.8595 23.0045 11.8861 22.9987C14.9126 22.9928 15.2937 22.9794 16.4828 22.9229C17.6718 22.8664 18.4774 22.6761 19.186 22.3986C19.9189 22.1113 20.5403 21.7284 21.1582 21.1064C21.776 20.4844 22.1564 19.8611 22.4398 19.1252C22.7145 18.4148 22.9011 17.6023 22.9526 16.4142C23.0045 15.2219 23.0168 14.8412 23.011 11.8082C23.0052 8.77526 22.9916 8.39503 22.9352 7.20382C22.8788 6.01262 22.6899 5.20366 22.4119 4.49346C22.1254 3.75912 21.743 3.13738 21.1227 2.51743C20.5024 1.89747 19.8799 1.51656 19.1457 1.23329C18.4362 0.958272 17.6257 0.770834 16.439 0.71945C15.2524 0.668067 14.8705 0.654886 11.8428 0.660695C8.81513 0.666503 8.43608 0.679461 7.247 0.737546ZM7.37721 20.9308C6.29025 20.8834 5.70005 20.7025 5.30674 20.551C4.78588 20.35 4.41487 20.1069 4.02289 19.7179C3.63091 19.329 3.39011 18.9559 3.18676 18.4351C3.03403 18.041 2.85008 17.4504 2.79925 16.3613C2.74395 15.1841 2.73236 14.8307 2.72589 11.8484C2.71942 8.86619 2.73079 8.51321 2.7823 7.33563C2.82868 6.24742 3.0104 5.65539 3.16134 5.26153C3.36202 4.73898 3.60371 4.3679 3.99279 3.97538C4.38187 3.58285 4.75311 3.34113 5.27329 3.13738C5.66616 2.98367 6.25569 2.80093 7.34221 2.7491C8.51791 2.69325 8.8702 2.68208 11.8461 2.6756C14.8221 2.66912 15.1753 2.68029 16.3514 2.73212C17.4375 2.77948 18.0286 2.95977 18.4212 3.11191C18.9423 3.31298 19.3131 3.55448 19.7049 3.94499C20.0966 4.33551 20.3381 4.70614 20.5414 5.22846C20.6951 5.62099 20.8774 6.21145 20.9287 7.30078C20.9847 8.4788 20.9974 8.83201 21.0027 11.8136C21.0081 14.7952 20.9976 15.1493 20.9461 16.3264C20.8986 17.4155 20.7185 18.0071 20.5671 18.4016C20.3664 18.9233 20.1245 19.2952 19.7352 19.6876C19.3459 20.0799 18.9751 20.3216 18.4547 20.5253C18.0623 20.6788 17.4721 20.862 16.3864 20.9138C15.2107 20.9692 14.8584 20.9809 11.8814 20.9873C8.90431 20.9938 8.55314 20.9817 7.37743 20.9308M16.4656 5.85959C16.466 6.12472 16.5449 6.38376 16.6923 6.60396C16.8397 6.82416 17.049 6.99562 17.2936 7.09665C17.5382 7.19768 17.8073 7.22375 18.0667 7.17156C18.3262 7.11937 18.5643 6.99126 18.7511 6.80344C18.9379 6.61562 19.0648 6.37653 19.116 6.11639C19.1671 5.85626 19.1401 5.58677 19.0384 5.34201C18.9366 5.09726 18.7648 4.88823 18.5445 4.74136C18.3241 4.59449 18.0653 4.51638 17.8007 4.51691C17.446 4.51762 17.1061 4.65947 16.8557 4.91126C16.6053 5.16304 16.465 5.50416 16.4656 5.85959ZM6.13997 11.8408C6.14621 15.0087 8.7139 17.571 11.8749 17.565C15.0359 17.5589 17.5949 14.9864 17.5889 11.8185C17.5829 8.6506 15.0145 6.08768 11.8531 6.09394C8.6916 6.10019 6.13395 8.67339 6.13997 11.8408ZM8.14801 11.8368C8.14656 11.1004 8.36309 10.3801 8.77022 9.76692C9.17735 9.15378 9.75679 8.67538 10.4353 8.39221C11.1138 8.10904 11.8608 8.03382 12.582 8.17606C13.3031 8.3183 13.966 8.67162 14.4867 9.19133C15.0075 9.71104 15.3627 10.3738 15.5075 11.0958C15.6524 11.8178 15.5803 12.5666 15.3003 13.2476C15.0204 13.9285 14.5452 14.511 13.9349 14.9213C13.3246 15.3317 12.6066 15.5515 11.8716 15.553C11.3835 15.554 10.9001 15.4587 10.4488 15.2725C9.99754 15.0863 9.5873 14.8128 9.24153 14.4677C8.89575 14.1226 8.62121 13.7127 8.43358 13.2613C8.24595 12.8098 8.14892 12.3258 8.14801 11.8368Z" fill="white"/>
</svg>
