<svg width="50" height="50" viewBox="0 0 50 50" fill="none" xmlns="http://www.w3.org/2000/svg">
<path fill-rule="evenodd" clip-rule="evenodd" d="M19.463 1.26953C19.8243 1.26953 20.1368 1.29883 20.1563 1.34766C20.1758 1.38672 20.3614 1.45508 20.5665 1.49414C20.7813 1.54297 21.1036 1.66016 21.2891 1.75781C21.4747 1.85547 21.7676 2.08008 21.9434 2.26563C22.1192 2.44141 22.3243 2.75391 22.4024 2.94922C22.4903 3.1543 22.5587 3.56445 22.5587 3.85742C22.5587 4.24805 22.1192 6.03516 20.9864 10.2344C20.0196 13.8477 19.3458 16.1914 19.209 16.3965C19.0919 16.582 18.8575 16.8359 18.7012 16.9531C18.5352 17.0801 18.1837 17.2559 17.92 17.3438C17.5977 17.4512 17.2852 17.4902 16.9922 17.4512C16.7481 17.4219 16.2598 17.3047 15.8887 17.1973C15.4493 17.0605 15.1075 16.875 14.834 16.6309C14.6192 16.4258 14.3555 16.084 14.2481 15.8691C14.1407 15.6348 14.0626 15.2637 14.0626 14.9414C14.0626 14.5508 14.4825 12.8223 15.5762 8.74023C16.4063 5.625 17.1876 2.86133 17.3047 2.60742C17.4317 2.34375 17.6172 2.05078 17.7247 1.95312C17.8321 1.85547 18.1153 1.66016 18.3594 1.52344C18.711 1.31836 18.9356 1.26953 19.4532 1.26953H19.463ZM18.5938 3.57422C18.5255 3.7793 18.4669 4.0332 18.4669 4.12109C18.4669 4.24805 18.584 4.32617 18.8575 4.39453C19.0723 4.45312 19.3165 4.58984 19.3946 4.70703C19.4825 4.83398 19.5313 5.07813 19.5215 5.26367C19.502 5.49805 19.4044 5.6543 19.2188 5.80078C18.9747 5.98633 18.8965 5.99609 18.4766 5.9082L17.9981 5.81055C17.7637 6.64062 17.7149 6.9043 17.7344 6.93359C17.7442 6.96289 17.92 7.01172 18.1153 7.05078C18.3301 7.09961 18.545 7.23633 18.6622 7.39258C18.7794 7.54883 18.8673 7.76367 18.8575 7.88086C18.8575 8.00781 18.7501 8.22266 18.6231 8.36914C18.4376 8.58398 18.3106 8.63281 18.0567 8.61328C17.8809 8.60352 17.627 8.58398 17.5001 8.56445C17.295 8.54492 17.2462 8.60352 17.1387 9.0332C17.0606 9.29688 17.002 9.54102 17.002 9.57031C17.002 9.59961 17.168 9.66797 17.3633 9.73633C17.5684 9.79492 17.8223 9.95117 17.9298 10.0586C18.0469 10.1855 18.1251 10.4004 18.1153 10.5859C18.1055 10.791 18.0176 10.957 17.8223 11.123C17.5977 11.3086 17.4708 11.3379 17.168 11.2891C16.9727 11.2598 16.7579 11.2207 16.6993 11.2012C16.6309 11.1914 16.504 11.4355 16.4063 11.7383L16.2208 12.3047C16.9434 12.5391 17.1973 12.6855 17.2657 12.7734C17.334 12.8613 17.3926 13.0664 17.3926 13.2324C17.3926 13.4082 17.3047 13.623 17.1778 13.7598C16.9727 13.9746 16.9044 13.9844 16.3868 13.9355L15.8301 13.8672C15.6837 14.4336 15.6348 14.7461 15.6348 14.9121C15.6348 15.1074 15.713 15.3125 15.8301 15.4297C15.9376 15.5371 16.1915 15.6738 16.3868 15.7227C16.5919 15.7812 16.9141 15.8496 17.0997 15.8789C17.3731 15.9277 17.5001 15.8984 17.7149 15.7129C17.9493 15.498 18.1251 14.9512 19.4923 9.81445C20.3223 6.69922 21.0059 4.00391 21.0059 3.82812C21.0059 3.66211 20.9278 3.4375 20.8301 3.33984C20.7423 3.24219 20.4102 3.08594 20.0977 2.99805C19.795 2.91016 19.463 2.83203 19.3653 2.83203C19.2579 2.83203 19.0723 2.91016 18.9454 3.01758C18.8184 3.11523 18.6524 3.36914 18.5938 3.57422ZM44.5606 1.2793C44.9805 1.26953 45.254 1.32812 45.5958 1.50391C45.8497 1.63086 46.2012 1.89453 46.377 2.08984C46.543 2.28516 46.7383 2.55859 46.7969 2.70508C46.8555 2.86133 47.6075 5.61523 48.4669 8.83789C49.795 13.8086 50.0196 14.7656 49.9708 15.1367C49.9415 15.3809 49.8047 15.7715 49.6876 16.0156C49.5606 16.2695 49.2774 16.5918 49.0235 16.7676C48.7598 16.9629 48.2813 17.1582 47.7637 17.2852C47.1973 17.4316 46.7969 17.4805 46.5235 17.4414C46.2891 17.4121 45.9376 17.3047 45.7422 17.1973C45.5372 17.0996 45.2051 16.8359 45.0098 16.6113C44.7755 16.3672 44.5801 16.0156 44.4922 15.6934C44.4141 15.4199 43.6915 12.7051 42.8712 9.66797C41.5528 4.7168 41.4063 4.0918 41.4551 3.61328C41.4844 3.31055 41.6212 2.90039 41.7579 2.65625C41.8946 2.43164 42.1485 2.13867 42.3243 2.00195C42.4903 1.875 42.9395 1.66016 43.3204 1.52344C43.7012 1.39648 44.2579 1.28906 44.5704 1.2793H44.5606ZM43.1934 3.36914C43.0665 3.50586 42.9688 3.70117 42.9688 3.80859C42.9688 3.91602 43.6036 6.38672 44.3848 9.30664C45.1661 12.2168 45.8692 14.834 45.9473 15.1172C46.0743 15.5371 46.1524 15.6543 46.4356 15.8008C46.7676 15.957 46.8067 15.957 47.4317 15.7715C47.8419 15.6445 48.1446 15.4883 48.2715 15.332C48.4473 15.1074 48.4473 15.0488 48.3301 14.4824L48.1934 13.877C47.0411 13.9941 47.0118 13.9844 46.7969 13.7109C46.6798 13.5547 46.5723 13.3301 46.5821 13.2129C46.5821 13.0859 46.6797 12.8809 46.8067 12.7441C46.9239 12.6172 47.1778 12.4707 47.3633 12.4219C47.6465 12.3535 47.7051 12.2949 47.6758 12.0996C47.6661 11.9727 47.6075 11.6992 47.5587 11.5039C47.461 11.1426 47.4512 11.1328 47.1485 11.2305C46.9727 11.2891 46.7286 11.3281 46.6114 11.3281C46.4844 11.3281 46.2794 11.2207 46.1426 11.084C46.0059 10.9473 45.8985 10.7227 45.8985 10.5762C45.8985 10.4199 45.9669 10.2051 46.045 10.0879C46.1231 9.96094 46.3672 9.81445 46.6114 9.75586L47.0215 9.64844C46.8165 8.78906 46.7481 8.53516 46.7481 8.51562C46.7383 8.50586 46.5333 8.53516 46.2891 8.58398C45.9669 8.65234 45.7813 8.64258 45.6055 8.55469C45.4688 8.48633 45.3321 8.34961 45.293 8.26172C45.2442 8.17383 45.2149 7.99805 45.2149 7.86133C45.2149 7.72461 45.2637 7.5293 45.3126 7.42188C45.3712 7.31445 45.5958 7.16797 45.8106 7.10938C46.0352 7.04102 46.2305 6.93359 46.2501 6.88477C46.2696 6.83594 46.2305 6.57227 46.1524 6.29883C46.0645 5.9668 45.9766 5.82031 45.8887 5.84961C45.8106 5.86914 45.5958 5.9082 45.4102 5.9375C45.1954 5.9668 44.9805 5.9375 44.8243 5.83984C44.6876 5.76172 44.5411 5.56641 44.502 5.41016C44.4532 5.22461 44.4727 5.0293 44.5508 4.85352C44.6387 4.66797 44.8145 4.53125 45.1172 4.42383C45.3614 4.33594 45.5665 4.25781 45.5762 4.25781C45.586 4.24805 45.5567 4.07227 45.4981 3.85742C45.4493 3.64258 45.3516 3.36914 45.2833 3.25195C45.2149 3.125 45.0684 2.98828 44.9512 2.92969C44.8243 2.88086 44.6485 2.83203 44.5606 2.8418C44.463 2.8418 44.17 2.91016 43.8965 2.97852C43.6231 3.05664 43.3106 3.22266 43.1934 3.36914ZM19.4825 25.791C20.3907 25.7812 21.0059 25.8398 21.6309 25.9766C22.1192 26.0742 24.4727 26.7969 31.2501 29.0039L33.4278 27.8223C34.6192 27.1777 35.8204 26.5723 36.084 26.4941C36.4258 26.3867 36.8067 26.3477 37.3536 26.3867C37.9493 26.416 38.2618 26.4941 38.6719 26.6992C38.9649 26.8457 39.3751 27.1289 39.5899 27.3242C39.795 27.5195 40.0782 27.8613 40.4786 28.4766L41.8946 27.7148C42.7442 27.2559 43.5255 26.9141 43.8477 26.8457C44.1505 26.7871 44.6485 26.7578 44.9708 26.7969C45.293 26.8262 45.8204 26.9824 46.1426 27.1387C46.4649 27.2852 46.9239 27.6074 47.1583 27.8418C47.3926 28.0762 47.7247 28.5547 47.8907 28.9062C48.1641 29.4824 48.1934 29.6289 48.1934 30.4688C48.1837 31.2891 48.1544 31.4648 47.9005 31.9824C47.7442 32.3145 47.4024 32.7734 47.129 33.0469C46.7286 33.4277 44.9415 34.4434 37.7442 38.3691C32.2071 41.3867 28.5938 43.291 28.1739 43.4277C27.793 43.5547 27.1192 43.7012 26.6602 43.7695C26.0255 43.8574 25.6251 43.8574 24.9512 43.7695C24.3653 43.6979 23.2585 43.4017 21.6309 42.8809C20.2637 42.4414 18.8477 42.0508 18.4083 41.9824C17.7735 41.8945 17.461 41.9043 16.7481 42.0312C16.1719 42.1289 15.6055 42.3145 15.1075 42.5488C14.6876 42.7539 14.3555 42.9395 14.3555 42.9688C14.3555 42.998 14.5606 43.3594 14.795 43.7793C15.1368 44.3652 15.2344 44.6289 15.2344 44.9707C15.2344 45.2148 15.1954 45.5078 15.1465 45.6348C15.0977 45.752 14.9512 45.957 14.8145 46.0938C14.6778 46.2305 13.9161 46.709 13.1153 47.168C12.3243 47.6172 11.3965 48.1543 11.0645 48.3594C10.5958 48.6426 10.3419 48.7305 10.0098 48.7305C9.71686 48.7305 9.44993 48.6523 9.20905 48.4961C8.88678 48.3008 8.29108 47.3145 4.50201 40.7129C2.10943 36.5527 0.117247 32.998 0.0586536 32.8125C-0.00970581 32.5781 5.98198e-05 32.3535 0.0781848 32.0801C0.136779 31.8652 0.31256 31.5723 0.459044 31.4355C0.605529 31.2891 1.67975 30.6348 2.83209 29.9707C4.88287 28.8086 4.94147 28.7793 5.41998 28.8184C5.69342 28.8477 6.01569 28.9453 6.1524 29.0234C6.28912 29.1113 6.62115 29.5605 6.88483 30.0195C7.15826 30.4785 7.4024 30.8594 7.45123 30.8594C7.49029 30.8594 9.0235 30.0391 10.8692 29.043C12.7051 28.0371 14.5411 27.0508 14.9415 26.8457C15.3419 26.6504 15.9571 26.3867 16.3087 26.2695C16.6602 26.1523 17.2266 25.9961 17.5782 25.9277C17.9297 25.8594 18.7891 25.8008 19.4825 25.791ZM16.0157 28.0566C15.7227 28.1934 13.8575 29.1895 11.8653 30.2734C9.88287 31.3574 8.24225 32.2559 8.23248 32.2559C8.21295 32.2656 9.37506 34.3164 10.8106 36.8164C12.2364 39.3164 13.4376 41.3965 13.4864 41.4551C13.545 41.5137 13.877 41.4062 14.4239 41.1523C14.9024 40.9277 15.5958 40.6641 15.9669 40.5664C16.4258 40.459 17.0118 40.4004 17.7247 40.4004C18.4376 40.4004 19.0137 40.459 19.4337 40.5664C19.7852 40.6641 21.0157 41.0449 22.168 41.416C23.3204 41.7871 24.6192 42.1387 25.0489 42.207C25.6446 42.2949 25.9962 42.2949 26.5137 42.207C26.8946 42.1484 27.4415 42.0215 27.7344 41.9238C28.0274 41.8262 32.2071 39.5996 37.0118 36.9824C41.8165 34.3555 45.879 32.0898 46.0352 31.9531C46.1915 31.8066 46.3965 31.5137 46.4942 31.2988C46.5919 31.084 46.6797 30.7324 46.6797 30.5176C46.6797 30.3027 46.6309 29.9609 46.5821 29.7656C46.5235 29.5508 46.3087 29.2188 46.0743 28.9746C45.8301 28.7402 45.4883 28.5059 45.2637 28.4375C45.0489 28.3789 44.7169 28.3301 44.5313 28.3301C44.3458 28.3301 44.0528 28.3887 43.8868 28.4473C43.7208 28.5156 41.7383 29.5801 39.4727 30.8105C35.4005 33.0273 35.3516 33.0566 35.293 33.3984C35.2637 33.584 35.1661 33.9648 35.0782 34.2285C34.9903 34.502 34.7559 34.9414 34.5411 35.2051C34.336 35.4785 33.9649 35.8398 33.711 36.0156C33.4571 36.1914 33.0079 36.4062 32.7149 36.4941C32.3536 36.5918 31.9337 36.6309 31.4454 36.6016C30.8399 36.5723 29.9903 36.3281 26.3672 35.1562C23.584 34.2676 21.9434 33.6816 21.7969 33.5547C21.6407 33.4082 21.5821 33.2422 21.5821 32.9883C21.5821 32.6953 21.6407 32.5684 21.8555 32.4219C22.002 32.3047 22.1876 32.2266 22.2657 32.2266C22.3438 32.2266 24.1309 32.7832 26.2208 33.457C28.3204 34.1309 30.3126 34.7754 30.6641 34.8828C31.0938 35.0195 31.4747 35.0684 31.8555 35.0488C32.2657 35.0195 32.5098 34.9414 32.8321 34.7168C33.0567 34.5508 33.3594 34.2188 33.4864 33.9844C33.6622 33.6719 33.7305 33.3887 33.7305 33.0078C33.7305 32.6562 33.6622 32.334 33.5255 32.0801C33.418 31.8652 33.1739 31.5625 32.9981 31.4062C32.8126 31.25 32.5587 31.084 32.4219 31.0352C32.2852 30.9863 29.8731 30.1953 27.0508 29.2871C24.2286 28.3691 21.6309 27.5586 21.2696 27.4805C20.8985 27.4023 20.0977 27.3438 19.463 27.3438C18.5743 27.3535 18.1055 27.4023 17.4317 27.5879C16.9532 27.7148 16.3087 27.9199 16.0157 28.0566ZM34.4532 29.0527C33.877 29.3652 33.4083 29.6484 33.3985 29.6777C33.3985 29.707 33.5938 29.8828 33.838 30.0586C34.0821 30.2246 34.3946 30.5469 34.5508 30.752C34.6973 30.957 34.8633 31.2109 34.9122 31.2988C35.0001 31.4551 35.2247 31.3477 37.0411 30.3613C38.1544 29.7461 39.0723 29.2285 39.0723 29.1992C39.0723 29.1699 38.9454 28.9746 38.7891 28.7598C38.6426 28.5449 38.3204 28.2715 38.086 28.1543C37.7833 28.0078 37.4708 27.9297 37.0997 27.9297C36.6895 27.9297 36.4161 27.998 36.0255 28.2031C35.7325 28.3594 35.0294 28.7402 34.4532 29.0527ZM1.67975 32.5195C1.66998 32.5781 3.46686 35.7715 5.67389 39.6289C7.88092 43.4766 9.76569 46.748 9.85358 46.8945L10.0098 47.1582C12.8126 45.5371 13.6231 45.0195 13.6231 44.9609C13.6231 44.9121 11.7676 41.6016 9.50201 37.6172C7.23639 33.6328 5.35162 30.3711 5.30279 30.3711C5.26373 30.3809 4.43365 30.8398 3.46686 31.4062C2.50006 31.9629 1.69928 32.4707 1.68951 32.5195H1.67975ZM31.9239 5.08789C32.3243 5.08789 33.0762 5.14648 33.584 5.22461C34.0919 5.29297 34.8633 5.47852 35.293 5.61523C35.7227 5.76172 36.4454 6.06445 36.9044 6.29883C37.3633 6.5332 38.0176 6.94336 38.3692 7.20703C38.7208 7.4707 39.3067 7.98828 39.668 8.35938C40.0391 8.73047 40.5567 9.36523 40.8399 9.76562C41.1133 10.166 41.504 10.8496 41.6993 11.2793C41.9044 11.709 42.1778 12.4316 42.3145 12.8906C42.4415 13.3496 42.5977 14.1797 42.6661 14.7461C42.7442 15.498 42.7442 16.0547 42.6661 16.8457C42.5977 17.4414 42.4415 18.291 42.3145 18.75C42.1778 19.209 41.9044 19.9316 41.6993 20.3613C41.504 20.791 41.1133 21.4746 40.8399 21.875C40.5665 22.2754 39.9903 22.9492 39.5704 23.3691C39.1505 23.7891 38.4766 24.3652 38.0762 24.6387C37.6758 24.9121 36.9532 25.3223 36.4649 25.5469C35.9864 25.7812 35.2344 26.0547 34.8047 26.1621C34.3751 26.2793 33.6329 26.416 33.1446 26.4746C32.627 26.543 31.8555 26.5527 31.2891 26.5137C30.752 26.4844 29.9219 26.3477 29.4337 26.2207C28.9551 26.1035 28.2227 25.8691 27.8223 25.6934C27.4219 25.5273 26.6993 25.1367 26.211 24.8242C25.7325 24.5117 25.0294 23.9746 24.6583 23.623C24.2872 23.2812 23.7208 22.6465 23.4083 22.2168C23.086 21.7871 22.6075 20.9961 22.3438 20.459C22.0801 19.9219 21.7481 19.043 21.6016 18.5059C21.3672 17.6172 21.338 17.3633 21.338 15.8203C21.338 14.2969 21.3673 14.0137 21.5919 13.1836C21.7286 12.6758 22.0215 11.8652 22.2462 11.377C22.4708 10.8984 22.8516 10.2148 23.086 9.86328C23.3106 9.51172 23.8087 8.90625 24.17 8.50586C24.5411 8.11523 25.1954 7.51953 25.6251 7.19727C26.0547 6.88477 26.8067 6.42578 27.2852 6.19141C27.7735 5.95703 28.5645 5.6543 29.043 5.51758C29.5313 5.38086 30.2051 5.23437 30.5567 5.18555C30.9083 5.13672 31.5235 5.09766 31.9239 5.08789ZM29.5801 6.98242C29.2286 7.07031 28.5938 7.30469 28.1641 7.50977C27.7344 7.70508 27.168 8.01758 26.8946 8.20312C26.6309 8.37891 26.084 8.83789 25.6837 9.21875C25.293 9.59961 24.7755 10.1758 24.5508 10.498C24.3165 10.8203 23.9454 11.4551 23.7305 11.9141C23.5157 12.373 23.2325 13.0957 23.1153 13.5254C22.9395 14.1699 22.9005 14.5703 22.9005 15.8203C22.9005 17.0703 22.9395 17.4707 23.1153 18.1152C23.2325 18.5449 23.5157 19.2676 23.7305 19.7266C23.9454 20.1855 24.3165 20.8203 24.5508 21.1426C24.7755 21.4648 25.293 22.041 25.6837 22.4219C26.084 22.8027 26.67 23.2812 26.9922 23.4863C27.3145 23.6914 27.8907 24.0039 28.2618 24.1797C28.6426 24.3555 29.3165 24.5898 29.7755 24.6973C30.2344 24.8047 30.9766 24.9316 31.4356 24.9609C31.9239 25 32.627 24.9707 33.1446 24.9023C33.6329 24.8438 34.3067 24.6973 34.6583 24.5898C35.0098 24.4824 35.6641 24.209 36.1133 23.9941C36.5626 23.7695 37.2755 23.3105 37.6954 22.9785C38.1251 22.6367 38.7305 22.041 39.0528 21.6602C39.4044 21.2305 39.8536 20.5176 40.1661 19.873C40.459 19.2773 40.7618 18.5352 40.8497 18.2129C40.9278 17.8906 41.045 17.207 41.1036 16.6992C41.1915 16.0156 41.1915 15.5371 41.1036 14.8926C41.045 14.4141 40.9278 13.75 40.8497 13.4277C40.7715 13.1055 40.4688 12.3633 40.1758 11.7676C39.8633 11.1328 39.3946 10.4004 39.0528 9.99023C38.7305 9.59961 38.1251 9.00391 37.6954 8.67188C37.2755 8.33008 36.5626 7.87109 36.1133 7.64648C35.6641 7.43164 35.0098 7.1582 34.6583 7.05078C34.3067 6.94336 33.6817 6.80664 33.2715 6.74805C32.8516 6.68945 32.2364 6.65039 31.9044 6.65039C31.5626 6.66016 31.045 6.69922 30.752 6.73828C30.459 6.78711 29.9317 6.89453 29.5801 6.98242ZM32.5587 7.98828C32.8809 8.00781 33.4278 8.08594 33.7794 8.16406C34.1309 8.24219 34.6973 8.42773 35.0489 8.57422C35.4005 8.7207 35.9473 9.02344 36.2696 9.22852C36.5821 9.44336 37.0899 9.84375 37.3829 10.1074C37.6661 10.3809 38.0958 10.8594 38.3204 11.1816C38.5547 11.5039 38.8673 12.0312 39.0333 12.3535C39.1895 12.6758 39.4239 13.2715 39.5508 13.6719C39.7559 14.2969 39.7852 14.6094 39.7852 15.8203C39.7852 17.0312 39.7559 17.3438 39.5508 17.9688C39.4239 18.3691 39.1895 18.9648 39.0333 19.2871C38.8673 19.6094 38.5547 20.1367 38.3204 20.459C38.0958 20.7812 37.6661 21.2695 37.3829 21.5332C37.0899 21.8066 36.6114 22.1777 36.3184 22.373C36.0255 22.5781 35.5176 22.8516 35.1954 22.998C34.8731 23.1348 34.2579 23.3398 33.8282 23.4473C33.3008 23.5742 32.6954 23.6328 31.9727 23.6328C31.2208 23.6328 30.6641 23.5742 30.1172 23.4375C29.6876 23.3301 28.9454 23.0469 28.4571 22.8027C27.9786 22.5586 27.334 22.1582 27.0313 21.8945C26.7383 21.6406 26.2598 21.1719 25.9864 20.8496C25.7032 20.5273 25.2833 19.8926 25.0391 19.4336C24.8047 18.9746 24.5118 18.252 24.3946 17.8223C24.2286 17.2168 24.1798 16.7676 24.1798 15.8203C24.1798 14.9121 24.2383 14.4141 24.3751 13.8672C24.4923 13.4668 24.7462 12.793 24.9512 12.3633C25.1661 11.9434 25.5762 11.2988 25.8692 10.9277C26.1622 10.5566 26.7188 10 27.0899 9.70703C27.4708 9.4043 28.0567 9.01367 28.4083 8.83789C28.7598 8.66211 29.3751 8.41797 29.7755 8.30078C30.1758 8.17383 30.8399 8.04688 31.2403 8.01758C31.6407 7.98828 32.2364 7.96875 32.5587 7.98828ZM29.043 10.2832C28.6719 10.4785 28.1055 10.8691 27.7833 11.1523C27.4708 11.4355 27.002 11.9824 26.7579 12.3535C26.504 12.7344 26.1719 13.4082 26.0255 13.8672C25.7813 14.5898 25.7422 14.8438 25.7422 15.8203C25.7422 16.8164 25.7715 17.041 26.0255 17.7734C26.1817 18.2324 26.5333 18.9258 26.7969 19.3262C27.0704 19.7266 27.5294 20.2637 27.8223 20.5273C28.1153 20.791 28.6915 21.1719 29.0919 21.3867C29.4922 21.5918 30.1075 21.8359 30.459 21.9141C30.8106 22.002 31.5137 22.0703 32.0215 22.0703C32.5294 22.0703 33.213 22.002 33.5352 21.9238C33.8575 21.8457 34.4532 21.6113 34.8536 21.416C35.4005 21.1426 35.7911 20.8398 36.4161 20.2148C37.0313 19.6094 37.3438 19.209 37.588 18.7012C37.7637 18.3301 37.9981 17.7051 38.0958 17.334C38.2032 16.9238 38.2715 16.3184 38.2715 15.8203C38.2715 15.3613 38.2032 14.707 38.1153 14.3555C38.0372 14.0039 37.8126 13.3887 37.6075 12.9883C37.3438 12.4316 37.0508 12.0508 36.4161 11.416C35.7813 10.7812 35.4102 10.498 34.8536 10.2246C34.4532 10.0293 33.8575 9.79492 33.5352 9.7168C33.1837 9.62891 32.5391 9.57031 31.9239 9.58008C31.2598 9.58008 30.6934 9.64844 30.3126 9.75586C29.9903 9.84375 29.4239 10.0879 29.043 10.2832ZM31.9434 9.86328C32.0899 9.86328 32.2852 9.89258 32.3731 9.94141C32.461 9.98047 32.5977 10.127 32.6661 10.2832C32.7442 10.4297 32.8028 10.7715 32.8028 11.0352C32.8028 11.4355 32.8321 11.5234 32.9786 11.5234C33.0665 11.5234 33.3692 11.6504 33.6329 11.8066C33.9063 11.9531 34.2188 12.207 34.3458 12.3633C34.463 12.5195 34.5704 12.7832 34.5704 12.9395C34.5704 13.1055 34.4825 13.3398 34.3751 13.4766C34.2383 13.6523 34.0919 13.7207 33.838 13.7207C33.584 13.7207 33.4083 13.6426 33.1446 13.3789C32.8419 13.0957 32.7051 13.0371 32.2852 13.0078C31.9044 12.9883 31.6993 13.0273 31.4649 13.1738C31.2891 13.291 31.1036 13.4863 31.045 13.623C30.9962 13.7598 30.9473 13.9746 30.9473 14.1113C30.9473 14.248 31.0645 14.4922 31.2208 14.6582C31.4454 14.9219 31.5821 14.9805 32.1485 15.0488C32.5098 15.0977 32.9688 15.2246 33.1739 15.3223C33.3692 15.4297 33.7012 15.6836 33.8965 15.8887C34.0919 16.0938 34.3262 16.4258 34.4141 16.6309C34.4922 16.8262 34.5606 17.2656 34.5606 17.6074C34.5606 18.0371 34.4922 18.3594 34.336 18.7012C34.209 18.9746 33.9161 19.3555 33.6719 19.5605C33.4376 19.7656 33.1446 19.9512 33.0274 19.9707C32.8223 20.0195 32.8028 20.0781 32.8028 20.5566C32.8028 20.8496 32.7442 21.2109 32.6661 21.3672C32.5977 21.5137 32.461 21.6602 32.3731 21.709C32.2852 21.748 32.0997 21.7773 31.9532 21.7773C31.7969 21.7773 31.5919 21.6895 31.4649 21.5625C31.3087 21.3965 31.2403 21.1914 31.1915 20.1855L30.752 20.0293C30.4981 19.9512 30.1173 19.6875 29.8536 19.4434C29.5215 19.1211 29.3848 18.916 29.3848 18.7305C29.3848 18.5547 29.4922 18.3496 29.668 18.1641C29.8243 17.998 30.0294 17.8711 30.1075 17.8711C30.1954 17.8711 30.3516 17.9102 30.459 17.9688C30.5665 18.0273 30.7618 18.1738 30.8985 18.3105C31.0352 18.4473 31.3087 18.584 31.5137 18.6133C31.709 18.6426 32.0118 18.6523 32.168 18.623C32.334 18.584 32.588 18.4375 32.7344 18.291C32.9395 18.0859 33.0079 17.9297 32.9981 17.6562C32.9981 17.4512 32.959 17.1973 32.9005 17.0898C32.8516 16.9824 32.6758 16.8262 32.5098 16.748C32.3536 16.6699 32.0704 16.6016 31.9044 16.6016C31.7286 16.6016 31.3672 16.5332 31.0938 16.4355C30.7813 16.3281 30.4395 16.1035 30.1563 15.8301C29.8829 15.5469 29.6583 15.2051 29.5508 14.8926C29.4532 14.6289 29.3848 14.248 29.3848 14.0625C29.3848 13.877 29.4337 13.5449 29.4922 13.3301C29.5508 13.1152 29.7266 12.7539 29.8829 12.5293C30.0587 12.2656 30.3712 12.002 31.2403 11.5234L31.2208 10.918C31.2012 10.4004 31.2305 10.2832 31.4356 10.0879C31.5626 9.96094 31.7872 9.86328 31.9434 9.86328Z" fill="#4BA9EF"/>
</svg>
