<svg width="50" height="50" viewBox="0 0 50 50" fill="none" xmlns="http://www.w3.org/2000/svg">
<g clip-path="url(#clip0_153_595)">
<path fill-rule="evenodd" clip-rule="evenodd" d="M15.9961 0.00976419C16.6895 -1.43237e-06 17.0215 0.0488267 17.4512 0.214842C17.7637 0.322264 18.1836 0.527342 18.3789 0.654295C18.584 0.771483 18.9258 1.04492 19.1504 1.24023C19.3652 1.44531 19.6875 1.82617 19.8535 2.09961C20.0195 2.36328 20.2344 2.8418 20.332 3.14453C20.4297 3.45703 20.5078 3.84766 20.5078 4.29687L22.0606 4.3164C23.4766 4.3457 23.6426 4.36523 23.8965 4.55078C24.043 4.66797 24.2578 4.88281 24.3652 5.01953C24.5313 5.25391 24.5606 5.45898 24.6094 7.8125L27.8223 7.83203C30.8691 7.86133 31.0547 7.87109 31.3086 8.05664C31.4453 8.16406 31.6602 8.37891 31.7773 8.52539C31.9824 8.79883 31.9824 8.86719 32.0313 19.8242L32.5391 19.873C32.8223 19.9023 33.3008 19.9902 33.5938 20.0684C33.916 20.1562 34.1992 20.3027 34.3066 20.4297C34.4043 20.5566 34.4824 20.7715 34.4727 20.918C34.4727 21.0742 34.3652 21.2988 34.2285 21.4355C34.1016 21.5723 33.8965 21.6797 33.7695 21.6797C33.6426 21.6699 33.2813 21.6113 32.959 21.5332C32.6367 21.4551 31.9336 21.3867 31.3965 21.3867C30.8594 21.3867 30.1367 21.4453 29.7852 21.5234C29.4336 21.6016 28.8184 21.7969 28.418 21.9531C28.0176 22.1191 27.3828 22.4707 27.002 22.7344C26.6211 22.998 26.0156 23.5352 25.6543 23.9355C25.2344 24.3848 24.8242 24.9707 24.5606 25.4883C24.3262 25.9473 24.0332 26.6699 23.916 27.0996C23.7305 27.7344 23.6914 28.1152 23.6914 29.1016C23.6914 30.0586 23.7402 30.4883 23.9063 31.0742C24.0234 31.4941 24.2578 32.1094 24.4238 32.4414C24.5899 32.7832 24.9219 33.3203 25.1465 33.6426C25.3711 33.9648 25.8008 34.4531 26.084 34.7266C26.377 35 26.875 35.3906 27.1973 35.5957C27.5195 35.8008 28.0273 36.0742 28.3203 36.2109C28.6133 36.3379 29.209 36.5234 29.6387 36.6309C30.0684 36.7285 30.6543 36.8164 30.9277 36.8164C31.3672 36.8164 31.4844 36.8555 32.0313 37.4023V43.0664C32.0313 47.5488 32.002 48.7988 31.9043 49.043C31.8262 49.2188 31.6016 49.5117 31.0059 50H1.0254L0.605478 49.6582C0.341806 49.4336 0.156259 49.1895 0.0976656 48.9453C0.0195407 48.7012 9.40636e-06 42.2949 0.0488375 8.79883L0.253916 8.52539C0.371103 8.37891 0.585947 8.16406 0.722666 8.05664C0.976572 7.87109 1.16212 7.86133 7.42188 7.8125L7.44141 6.55273C7.47071 5.43945 7.50001 5.2539 7.67579 5.00976C7.79298 4.86328 8.00782 4.64844 8.14454 4.54101C8.37892 4.375 8.61329 4.33594 11.4746 4.24805L11.543 3.80859C11.5723 3.56445 11.6797 3.17383 11.7676 2.92969C11.8555 2.68555 12.0508 2.29492 12.207 2.05078C12.3535 1.80664 12.6856 1.42578 12.9297 1.20117C13.1738 0.966796 13.584 0.664061 13.8477 0.527342C14.1016 0.380858 14.4824 0.214842 14.6973 0.136717C14.9121 0.0683579 15.4981 0.00976419 15.9863 0.00976419H15.9961ZM14.4629 2.11914C14.2774 2.22656 13.9746 2.49023 13.7891 2.69531C13.6035 2.91015 13.3594 3.27148 13.252 3.51562C13.0859 3.88672 13.0566 4.20898 13.0274 5.49805L12.9981 7.03125H19.0527C18.9942 4.49219 18.9356 3.92578 18.8281 3.61328C18.7402 3.36914 18.4766 2.95898 18.252 2.70508C18.0176 2.4414 17.6074 2.11914 17.3438 1.99219C17.0313 1.83594 16.6211 1.72851 16.2207 1.70898C15.8496 1.67969 15.4297 1.70898 15.1953 1.78711C14.9805 1.85547 14.6484 2.00195 14.4629 2.11914ZM8.99415 11.3281H23.0566V5.85937H20.6152C20.6152 7.98828 20.6055 8.01758 20.332 8.30078L20.0488 8.59375H12.0215C11.4356 8.00781 11.4356 7.99804 11.4356 6.93359V5.85937H8.99415V11.3281ZM1.57227 48.4375H30.4785C30.4785 39.0234 30.459 38.3691 30.332 38.3301C30.2539 38.3008 30.0879 38.2812 29.9609 38.2812C29.8438 38.2812 29.3457 38.1738 28.8672 38.0371C28.3887 37.9004 27.6563 37.6172 27.2559 37.4219C26.8555 37.2266 26.1914 36.8164 25.791 36.5137C25.3906 36.2109 24.8438 35.7324 24.5801 35.4394C24.3164 35.1465 23.9258 34.6484 23.7109 34.3262C23.4863 34.0039 23.1445 33.3887 22.9492 32.959C22.7441 32.5293 22.4805 31.7871 22.3535 31.2988C22.1875 30.6055 22.1387 30.1465 22.1387 29.1016C22.1387 28.0664 22.1875 27.5977 22.3535 26.9043C22.4805 26.4258 22.7832 25.5859 23.0469 25.0488C23.3106 24.5117 23.7793 23.7402 24.1016 23.3398C24.4238 22.9395 24.8926 22.4121 25.166 22.1875C25.4297 21.9531 25.9473 21.5527 26.3281 21.3086C26.709 21.0547 27.3438 20.7227 27.7441 20.5469C28.1445 20.3809 28.7598 20.1758 29.1113 20.0879C29.4629 20.0098 29.9121 19.9121 30.1074 19.8828L30.4785 19.8242V9.375H24.6191C24.5703 11.748 24.541 11.9336 24.3652 12.1777C24.2481 12.3242 24.0332 12.5391 23.8965 12.6465C23.6328 12.8418 23.4766 12.8418 16.0254 12.8418C8.42774 12.8418 8.41798 12.8418 8.14454 12.6367C7.99806 12.5195 7.78321 12.3047 7.67579 12.168C7.50977 11.9336 7.48048 11.7285 7.45118 10.6348L7.43165 9.375H1.57227V48.4375ZM45.2734 4.6875C45.5957 4.6875 46.1035 4.75586 46.3965 4.84375C46.6895 4.93164 47.1289 5.11719 47.3731 5.27344C47.6172 5.41992 47.9883 5.74219 48.1934 5.97656C48.4082 6.20117 48.7207 6.67969 49.1797 7.66601L49.2285 37.7441L49.5801 39.502C49.7754 40.4688 49.9609 41.5039 49.9805 41.7969C50 42.0898 49.9707 42.3828 49.9219 42.4316C49.8633 42.4902 48.9844 44.1113 47.959 46.0449C46.9336 47.9785 45.9961 49.6582 45.8789 49.7852C45.7357 49.9349 45.5501 50.0098 45.3223 50.0098C45.0944 50.0098 44.9089 49.9349 44.7656 49.7852C44.6582 49.6582 43.6719 47.9004 42.5977 45.8789C41.5137 43.8477 40.6348 42.1191 40.6348 42.041C40.6348 41.9629 40.8203 40.8984 41.4648 37.4512L41.416 8.98437H40.752C40.3516 8.98437 40.0391 9.0332 39.9707 9.11133C39.8828 9.19922 39.8535 10.2832 39.8535 17.8711L39.6094 18.1152C39.4629 18.2715 39.2676 18.3594 39.0723 18.3594C38.8867 18.3594 38.6914 18.2715 38.291 17.8711L38.3399 8.74023L38.584 8.35937C38.7207 8.14453 39.0039 7.86133 39.209 7.72461C39.5508 7.5 39.7168 7.4707 41.5625 7.41211L41.7773 6.95312C41.8945 6.69922 42.1582 6.29883 42.3633 6.06445C42.5684 5.83008 42.9297 5.49805 43.1738 5.33203C43.418 5.17578 43.8574 4.96094 44.1504 4.87305C44.4434 4.77539 44.9512 4.69726 45.2734 4.6875ZM43.7109 6.98242C43.4082 7.27539 43.1738 7.62695 43.0957 7.86133C43.0371 8.07617 42.9785 8.76953 42.9785 9.4043V10.5469H47.666C47.666 8.76953 47.6074 8.07617 47.5488 7.86133C47.4707 7.62695 47.2363 7.27539 46.9336 6.98242C46.6406 6.67969 46.2891 6.44531 46.0547 6.36719C45.8398 6.30859 45.4883 6.25976 45.2734 6.25976C45.0586 6.26953 44.7266 6.31836 44.541 6.37695C44.3555 6.43555 43.9746 6.70898 43.7109 6.98242ZM42.9785 18.75H47.666V12.1094H42.9785V18.75ZM42.9785 35.9375H47.666V20.3125H46.1035V33.8867C45.7129 34.2871 45.5176 34.375 45.3223 34.375C45.1367 34.375 44.9414 34.2871 44.7852 34.1309L44.541 33.8867V20.3125H42.9785V35.9375ZM43.0273 37.7246C42.9981 37.8418 42.8223 38.75 42.6367 39.7461C42.4512 40.7422 42.2949 41.6406 42.2949 41.748C42.2949 41.8555 42.7539 42.8223 43.3301 43.8965C43.8965 44.9707 44.4043 45.8984 44.4531 45.9473C44.5117 46.0059 44.541 45.4199 44.541 44.3848C44.541 42.8027 44.5313 42.7148 44.3164 42.5C44.1504 42.3242 44.1016 42.1484 44.1016 41.7969C44.1016 41.3965 44.1504 41.2695 44.3945 41.0156C44.5508 40.8496 44.8438 40.6738 45.0293 40.625C45.2246 40.5762 45.4981 40.5762 45.6641 40.625C45.8203 40.6738 46.0742 40.8398 46.2207 40.9863C46.377 41.1328 46.5234 41.416 46.5527 41.6016C46.5918 41.8262 46.5625 42.0703 46.4551 42.3144C46.3672 42.5098 46.25 42.6758 46.2012 42.6758C46.1426 42.6758 46.1035 43.3008 46.1035 44.3652C46.1035 45.4199 46.1328 46.0059 46.1914 45.9473C46.2402 45.8984 46.7676 44.9512 47.3438 43.8477L48.4082 41.8457C47.832 38.8184 47.6465 37.8418 47.6172 37.7246L47.5684 37.5H43.0762L43.0273 37.7246ZM37.002 21.7773C37.1387 21.8066 37.5391 22.1191 37.9004 22.4707C38.252 22.8223 38.6816 23.3203 38.8574 23.5937C39.0332 23.8574 39.1797 24.1797 39.1699 24.2969C39.1699 24.4141 39.0625 24.6289 38.9356 24.7656C38.7695 24.9219 38.584 25 38.3691 25C38.1152 25 37.9785 24.9121 37.7051 24.5898C37.5195 24.3555 37.0703 23.877 36.709 23.5156C36.1816 22.998 36.0449 22.793 36.0449 22.5684C36.0449 22.4023 36.084 22.1973 36.1231 22.1094C36.1621 22.0117 36.3184 21.8945 36.4648 21.8262C36.6211 21.7676 36.8555 21.7383 37.002 21.7773ZM29.3066 24.6094C29.3359 24.6094 30.0879 25.4492 30.9766 26.4941C31.8652 27.5293 32.6465 28.4766 32.7148 28.5937C32.7734 28.7109 32.8223 28.9551 32.8223 29.1309C32.8223 29.3066 32.7246 29.6191 32.5977 29.8242C32.4707 30.0391 32.2266 30.2734 31.9922 30.3906C31.709 30.5273 31.5137 30.5664 31.2598 30.5176C31.0742 30.4785 30.8008 30.3906 30.6543 30.3125C30.5078 30.2441 30.3027 30.0586 30.2148 29.9121C30.0977 29.7363 29.9121 28.7988 29.6484 27.1289C29.4336 25.7519 29.2773 24.6094 29.3066 24.6094ZM39.7363 26.6602C39.9609 26.6602 40.166 26.7285 40.2734 26.8359C40.3613 26.9238 40.4785 27.1875 40.5273 27.4023C40.5859 27.6172 40.6445 28.125 40.6738 28.5449C40.7324 29.2871 40.7324 29.3066 40.4492 29.5996C40.2734 29.7754 40.0586 29.8926 39.9121 29.8926C39.7754 29.8926 39.5606 29.7852 39.4336 29.668C39.2578 29.5019 39.1895 29.2969 39.1406 28.7695C39.1016 28.3887 39.043 27.8809 39.0137 27.6465C38.9648 27.2852 38.9941 27.1484 39.1699 26.9336C39.3262 26.7285 39.4629 26.6602 39.7363 26.6602ZM5.3711 15.2441H26.6699L26.9141 15.4883C27.0703 15.6348 27.1582 15.8398 27.1582 16.0254C27.1582 16.2012 27.0703 16.4062 26.6797 16.8066H5.38087L5.13673 16.5625C4.98048 16.3965 4.89259 16.2109 4.90235 16.0156C4.90235 15.8398 5.00001 15.625 5.13673 15.4785L5.3711 15.2441ZM16.0547 19.1504C23.0664 19.1504 26.6699 19.1797 26.6699 19.248C26.6699 19.3066 26.4844 19.4434 26.2598 19.5508C26.0254 19.668 25.5371 19.9805 24.4727 20.7129H14.9512C5.53712 20.7129 5.4297 20.7129 5.21485 20.5176C5.0879 20.4102 4.96095 20.2246 4.93165 20.1074C4.90235 19.9805 4.93165 19.7754 5.00001 19.6387C5.06837 19.502 5.19532 19.3457 5.27345 19.2773C5.4004 19.1797 7.86134 19.1602 16.0547 19.1504ZM5.3711 23.0566H22.3731L22.1875 23.3301C22.0899 23.4766 21.8945 23.8281 21.4941 24.6191H5.38087L5.13673 24.375C4.98048 24.2187 4.89259 24.0234 4.90235 23.8379C4.90235 23.6523 5.00001 23.4375 5.13673 23.3008L5.3711 23.0566ZM5.3711 26.9629H20.7129L20.6738 27.1777C20.6445 27.2949 20.6055 27.6465 20.5176 28.5254H5.38087L5.13673 28.2812C4.98048 28.125 4.89259 27.9297 4.90235 27.7344C4.90235 27.5586 5.00001 27.3437 5.13673 27.1973L5.3711 26.9629ZM5.3711 30.8691L20.6543 30.918L20.8203 31.6016C20.918 31.9824 20.9961 32.3242 20.9961 32.3633C21.0059 32.4023 17.4902 32.4316 5.38087 32.4316L5.13673 32.1875C4.98048 32.0312 4.89259 31.8359 4.89259 31.6504C4.90235 31.4648 5.00001 31.25 5.13673 31.1133L5.3711 30.8691ZM5.3711 34.7754H13.7695C20.4102 34.7754 22.1875 34.7949 22.207 34.8926C22.2266 34.9609 22.4707 35.3125 23.252 36.3379H5.38087L5.13673 36.0938C4.98048 35.9375 4.89259 35.7422 4.89259 35.5469C4.90235 35.3711 4.99024 35.1562 5.13673 35.0098L5.3711 34.7754ZM5.3711 38.6816H26.6699L26.9141 38.9258C27.0606 39.082 27.1582 39.2871 27.1582 39.4629C27.1582 39.6484 27.0606 39.8535 26.6797 40.2441H5.38087L5.13673 40C4.98048 39.8438 4.89259 39.6484 4.89259 39.4629C4.89259 39.2871 4.99024 39.0723 5.13673 38.9258L5.3711 38.6816Z" fill="#4BA9EF"/>
</g>
<defs>
<clipPath id="clip0_153_595">
<rect width="50" height="50" fill="white"/>
</clipPath>
</defs>
</svg>
