<svg width="50" height="50" viewBox="0 0 50 50" fill="none" xmlns="http://www.w3.org/2000/svg">
<path fill-rule="evenodd" clip-rule="evenodd" d="M1.25977 1.5625H30.0293L36.7188 8.25195V14.502L38.5449 12.6855C39.8438 11.4062 40.5273 10.8008 40.8691 10.6348C41.2695 10.4395 41.5137 10.4004 42.1875 10.4004C42.8711 10.4004 43.1055 10.4395 43.5059 10.6348C43.7695 10.7715 44.3066 11.1816 44.6875 11.5625C45.0586 11.9434 45.4785 12.4805 45.6055 12.7441C45.8008 13.1445 45.8496 13.3887 45.8496 14.0625C45.8496 14.7461 45.8008 14.9805 45.6055 15.3809C45.4688 15.6543 45.0781 16.1719 44.0918 17.1973L45.0879 18.1934C45.9766 19.0723 46.084 19.2285 46.084 19.5312C46.0938 19.8438 45.9473 20.0195 42.5293 23.4375L44.0918 25H48.7305L49.2188 25.4883V36.2305L48.9746 36.4746C48.7402 36.7188 48.7109 36.7188 45.6543 36.7285L44.7949 37.5488C44.1992 38.1348 43.75 38.4766 42.627 39.0137L36.7188 39.0625V47.9492L36.2402 48.4375H1.26953L0.78125 47.9492L0.791016 2.04102L1.25977 1.5625ZM2.34375 46.875H35.1562V39.0625L24.9512 39.0137C24.2676 38.6523 23.9062 38.4082 23.7012 38.2422L23.3203 37.9395L22.3145 38.9746C17.8516 40.2539 16.4551 40.625 16.3281 40.625C16.2109 40.625 16.0059 40.5176 15.8691 40.3809C15.7324 40.2441 15.625 40.0488 15.625 39.9414C15.625 39.834 15.9961 38.4375 16.4551 36.8457L17.2852 33.9355C18.6426 32.5781 19.043 32.1484 19.043 32.1094C19.043 32.0605 18.9844 32.0312 18.916 32.0312C18.8477 32.0312 18.4277 31.8066 17.9688 31.5332C17.5098 31.2598 17.0117 30.918 16.8555 30.7813C16.709 30.6348 16.5039 30.3613 16.4062 30.1758C16.3086 29.9902 16.2012 29.6582 16.1621 29.4434C16.123 29.2188 16.1426 28.8672 16.2109 28.6133C16.2793 28.3691 17.4219 26.1328 18.7695 23.6328C20.1172 21.1328 21.2598 19.0332 21.3184 18.9648C21.3867 18.8965 23.6328 18.291 26.3184 17.6172L31.2012 16.3867L34.1309 17.0996L35.1562 16.0645V9.375H29.3945L28.9062 8.88672V3.125H2.34375V46.875ZM30.4688 7.8125H34.0332C31.3477 5.08789 30.5469 4.29688 30.5176 4.29688C30.4883 4.29688 30.4688 5.08789 30.4688 6.05469V7.8125ZM40.6738 12.7246L40.1855 13.2812L42.9688 16.0645C44.0723 14.9414 44.2285 14.707 44.2871 14.4043C44.3262 14.1895 44.3262 13.8574 44.2871 13.6719C44.2383 13.4473 44.0234 13.1348 43.6621 12.7539C43.3594 12.4414 42.9688 12.1191 42.793 12.0508C42.6172 11.9727 42.334 11.9141 42.1582 11.9141C41.9824 11.9238 41.6895 11.9727 41.5039 12.041C41.3086 12.1094 40.9668 12.3926 40.6738 12.7246ZM30.0293 23.4375L32.8125 26.2207L41.8457 17.1875C39.7266 15.0684 39.0918 14.4531 39.0625 14.4531C39.0332 14.4531 36.9922 16.4746 34.5215 18.9453L30.0293 23.4375ZM22.3926 20.2344C22.3828 20.2539 21.377 22.1094 20.1562 24.3652C18.9355 26.6211 17.8809 28.623 17.8027 28.8086C17.6953 29.0625 17.6855 29.209 17.7637 29.3945C17.8223 29.541 18.1836 29.834 18.623 30.1074C19.043 30.3613 19.502 30.5664 19.6484 30.5664C19.7949 30.5664 19.9902 30.5371 20.0781 30.498C20.166 30.4492 21.0059 28.8965 21.9336 27.0312C22.8711 25.1562 23.6816 23.6035 23.75 23.5645C23.8184 23.5352 25.0879 23.1543 26.5625 22.7344L29.248 21.9727L32.8613 18.3789C31.7969 18.1348 31.4258 18.0469 31.3477 18.0273C31.2695 18.0078 29.2188 18.4863 26.8066 19.1016C24.3848 19.7168 22.4023 20.2246 22.3926 20.2344ZM40.1855 21.0938L41.4062 22.3145L44.1895 19.5312C43.2812 18.623 42.9883 18.3594 42.9688 18.3594C42.9395 18.3594 42.3047 18.9746 41.5527 19.7266L40.1855 21.0938ZM34.5508 26.709C35.0391 28.7012 35.0684 29.0137 35.0391 29.9316C35.0098 30.8789 34.9707 31.084 34.707 31.6406C34.541 31.9922 34.2969 32.4316 34.1602 32.6172C34.0137 32.8027 33.7305 33.0957 33.5254 33.252L33.1543 33.5449C25.3223 33.6426 25.1953 33.6523 24.9316 33.8477C24.7754 33.9648 24.5703 34.1797 24.4629 34.3262C24.3066 34.5215 24.2578 34.7754 24.2285 35.3809C24.209 35.918 24.2383 36.2988 24.3359 36.5234C24.4141 36.709 24.6387 37.002 24.8438 37.1582L25.2246 37.4512C41.3281 37.5 42.0703 37.4902 42.4805 37.3438C42.7832 37.2266 43.2422 36.8652 43.9648 36.1621L45.0195 35.1562H47.6562V26.5625L43.4082 26.5527L41.3965 24.5605C38.7988 27.1582 38.5742 27.3438 38.3008 27.3438C38.0924 27.3438 37.9069 27.2624 37.7441 27.0996C37.5814 26.9368 37.5 26.7513 37.5 26.543C37.5 26.2598 37.6758 26.0449 38.8867 24.834L40.2832 23.4375C39.375 22.5293 39.082 22.2656 39.0625 22.2656C39.0332 22.2656 38.0078 23.2617 36.7773 24.4922L34.5508 26.709ZM24.7559 24.873C23.6523 27.0898 23.3691 27.7344 23.4082 27.7344C23.4473 27.7344 24.248 26.9629 25.1953 26.0254C26.1328 25.0781 26.8359 24.3164 26.7578 24.3262C26.6699 24.3262 26.1914 24.4531 25.6836 24.6094L24.7559 24.873ZM27.6855 25.7715L30.4688 28.5547L31.6895 27.334C29.5703 25.2148 28.9258 24.5996 28.8965 24.5996C28.877 24.5996 28.584 24.8633 28.2617 25.1855L27.6855 25.7715ZM19.0918 34.3652L21.875 37.1484L22.6465 36.3672C22.7148 34.3848 22.7344 34.2676 23.0566 33.6914C23.2422 33.3496 23.5254 32.959 23.6816 32.8223C23.8477 32.6855 24.1992 32.4707 24.4629 32.334C24.873 32.1289 25.127 32.0801 25.9766 32.041L27.002 32.002L29.3457 29.6777C27.2266 27.5586 26.5918 26.9434 26.5625 26.9434C26.543 26.9434 24.8438 28.6133 22.8027 30.6543L19.0918 34.3652ZM29.248 32.0215H32.6172C33.0762 31.4551 33.2812 31.0645 33.3594 30.8008C33.4375 30.5273 33.4961 29.9609 33.4961 29.5312C33.4863 29.1016 33.4277 28.584 33.3691 28.3789L33.252 28.0078L29.248 32.0215ZM17.9297 37.3438C17.7246 38.0371 17.5781 38.623 17.5977 38.6426C17.6074 38.6523 18.1934 38.5059 18.8965 38.3105C19.5898 38.1152 20.1953 37.9297 20.2344 37.8906C20.2734 37.8613 19.873 37.4023 19.3555 36.8652C18.8281 36.3379 18.3789 35.9473 18.3398 35.9863C18.3105 36.0352 18.125 36.6406 17.9297 37.3438ZM8.29102 6.24023H26.8555L27.0996 6.48438C27.2461 6.63086 27.3438 6.83594 27.3438 7.02148C27.3438 7.19727 27.2461 7.41211 26.8555 7.80273H8.30078L8.05664 7.55859C7.89062 7.40234 7.8125 7.20703 7.8125 7.01172C7.8125 6.83594 7.91016 6.62109 8.05664 6.47461L8.29102 6.24023ZM4.38477 10.9277H18.252L18.4961 11.1719C18.6523 11.3281 18.7402 11.5332 18.7402 11.709C18.7402 11.8945 18.6523 12.0996 18.2617 12.4902H4.38477L4.14063 12.2461C3.98438 12.0898 3.90625 11.9043 3.90625 11.709C3.90625 11.5332 4.00391 11.3184 4.14063 11.1719L4.38477 10.9277ZM20.791 10.9277H28.418L28.6621 11.1719C28.8184 11.3281 28.9062 11.5234 28.9062 11.709C28.9062 11.8848 28.8184 12.0996 28.4277 12.4902H20.8008L20.5566 12.2461C20.4004 12.0898 20.3223 11.8945 20.3223 11.709C20.3223 11.5234 20.4199 11.3086 20.5566 11.1719L20.791 10.9277ZM5.85938 15.6152C7.29492 15.6152 7.33398 15.6152 7.56836 15.8594C7.72461 16.0059 7.8125 16.2109 7.8125 16.3965C7.8125 16.5723 7.72461 16.7773 7.57812 16.9336C7.34375 17.168 7.30469 17.1777 5.86914 17.1777C4.43359 17.1777 4.39453 17.168 4.15039 16.9336C3.99414 16.7676 3.90625 16.582 3.91602 16.3867C3.91602 16.2109 4.01367 15.9961 4.15039 15.8496C4.38477 15.6152 4.42383 15.6152 5.85938 15.6152ZM9.85352 15.6152H19.043L19.2871 15.8594C19.4434 16.0059 19.5312 16.2109 19.5312 16.3965C19.5312 16.5723 19.4434 16.7773 19.0527 17.1777H9.86328L9.61914 16.9336C9.46289 16.7676 9.375 16.582 9.38477 16.3867C9.38477 16.2109 9.48242 15.9961 9.61914 15.8496L9.85352 15.6152ZM4.38477 20.3027H15.918L16.1621 20.5469C16.3184 20.7031 16.4062 20.8984 16.4062 21.084C16.4062 21.2598 16.3184 21.4746 15.9277 21.8652H4.39453L4.15039 21.6211C3.99414 21.4648 3.90625 21.2695 3.91602 21.084C3.91602 20.8984 4.01367 20.6836 4.15039 20.5469L4.38477 20.3027ZM5.46875 24.9902C6.48438 24.9902 6.55273 25 6.78711 25.2344C6.94336 25.3809 7.03125 25.5859 7.03125 25.7715C7.03125 25.9473 6.94336 26.1523 6.79688 26.3086C6.5625 26.5332 6.49414 26.5527 5.47852 26.5527C4.45312 26.5527 4.38477 26.5332 4.15039 26.3086C3.99414 26.1523 3.90625 25.957 3.91602 25.7617C3.91602 25.5859 4.01367 25.3711 4.15039 25.2246C4.375 25 4.45312 24.9902 5.46875 24.9902ZM9.07227 24.9902H13.5742L13.8184 25.2344C13.9746 25.3809 14.0625 25.5859 14.0625 25.7715C14.0625 25.9473 13.9746 26.1523 13.584 26.5527H9.08203L8.83789 26.3086C8.68164 26.1523 8.59375 25.957 8.60352 25.7617C8.60352 25.5859 8.70117 25.3711 8.83789 25.2246L9.07227 24.9902ZM4.38477 29.6777H15.1367L15.3809 29.9219C15.5371 30.0781 15.625 30.2832 15.625 30.459C15.625 30.6445 15.5371 30.8496 15.1465 31.2402H4.39453L4.15039 30.9961C3.99414 30.8398 3.90625 30.6445 3.90625 30.459C3.91602 30.2734 4.01367 30.0586 4.15039 29.9219L4.38477 29.6777ZM4.38477 34.3652H8.88672L9.13086 34.6094C9.27734 34.7559 9.375 34.9609 9.375 35.1465C9.375 35.3223 9.27734 35.5273 8.89648 35.9277H4.39453L4.15039 35.6836C3.99414 35.5273 3.90625 35.332 3.90625 35.1367C3.91602 34.9609 4.00391 34.7461 4.15039 34.5996L4.38477 34.3652ZM12.4902 34.3652C13.5156 34.3652 13.584 34.3848 13.8184 34.6094C13.9648 34.7656 14.0625 34.9707 14.0625 35.1465C14.0625 35.332 13.9648 35.5371 13.8184 35.6836C13.5938 35.918 13.5254 35.9277 12.5 35.9277C11.4844 35.9277 11.4062 35.918 11.1816 35.6836C11.0254 35.5273 10.9375 35.332 10.9375 35.1465C10.9473 34.9707 11.0352 34.7559 11.1816 34.6094C11.4062 34.3848 11.4746 34.3652 12.4902 34.3652ZM4.38477 39.0527H13.5742L13.8184 39.2969C13.9648 39.4531 14.0625 39.6582 14.0625 39.834C14.0625 40.0195 13.9648 40.2246 13.584 40.6152H4.39453L4.15039 40.3711C3.99414 40.2148 3.90625 40.0195 3.90625 39.834C3.91602 39.6582 4.00391 39.4434 4.15039 39.2969L4.38477 39.0527Z" fill="#4BA9EF"/>
</svg>
