<svg width="50" height="50" viewBox="0 0 50 50" fill="none" xmlns="http://www.w3.org/2000/svg">
<path fill-rule="evenodd" clip-rule="evenodd" d="M24.8535 0.00977443C26.2695 8.80565e-06 27.0312 0.0488369 28.0762 0.195321C28.8281 0.312509 29.9219 0.517587 30.5176 0.654306C31.1133 0.791024 32.0703 1.07423 32.666 1.27931C33.2617 1.47462 34.1602 1.82618 34.668 2.05079C35.1758 2.26563 35.9668 2.65626 36.4258 2.9004C36.8848 3.15431 37.7637 3.70118 38.3789 4.11134C38.9941 4.52149 39.9219 5.21485 40.4297 5.64454C40.9375 6.06446 41.7871 6.87501 42.3242 7.43165C42.8516 7.98829 43.5547 8.79884 43.8965 9.22852C44.2285 9.65821 44.7168 10.3418 44.9902 10.7422C45.2539 11.1426 45.7031 11.8848 45.9766 12.3828C46.2598 12.8711 46.6895 13.7305 46.9336 14.2774C47.1777 14.834 47.5293 15.7227 47.7148 16.2598C47.8906 16.7969 48.1445 17.6758 48.2812 18.2129C48.418 18.75 48.6328 19.8047 48.75 20.5566C48.916 21.6504 48.9551 22.3438 48.9551 24.0234C48.9551 25.4688 48.9063 26.4551 48.7891 27.1973C48.7012 27.793 48.5156 28.7793 48.3789 29.3945C48.2324 30.0098 47.9297 31.0938 47.6855 31.7871C47.4512 32.4805 46.9336 33.7207 46.543 34.5215C46.1523 35.332 45.459 36.5332 45.0098 37.207C44.5605 37.8809 43.8672 38.8281 43.4668 39.3066C43.0566 39.7852 42.3145 40.5957 41.7969 41.1035C41.2891 41.6113 40.5176 42.3047 40.0879 42.6465C39.6582 42.9981 38.8281 43.6035 38.2324 43.9941C37.6367 44.3848 36.6992 44.9512 36.1328 45.2539C35.5664 45.5469 34.6289 45.9863 34.0332 46.2305C33.4375 46.4649 32.4121 46.8262 31.7383 47.0215C31.0645 47.2168 30.0781 47.4512 29.541 47.5586C29.0039 47.6563 28.1445 47.793 27.6367 47.8516C27.1289 47.9102 25.9375 47.959 25 47.959C24.0625 47.959 22.8711 47.9102 22.3633 47.8516C21.8555 47.793 21.1035 47.6856 20.7031 47.6074C20.3027 47.5293 19.6582 47.4024 19.2871 47.3145C18.916 47.2266 18.252 47.041 17.8223 46.9043C17.3926 46.7676 16.6113 46.4844 15.1367 45.8984L11.1523 47.9492C8.35938 49.3945 7.08008 50 6.85547 50C6.63086 50 6.47461 49.9219 6.29883 49.707C6.13281 49.5117 6.05469 49.2969 6.05469 49.0527C6.05469 48.8477 6.33789 46.8555 6.68945 44.6289C7.04102 42.4024 7.32422 40.4981 7.32422 40.4004C7.32422 40.3125 7.07031 39.9414 6.75781 39.5703C6.44531 39.209 5.98633 38.6524 5.74219 38.3301C5.49805 38.0078 5.03906 37.3242 4.7168 36.8164C4.39453 36.3086 3.87695 35.3809 3.56445 34.7656C3.25195 34.1504 2.83203 33.2031 2.62695 32.666C2.41211 32.1289 2.13867 31.3184 2.00195 30.8594C1.875 30.4004 1.67969 29.6582 1.57227 29.1992C1.46484 28.7402 1.30859 27.8418 1.21094 27.1973C1.09375 26.3672 1.04492 25.4199 1.04492 23.9746C1.04492 22.3633 1.08398 21.6309 1.25 20.5566C1.36719 19.8047 1.58203 18.75 1.71875 18.2129C1.85547 17.6758 2.10938 16.7969 2.28516 16.2598C2.4707 15.7227 2.82227 14.834 3.06641 14.2774C3.31055 13.7305 3.74023 12.8711 4.02344 12.3731C4.29688 11.8848 4.74609 11.1426 5.00977 10.7422C5.2832 10.3418 5.77148 9.65821 6.10352 9.22852C6.44531 8.79884 7.14844 7.98829 7.67578 7.43165C8.21289 6.87501 9.0625 6.06446 9.57031 5.64454C10.0781 5.21485 11.0059 4.52149 11.6211 4.11134C12.2363 3.70118 13.1152 3.15431 13.5742 2.9004C14.0332 2.65626 14.8242 2.26563 15.332 2.05079C15.8398 1.82618 16.7383 1.47462 17.334 1.26954C17.9297 1.07423 18.916 0.791024 19.5313 0.64454C20.1465 0.498056 21.1816 0.302743 21.8262 0.205087C22.6172 0.0781338 23.6035 0.0195401 24.8535 0.00977443ZM21.3867 2.19727C20.8789 2.28516 20.1758 2.42188 19.8242 2.50977C19.4727 2.5879 18.7695 2.78321 18.2617 2.94923C17.7539 3.11524 16.875 3.44727 16.3086 3.68165C15.7422 3.92579 14.8828 4.34571 14.4043 4.60938C13.9258 4.88282 13.125 5.3711 12.6465 5.69337C12.1582 6.01563 11.4355 6.54298 11.0352 6.87501C10.6348 7.19727 9.84375 7.9297 9.27734 8.4961C8.71094 9.06251 7.87109 10.0293 7.41211 10.6445C6.95313 11.2598 6.39648 12.0508 6.18164 12.4024C5.9668 12.7539 5.53711 13.5352 5.23438 14.1309C4.93164 14.7363 4.51172 15.6934 4.29688 16.2598C4.08203 16.8262 3.79883 17.7149 3.66211 18.2324C3.52539 18.7598 3.32031 19.6973 3.20312 20.3125C3.06641 21.0938 2.98828 22.041 2.95898 23.3887C2.92969 24.6289 2.94922 25.7324 3.02734 26.416C3.0957 27.0117 3.25195 27.9981 3.37891 28.6133C3.51562 29.2285 3.80859 30.3125 4.04297 31.0059C4.27734 31.6992 4.70703 32.7832 5 33.3984C5.2832 34.0137 5.76172 34.9219 6.05469 35.4004C6.34766 35.8789 6.9043 36.6992 7.28516 37.207C7.66602 37.7149 8.27149 38.4668 8.63281 38.8672C9.19922 39.502 9.28711 39.6484 9.27734 39.9609C9.27734 40.166 9.0332 41.8848 8.74024 43.7695C8.44727 45.6641 8.21289 47.2461 8.22266 47.2754C8.24219 47.3047 9.72656 46.5625 11.5234 45.625C13.3203 44.6973 14.9023 43.9258 15.0391 43.9258C15.1758 43.916 15.8301 44.1406 16.5039 44.4141C17.1777 44.6875 18.252 45.0586 18.8965 45.2441C19.541 45.4297 20.6152 45.6836 21.2891 45.8008C22.041 45.9277 23.1641 46.0254 24.2188 46.0645C25.2734 46.1035 26.377 46.0742 27.0996 46.0059C27.7441 45.9375 28.7109 45.8008 29.248 45.6934C29.7852 45.5859 30.7324 45.3516 31.3477 45.166C31.9629 44.9902 32.9492 44.6387 33.5449 44.3848C34.1406 44.1309 34.9707 43.7402 35.4004 43.5059C35.8301 43.2715 36.6406 42.7832 37.207 42.4121C37.7734 42.041 38.6328 41.4063 39.1113 40.9961C39.5898 40.5957 40.4297 39.8047 40.9668 39.2481C41.5039 38.6914 42.2559 37.8125 42.6367 37.3047C43.0078 36.7969 43.5352 36.0449 43.7891 35.6445C44.043 35.2441 44.5313 34.3359 44.8731 33.6426C45.2148 32.9492 45.6543 31.9141 45.8496 31.3477C46.0449 30.7813 46.3281 29.8145 46.4844 29.1992C46.6309 28.584 46.8359 27.4805 46.9238 26.7578C47.0606 25.7324 47.0801 24.9902 47.041 23.4375C47.0117 22.0313 46.9336 21.1035 46.7969 20.3125C46.6797 19.6973 46.4746 18.7598 46.3379 18.2324C46.2012 17.7149 45.918 16.8262 45.7031 16.2598C45.4883 15.6934 45.0684 14.7363 44.7656 14.1309C44.4629 13.5352 44.0332 12.7539 43.8184 12.4024C43.6035 12.0508 43.0469 11.2598 42.5879 10.6445C42.1289 10.0293 41.2891 9.06251 40.7227 8.4961C40.1562 7.9297 39.3652 7.19727 38.9648 6.87501C38.5645 6.55274 37.9492 6.08399 37.5977 5.83985C37.2461 5.59571 36.4844 5.1172 35.8887 4.7754C35.293 4.44337 34.3359 3.95509 33.7402 3.70118C33.1445 3.45704 32.2363 3.10548 31.709 2.93946C31.1914 2.77345 30.3809 2.54884 29.9121 2.45118C29.4336 2.34376 28.5938 2.19727 28.0273 2.10938C27.4609 2.03126 26.4258 1.94337 25.7324 1.92384C25.0391 1.89454 23.9844 1.91407 23.3887 1.95313C22.793 2.00196 21.8945 2.10938 21.3867 2.19727ZM24.9512 6.94337C25.3809 6.94337 25.957 6.9922 26.2207 7.07032C26.4941 7.13868 26.9824 7.33399 27.3242 7.50977C27.6855 7.68555 28.1738 8.05665 28.5254 8.41798C28.8574 8.75977 29.2578 9.28712 29.4043 9.58985C29.5605 9.90235 29.7559 10.4102 29.834 10.7129C29.9121 11.0254 29.9805 11.5625 29.9805 11.9141C29.9805 12.2656 29.9121 12.8125 29.8242 13.1348C29.7461 13.457 29.5313 13.9844 29.3652 14.2969C29.1895 14.6191 28.8086 15.127 28.5059 15.4199C28.2031 15.7227 27.6953 16.1035 27.3828 16.2793C27.0605 16.4453 26.543 16.6602 26.2207 16.7383C25.8984 16.8262 25.3516 16.8945 25 16.8945C24.6484 16.8945 24.1016 16.8262 23.7793 16.7383C23.457 16.6602 22.9395 16.4453 22.6172 16.2793C22.3047 16.1035 21.7969 15.7227 21.4941 15.4199C21.1914 15.127 20.8105 14.6191 20.6348 14.2969C20.4688 13.9844 20.2539 13.457 20.1758 13.1348C20.0879 12.8125 20.0195 12.2656 20.0195 11.9141C20.0195 11.5625 20.0879 11.0254 20.166 10.7129C20.2441 10.4102 20.4395 9.90235 20.5957 9.58985C20.7422 9.28712 21.1426 8.75977 21.4746 8.41798C21.8262 8.05665 22.3145 7.68556 22.6855 7.50001C23.0176 7.33399 23.4863 7.13868 23.7305 7.07032C23.9746 7.00196 24.5215 6.94337 24.9512 6.94337ZM23.5645 9.16993C23.3594 9.26759 23.0273 9.52149 22.8125 9.73634C22.6074 9.94141 22.3242 10.3516 22.1777 10.6445C21.9824 11.0742 21.9336 11.3281 21.9336 11.9141C21.9336 12.4609 21.9922 12.7734 22.1484 13.1348C22.2754 13.3984 22.5586 13.8086 22.7832 14.043C23.0078 14.2774 23.3496 14.5508 23.5352 14.6484C23.7207 14.7461 24.1211 14.8731 24.4141 14.9414C24.8242 15.0293 25.0879 15.0293 25.5371 14.9414C25.8594 14.8731 26.2793 14.7461 26.4648 14.6484C26.6504 14.5508 26.9922 14.2774 27.2168 14.043C27.4414 13.8086 27.7246 13.3984 27.8516 13.1348C28.0078 12.7734 28.0664 12.4609 28.0664 11.9141C28.0664 11.3281 28.0176 11.0742 27.8223 10.6445C27.6758 10.3516 27.3926 9.94141 27.1875 9.72657C26.9727 9.52149 26.582 9.24806 26.3184 9.1211C26.0547 8.99415 25.5664 8.8672 25.2441 8.84766C24.9219 8.81837 24.4922 8.8379 24.2871 8.88673C24.0918 8.94532 23.7598 9.07227 23.5645 9.16993ZM23.9746 18.4766C27.2168 18.4668 28.5645 18.4961 28.8086 18.584C29.043 18.6621 29.209 18.8086 29.3164 19.043C29.4824 19.3555 29.4922 19.9512 29.4922 34.9609H30.1758C30.7617 34.9609 30.8984 35 31.4453 35.4492V39.4531L30.8594 39.9414H19.1406L18.5547 39.4531V35.4492L18.8477 35.2051C19.1016 35 19.2383 34.9609 20.5078 34.9609V23.5352L19.7656 23.5059C19.0918 23.4863 19.0039 23.457 18.7891 23.2129C18.5547 22.9492 18.5547 22.9199 18.5547 21.0156C18.5449 19.0918 18.5449 19.0918 18.7891 18.8281C18.9258 18.6816 19.1406 18.5449 19.2578 18.5254C19.3848 18.5059 21.5039 18.4766 23.9746 18.4766ZM20.4102 21.6797C21.7676 21.6699 21.8457 21.6992 22.0996 21.9434C22.2656 22.1191 22.3828 22.3633 22.4219 22.6074C22.4512 22.8223 22.4609 25.9766 22.4414 29.6191L22.4121 36.25C21.8066 36.7871 21.709 36.8164 21.0938 36.8164H20.4102V38.0859H29.5898V36.8164C28.291 36.8164 28.1934 36.7871 27.9102 36.5332L27.5879 36.25L27.5391 20.4102H20.4102V21.6797Z" fill="#4BA9EF"/>
</svg>
