<svg width="30" height="30" viewBox="0 0 30 30" fill="none" xmlns="http://www.w3.org/2000/svg">
<path d="M26.0741 4.18326C25.8632 4.25943 20.4198 6.34537 13.9745 8.81217C6.56826 11.654 2.20889 13.3532 2.121 13.4352C2.04482 13.5055 1.95693 13.6579 1.92178 13.7692C1.88662 13.8864 1.88076 14.0739 1.9042 14.2087C1.92764 14.3551 2.01553 14.5075 2.13271 14.6247C2.28506 14.777 2.78311 14.9587 5.39053 15.8434C7.82217 16.6696 8.49014 16.8747 8.58389 16.8278C8.64834 16.7985 9.39834 16.3415 10.2538 15.82C11.1093 15.2926 14.3144 13.3356 17.3729 11.4665C21.6503 8.85904 22.9569 8.0856 23.0272 8.12662C23.0741 8.16178 23.1151 8.23795 23.1151 8.29654C23.1151 8.36686 21.2284 10.1422 17.8007 13.3004C14.8769 15.9899 12.4218 18.2575 12.3456 18.3395C12.205 18.486 12.1991 18.5387 12.0058 21.2751C11.8593 23.3141 11.8241 24.111 11.8651 24.234C11.9003 24.3278 11.9999 24.4391 12.0878 24.4743C12.1757 24.5153 12.3046 24.5329 12.3808 24.5094C12.4511 24.4919 13.2772 23.7243 14.2089 22.8102C15.1405 21.8962 15.9257 21.152 15.955 21.152C15.9784 21.152 17.3612 22.1833 19.0312 23.4489C20.6952 24.7145 22.1542 25.7985 22.2655 25.8571C22.412 25.9333 22.5644 25.9567 22.7987 25.945C23.0272 25.9333 23.1854 25.8864 23.3319 25.7809C23.4491 25.6989 23.6015 25.5524 23.6659 25.4587C23.7538 25.3297 24.3515 22.7106 25.9569 15.4391C27.1522 10.0251 28.1249 5.51334 28.1249 5.41959C28.1249 5.31998 28.0897 5.13834 28.0546 5.00943C28.0077 4.86881 27.8671 4.65787 27.6854 4.48209C27.5097 4.30045 27.2987 4.15982 27.1581 4.11295C27.0292 4.07779 26.8183 4.04264 26.6894 4.0485C26.5604 4.0485 26.2851 4.10709 26.0741 4.18326Z" fill="white"/>
</svg>
