<svg width="30" height="30" viewBox="0 0 30 30" fill="none" xmlns="http://www.w3.org/2000/svg">
<path fill-rule="evenodd" clip-rule="evenodd" d="M14.912 1.8806C15.6972 1.87474 16.1659 1.90404 16.7577 1.99193C17.1913 2.05638 17.8241 2.17943 18.164 2.26146C18.5038 2.34935 19.0429 2.50756 19.3651 2.61888C19.6874 2.73021 20.2382 2.95873 20.5956 3.12865C20.953 3.29857 21.4804 3.57396 21.7675 3.74974C22.0546 3.92552 22.5585 4.26537 22.8808 4.5056C23.203 4.74584 23.7538 5.22045 24.1054 5.56029C24.4511 5.90013 24.9433 6.43334 25.1894 6.73802C25.4354 7.04271 25.787 7.51732 25.9628 7.79271C26.1444 8.0681 26.4257 8.54271 26.5897 8.8474C26.7538 9.15209 27.0058 9.69115 27.1464 10.0486C27.2929 10.406 27.4804 10.9158 27.5624 11.1911C27.6444 11.4665 27.7675 11.9411 27.8261 12.2458C27.8905 12.5505 27.9843 13.0896 28.037 13.447C28.0839 13.8044 28.1249 14.4958 28.1249 14.988C28.1249 15.5681 28.0839 16.1658 28.0077 16.7107C27.9374 17.1736 27.7909 17.906 27.6796 18.3396C27.5683 18.7732 27.3515 19.4353 27.205 19.8044C27.0585 20.1736 26.8593 20.6365 26.7597 20.8298C26.6659 21.0232 26.4257 21.4451 26.2323 21.7673C26.039 22.0896 25.6933 22.5994 25.4647 22.904C25.2362 23.2087 24.7733 23.7478 24.4335 24.0994C24.0937 24.4509 23.578 24.9314 23.2909 25.1658C23.0038 25.4001 22.4999 25.7693 22.1776 25.9861C21.8554 26.197 21.246 26.5427 20.83 26.7478C20.414 26.9529 19.8046 27.2165 19.4823 27.3337C19.1601 27.4568 18.5917 27.6267 18.2226 27.7204C17.8534 27.8142 17.1913 27.9431 16.7577 28.0076C16.2011 28.0896 15.6737 28.1247 14.9882 28.1247C14.2206 28.1247 13.8046 28.0896 13.1132 27.9783C12.621 27.9021 11.9296 27.7556 11.5722 27.6619C11.2147 27.5622 10.6757 27.3923 10.371 27.2751C10.0663 27.1579 9.55068 26.9353 8.64248 26.4841L5.39053 27.281C3.60342 27.7204 2.07412 28.0896 1.99209 28.113C1.88076 28.1365 1.85147 28.1247 1.88076 28.0603C1.89834 28.0134 2.28506 26.4958 3.54482 21.3982L3.26943 20.8533C3.12295 20.5486 2.93545 20.1443 2.85342 19.9509C2.77725 19.7576 2.64248 19.4001 2.56045 19.1599C2.47842 18.9197 2.34365 18.4568 2.26162 18.1345C2.18545 17.8122 2.0624 17.1853 1.99795 16.7458C1.91592 16.2009 1.8749 15.6443 1.8749 15.0466C1.8749 14.5544 1.91006 13.863 1.95693 13.5056C2.00381 13.1482 2.09756 12.5974 2.16787 12.2751C2.23232 11.9529 2.35537 11.4665 2.4374 11.1911C2.51943 10.9158 2.70693 10.406 2.85342 10.0486C2.99404 9.69115 3.246 9.15209 3.41006 8.8474C3.57412 8.54271 3.85537 8.0681 4.03701 7.79271C4.21279 7.51732 4.56436 7.04271 4.81045 6.73802C5.05654 6.43334 5.54287 5.90599 5.90029 5.56615C6.25186 5.22631 6.78506 4.76342 7.08975 4.5349C7.39443 4.30638 7.95108 3.93724 8.32022 3.71459C8.68936 3.49193 9.28115 3.18138 9.63858 3.02318C9.996 2.87084 10.5468 2.65404 10.869 2.54857C11.1913 2.4431 11.6425 2.30834 11.8651 2.2556C12.0878 2.20287 12.6327 2.0974 13.0663 2.02123C13.6698 1.92162 14.1034 1.88646 14.912 1.8806ZM9.4335 9.16381C9.32217 9.25756 9.13467 9.45677 9.01748 9.60326C8.90029 9.74974 8.72451 10.0369 8.61904 10.2419C8.51943 10.4411 8.40225 10.7693 8.35537 10.9744C8.3085 11.1736 8.25576 11.4958 8.23233 11.6892C8.20889 11.8826 8.22061 12.2517 8.25576 12.5095C8.29092 12.7673 8.37881 13.1658 8.45498 13.3884C8.53115 13.6169 8.67764 13.9685 8.78311 14.1794C8.88857 14.3904 9.13467 14.7888 9.33389 15.0701C9.53311 15.3513 9.90811 15.8376 10.1659 16.154C10.4237 16.4704 11.0038 17.0974 11.455 17.5544C11.9062 18.0115 12.539 18.5915 12.8612 18.8435C13.1835 19.0954 13.6581 19.4412 13.9159 19.6052C14.1737 19.7693 14.5839 20.0095 14.8241 20.1443C15.0644 20.2732 15.4745 20.4665 15.7323 20.572C15.9901 20.6775 16.4765 20.8357 16.8163 20.9294C17.1562 21.0173 17.7362 21.1228 18.1054 21.1638C18.6151 21.2165 18.8788 21.2165 19.1894 21.1638C19.4179 21.1228 19.746 21.0232 19.9218 20.9411C20.1151 20.8533 20.3905 20.6423 20.5956 20.4314C20.8183 20.2029 21.0292 19.9099 21.1522 19.6579C21.2987 19.3533 21.3573 19.1482 21.3749 18.8669C21.3983 18.5681 21.3749 18.4333 21.2812 18.2517C21.2226 18.1228 21.0761 17.9353 20.9647 17.8415C20.8593 17.7478 20.3319 17.4548 19.8046 17.197C19.0312 16.822 18.7792 16.7224 18.5214 16.7048C18.3397 16.6931 18.0878 16.7165 17.9589 16.7634C17.83 16.8044 17.6601 16.8982 17.578 16.9626C17.496 17.0329 17.3202 17.2615 17.1913 17.4665C17.0565 17.6716 16.8925 17.8943 16.8163 17.9587C16.7343 18.0349 16.6054 18.0759 16.4706 18.0701C16.3534 18.0701 16.037 17.9763 15.7616 17.865C15.4862 17.7536 15.0409 17.5134 14.7655 17.3376C14.4901 17.156 14.0858 16.8572 13.8632 16.6638C13.6405 16.4763 13.248 16.0661 12.996 15.7615C12.7382 15.4568 12.3866 14.9763 12.2108 14.6951C12.0351 14.4079 11.8769 14.1091 11.8593 14.0212C11.8417 13.9275 11.8534 13.7927 11.8827 13.7107C11.9179 13.6286 12.0995 13.3826 12.2929 13.154C12.4921 12.9314 12.6913 12.6267 12.744 12.4802C12.7909 12.3337 12.8319 12.1521 12.8319 12.0701C12.8319 11.988 12.7968 11.8181 12.7499 11.6892C12.7089 11.5603 12.4804 11.0329 12.246 10.5173C12.0116 10.0017 11.7714 9.51537 11.7128 9.43334C11.6542 9.35131 11.4901 9.2224 11.3554 9.14623C11.2147 9.0642 10.9452 8.96459 10.7519 8.92357C10.5585 8.88256 10.3241 8.85326 10.2245 8.85326C10.1249 8.85326 9.95498 8.88256 9.84365 8.92357C9.72647 8.96459 9.54483 9.07006 9.4335 9.16381Z" fill="white"/>
</svg>
