<svg width="30" height="30" viewBox="0 0 30 30" fill="none" xmlns="http://www.w3.org/2000/svg">
<path fill-rule="evenodd" clip-rule="evenodd" d="M14.7071 4.87493C16.0431 4.86907 17.7833 4.89251 18.5743 4.9218C19.3653 4.9511 20.6544 5.00969 21.4454 5.04485C22.2364 5.07415 23.3145 5.14446 23.8478 5.19133C24.381 5.23821 25.0665 5.31438 25.3712 5.36711C25.6759 5.41985 26.0743 5.5136 26.2501 5.57805C26.4259 5.63665 26.6661 5.74211 26.7774 5.80657C26.8888 5.87688 27.1114 6.02337 27.2638 6.14055C27.4161 6.2636 27.6563 6.50383 27.797 6.67961C27.9376 6.8554 28.1251 7.14836 28.213 7.32415C28.3009 7.49993 28.4356 7.88665 28.506 8.17376C28.5821 8.46086 28.6817 9.00579 28.7345 9.37493C28.7872 9.74407 28.8517 10.3359 28.8868 10.6933C28.9161 11.0507 28.9747 12.0878 29.0099 13.0077C29.0567 14.2323 29.0567 15.123 29.0099 16.3476C28.9747 17.2675 28.9044 18.4394 28.8575 18.955C28.8106 19.4706 28.711 20.2206 28.6466 20.6249C28.5763 21.0292 28.4591 21.539 28.3829 21.7675C28.3067 21.996 28.1192 22.3593 27.9669 22.582C27.8087 22.8046 27.5509 23.1034 27.3927 23.2441C27.2345 23.3847 26.8888 23.6073 26.631 23.7363C26.3731 23.8652 25.9806 24.0058 25.752 24.0527C25.5235 24.0937 24.9845 24.1757 24.5509 24.2226C24.1173 24.2695 23.2853 24.3398 22.7052 24.3749C22.1251 24.4101 20.9649 24.4628 20.127 24.498C19.2892 24.5273 17.5372 24.5683 16.2306 24.5917C14.7892 24.6152 13.0665 24.5976 11.836 24.5566C10.7228 24.5214 9.23447 24.4628 8.52549 24.4277C7.8165 24.3984 6.9083 24.3456 6.504 24.3163C6.0997 24.2812 5.46689 24.2167 5.09775 24.1698C4.72861 24.123 4.26572 24.0409 4.07236 23.9941C3.879 23.9472 3.52158 23.8066 3.28134 23.6894C2.9708 23.537 2.71884 23.3554 2.42588 23.0624C2.11533 22.7519 1.95127 22.5234 1.76963 22.1484C1.58799 21.7792 1.48838 21.4628 1.38291 20.9179C1.30088 20.5136 1.19541 19.787 1.14853 19.3066C1.10166 18.8202 1.01377 17.6132 0.961032 16.6113C0.879001 15.0702 0.873141 14.5898 0.931735 13.4179C0.972751 12.662 1.02549 11.6718 1.06064 11.2206C1.08994 10.7695 1.15439 10.0722 1.20713 9.6679C1.254 9.2636 1.35947 8.66008 1.42978 8.32024C1.51767 7.92766 1.64658 7.5468 1.79306 7.26555C1.94541 6.96086 2.15049 6.69133 2.45517 6.38665C2.77158 6.07024 3.02353 5.88274 3.33994 5.72454C3.58017 5.60735 3.96689 5.47258 4.18955 5.42571C4.4122 5.37883 4.96884 5.2968 5.42002 5.24993C5.87119 5.19719 6.65049 5.13274 7.14853 5.09758C7.64658 5.06829 8.92392 5.01555 9.99033 4.9804C11.0567 4.94524 12.0001 4.91008 12.0997 4.89836C12.1993 4.89251 13.3712 4.87493 14.7071 4.87493ZM12.1993 18.9257C12.211 18.9257 13.8341 17.9999 15.8087 16.8632C17.7833 15.7265 19.4005 14.7714 19.4063 14.7363C19.4063 14.7011 17.795 13.746 15.8263 12.6093C13.8575 11.4784 12.2345 10.5468 12.2169 10.5468C12.1993 10.5468 12.1876 12.4335 12.1876 14.7363C12.1876 17.039 12.1935 18.9257 12.1993 18.9257Z" fill="white"/>
</svg>
