<svg width="20" height="20" viewBox="0 0 20 20" fill="none" xmlns="http://www.w3.org/2000/svg">
<g clip-path="url(#clip0_86_3799)">
<path d="M16.4525 12.6484V8.84839C16.4525 6.02581 14.646 3.56453 12.1589 2.64519C12.1879 2.50001 12.204 2.35165 12.204 2.20324C12.2041 0.987117 11.217 0 10.0009 0C8.78474 0 7.79762 0.987117 7.79762 2.20324C7.79762 2.34842 7.81373 2.49354 7.83953 2.63226C6.98472 2.93549 6.19439 3.41612 5.5202 4.06774C4.24925 5.29355 3.54926 6.94193 3.54926 8.70967V12.6484C3.54926 12.7871 3.43635 12.9033 3.2944 12.9033C2.10408 12.9033 1.08793 13.8 0.97825 14.942C0.916945 15.5775 1.12666 16.2097 1.55568 16.6807C1.98147 17.1484 2.59118 17.4194 3.22663 17.4194H7.11697C7.27826 18.8678 8.51054 20.0001 10.0009 20.0001C11.4912 20.0001 12.7235 18.8678 12.8847 17.4194H16.7751C17.4106 17.4194 18.0202 17.1484 18.446 16.6807C18.8718 16.2097 19.0815 15.5775 19.0235 14.942C18.9138 13.8 17.8945 12.9033 16.7073 12.9033C16.6738 12.9034 16.6406 12.897 16.6096 12.8842C16.5785 12.8715 16.5504 12.8527 16.5267 12.829C16.503 12.8053 16.4842 12.7772 16.4715 12.7462C16.4587 12.7151 16.4523 12.6819 16.4525 12.6484ZM10.0009 1.2903C10.5041 1.2903 10.9137 1.69998 10.9137 2.20318C10.9137 2.24509 10.9073 2.28383 10.9008 2.32574C10.6815 2.29347 10.4589 2.2709 10.2363 2.26443C9.85239 2.2515 9.47498 2.27736 9.10079 2.32897C9.09433 2.28706 9.08786 2.24833 9.08786 2.20641C9.08797 1.69998 9.49765 1.2903 10.0009 1.2903ZM10.0009 18.7096C9.22346 18.7096 8.57184 18.1548 8.4202 17.4193H11.5815C11.4299 18.1548 10.7783 18.7096 10.0009 18.7096ZM17.7396 15.0645C17.7654 15.342 17.6783 15.6097 17.4944 15.8129C17.3041 16.0161 17.0525 16.129 16.7751 16.129H3.22668C2.94925 16.129 2.69768 16.0161 2.51053 15.8129C2.32344 15.6097 2.23633 15.3419 2.26214 15.0645C2.30728 14.5774 2.76216 14.1935 3.2944 14.1935C4.14603 14.1935 4.83956 13.5 4.83956 12.6484V8.70967C4.83956 7.29677 5.40083 5.97743 6.41698 4.99678C7.38794 4.05809 8.65248 3.54837 10.0009 3.54837C10.0654 3.54837 10.1266 3.54837 10.1912 3.55161C12.9299 3.64836 15.1622 6.02581 15.1622 8.84839V12.6484C15.1622 13.5 15.8557 14.1935 16.7073 14.1935C17.2396 14.1935 17.6912 14.5774 17.7396 15.0645Z" fill="#373737" fill-opacity="0.5"/>
</g>
<defs>
<clipPath id="clip0_86_3799">
<rect width="20" height="20" fill="white"/>
</clipPath>
</defs>
</svg>
