<svg width="27" height="27" viewBox="0 0 27 27" fill="none" xmlns="http://www.w3.org/2000/svg">
<path d="M6.32819 2.83716C6.13835 2.91626 5.90104 3.03755 5.80085 3.11138C5.70065 3.17994 5.40534 3.40669 5.14167 3.61236C4.878 3.82329 4.47194 4.16607 4.23464 4.38228C3.99733 4.59849 3.68093 4.92544 3.53327 5.11529C3.38034 5.30513 3.17995 5.62681 3.08503 5.8272C2.98483 6.02759 2.86882 6.39673 2.81608 6.64458C2.7528 6.96626 2.73698 7.21939 2.75808 7.54107C2.77917 7.78892 2.83718 8.15806 2.89519 8.35845C2.95319 8.55884 3.12194 9.0229 3.27487 9.38677C3.4278 9.75064 3.77058 10.4731 4.03425 10.9952C4.29792 11.5172 4.68815 12.2397 4.90436 12.6036C5.1153 12.9674 5.47917 13.5475 5.7112 13.8956C5.94323 14.2436 6.32819 14.7868 6.5655 15.1085C6.79753 15.4301 7.2405 15.9838 7.54108 16.3477C7.84167 16.7116 8.51667 17.434 9.04401 17.9561C9.56608 18.4835 10.2885 19.1585 10.6524 19.459C11.0163 19.7596 11.57 20.2026 11.8917 20.4399C12.2133 20.6772 12.8145 21.0938 13.2364 21.3733C13.6583 21.6475 14.2964 22.043 14.6602 22.254C15.0241 22.4596 15.7202 22.8288 16.2159 23.0713C16.7116 23.3139 17.4341 23.6461 17.8243 23.8096C18.2145 23.9731 18.726 24.1524 18.9581 24.2104C19.2007 24.2684 19.5592 24.3106 19.8018 24.3106C20.1024 24.3106 20.345 24.2737 20.6456 24.1788C20.8776 24.1049 21.2467 23.9467 21.463 23.8307C21.7477 23.6672 22.0114 23.4563 22.4122 23.0502C22.718 22.7444 23.1874 22.2065 23.4563 21.8585C23.7253 21.5104 23.9942 21.1202 24.0575 20.9883C24.1208 20.8565 24.1946 20.6086 24.2262 20.4346C24.2632 20.2079 24.2632 20.0233 24.2157 19.7754C24.1788 19.5856 24.0944 19.3167 24.0259 19.169C23.952 19.0266 23.7938 18.7893 23.6673 18.6469C23.5407 18.5045 23.3087 18.2989 23.1505 18.1934C22.9923 18.0879 22.4596 17.7715 21.9639 17.4973C21.4682 17.2178 20.4979 16.6799 19.8018 16.295C19.0583 15.8889 18.3833 15.562 18.1671 15.4934C17.8823 15.409 17.7083 15.3879 17.4024 15.409C17.144 15.4249 16.9278 15.4723 16.7801 15.5461C16.6589 15.6094 16.4637 15.7571 16.3477 15.8731C16.2317 15.9891 16.0788 16.2053 16.005 16.3477C15.9311 16.4954 15.8415 16.7379 15.7993 16.8909C15.7624 17.0385 15.7044 17.2178 15.6675 17.2864C15.6358 17.3497 15.5567 17.4393 15.4882 17.4815C15.4249 17.5237 15.2667 17.5606 15.1348 17.5606C14.9608 17.5606 14.8342 17.5184 14.6602 17.4077C14.5284 17.3286 14.2331 17.0965 14.001 16.9014C13.769 16.7116 13.3208 16.3161 12.9991 16.0313C12.6774 15.7465 12.0868 15.177 11.6807 14.7604C11.2747 14.3385 10.7157 13.7374 10.4415 13.4157C10.1673 13.094 9.83503 12.6932 9.70319 12.5245C9.50808 12.2713 9.46062 12.1659 9.44479 11.9497C9.42897 11.7124 9.4448 11.6596 9.57663 11.5067C9.68737 11.3801 9.81394 11.3116 10.046 11.2536C10.22 11.2061 10.4942 11.1059 10.6524 11.0321C10.8106 10.9583 11.0426 10.7948 11.1639 10.6682C11.2905 10.5417 11.4434 10.3307 11.5014 10.1936C11.5647 10.0512 11.628 9.83501 11.6385 9.70318C11.6544 9.57134 11.628 9.29185 11.5805 9.07036C11.5331 8.85415 11.4012 8.50611 11.2905 8.30572C11.1798 8.10533 10.9214 7.66236 10.721 7.33013C10.5153 6.9979 10.0354 6.11724 9.65046 5.37896C9.2655 4.64068 8.88054 3.92876 8.79089 3.79693C8.70651 3.66509 8.55886 3.48052 8.46921 3.3856C8.37956 3.2854 8.21081 3.13775 8.09479 3.05865C7.97878 2.97954 7.75202 2.86353 7.59382 2.80025C7.40925 2.73169 7.18776 2.68951 6.98737 2.69478C6.77116 2.69478 6.5655 2.74224 6.32819 2.83716Z" fill="#4BA9EF"/>
</svg>
