<svg width="27" height="27" viewBox="0 0 27 27" fill="none" xmlns="http://www.w3.org/2000/svg">
<path fill-rule="evenodd" clip-rule="evenodd" d="M13.4474 0.00488281C14.0222 0.00488281 14.4599 0.0259766 14.7394 0.0787109C14.9714 0.120898 15.3405 0.194727 15.5567 0.242188C15.773 0.289648 16.2106 0.416211 16.5323 0.526953C16.854 0.632422 17.3075 0.822266 17.5501 0.943555C17.7874 1.05957 18.1407 1.25996 18.3358 1.37598C18.5362 1.49727 18.8843 1.73984 19.1163 1.91914C19.3483 2.09844 19.7386 2.44121 19.9864 2.68906C20.2343 2.93691 20.5771 3.32715 20.7564 3.55918C20.9304 3.79121 21.1624 4.11816 21.2679 4.28691C21.3733 4.45039 21.5737 4.80898 21.7056 5.07266C21.8427 5.3416 22.022 5.75293 22.1064 5.98496C22.1907 6.21699 22.3173 6.63359 22.3858 6.90781C22.4544 7.18203 22.5335 7.58809 22.5651 7.8043C22.5968 8.02051 22.6337 8.42656 22.6548 8.70078C22.6706 8.99082 22.6601 9.41269 22.6231 9.70273C22.5915 9.97695 22.4913 10.4779 22.4069 10.8102C22.3173 11.1424 22.138 11.7014 22.0062 12.0494C21.8743 12.3975 21.5579 13.1094 21.3048 13.6314C21.0464 14.1535 20.6878 14.8443 20.5032 15.1607C20.3239 15.4824 18.5942 18.2721 16.6642 21.3676C14.7341 24.4631 13.1521 26.9943 13.1521 26.9838C13.1468 26.9785 11.7335 24.5791 10.0091 21.6471C8.28467 18.715 6.78702 16.1574 6.67627 15.9518C6.57081 15.7461 6.31241 15.224 6.10674 14.7916C5.90108 14.3539 5.59522 13.6578 5.4212 13.2359C5.25245 12.8141 4.99405 12.1127 4.85166 11.6803C4.70928 11.2426 4.54053 10.6414 4.47725 10.3355C4.38233 9.89785 4.35596 9.61836 4.36123 9.01719C4.36123 8.59531 4.39288 8.06269 4.42452 7.83066C4.46143 7.59863 4.54581 7.18203 4.61436 6.90781C4.68291 6.63359 4.80948 6.21699 4.89385 5.98496C4.97823 5.75293 5.14698 5.36797 5.26827 5.12539C5.38428 4.88809 5.58467 4.53477 5.70069 4.33437C5.82198 4.13926 6.06456 3.79121 6.24385 3.55918C6.42315 3.32715 6.76592 2.93691 7.01377 2.68906C7.26163 2.44121 7.65186 2.09844 7.88389 1.91914C8.11592 1.73984 8.46397 1.49727 8.65909 1.37598C8.85948 1.25996 9.1917 1.07539 9.39737 0.969922C9.60831 0.864453 10.0196 0.685156 10.3097 0.579687C10.5997 0.474219 11.0638 0.331836 11.338 0.268555C11.6122 0.210547 12.0077 0.126172 12.2081 0.0839844C12.4138 0.0470703 12.9622 0.0101563 13.4474 0.00488281ZM12.1554 3.80176C11.9233 3.85977 11.5648 3.98105 11.3644 4.0707C11.164 4.16035 10.7948 4.36602 10.547 4.52949C10.2991 4.69297 9.94581 4.97773 9.75596 5.16758C9.56612 5.35742 9.28135 5.70547 9.12315 5.93223C8.97022 6.16426 8.76983 6.50176 8.69073 6.68633C8.61163 6.86563 8.47979 7.21895 8.40596 7.47734C8.29522 7.84121 8.26358 8.08906 8.24249 8.67441C8.22139 9.28086 8.23721 9.50234 8.32159 9.91367C8.37959 10.1879 8.49561 10.5939 8.59053 10.8102C8.68018 11.0264 8.85948 11.3902 8.99131 11.617C9.12315 11.8385 9.40264 12.2023 9.60831 12.4238C9.81924 12.6453 10.1462 12.9459 10.336 13.0883C10.5259 13.2307 10.895 13.4574 11.1534 13.584C11.4118 13.7105 11.8653 13.8793 12.1554 13.9531C12.4507 14.027 12.9148 14.0955 13.2101 14.1166C13.5739 14.1324 13.9009 14.1166 14.2489 14.0586C14.5337 14.0111 14.9134 13.9215 15.0927 13.8635C15.2773 13.8002 15.5778 13.6736 15.7677 13.584C15.9575 13.4891 16.2265 13.3361 16.3741 13.2359C16.5165 13.141 16.7907 12.9301 16.9753 12.7666C17.1599 12.6031 17.4552 12.2814 17.6292 12.0494C17.8032 11.8174 18.0511 11.4113 18.1776 11.1529C18.3042 10.8945 18.4677 10.441 18.5415 10.151C18.6575 9.71328 18.6786 9.50234 18.6839 8.91172C18.6839 8.42129 18.6575 8.06797 18.5942 7.77793C18.5415 7.5459 18.4044 7.1293 18.2937 6.85508C18.1776 6.58086 17.972 6.18535 17.8401 5.98496C17.703 5.78457 17.3814 5.40488 17.1177 5.14121C16.8171 4.8459 16.4743 4.57168 16.2159 4.41875C15.9839 4.27637 15.6148 4.0918 15.3985 4.00742C15.1823 3.91777 14.771 3.79648 14.4862 3.74375C14.1487 3.6752 13.7901 3.64355 13.4315 3.64355C13.1362 3.64883 12.8251 3.66465 12.7355 3.6752C12.6458 3.68574 12.3874 3.74375 12.1554 3.80176Z" fill="#4BA9EF"/>
</svg>
