<svg width="30" height="31" viewBox="0 0 30 31" fill="none" xmlns="http://www.w3.org/2000/svg">
<path d="M26.0742 5.14054C25.8633 5.21671 20.4199 7.30265 13.9746 9.76944C6.56838 12.6112 2.20901 14.3105 2.12112 14.3925C2.04495 14.4628 1.95706 14.6151 1.9219 14.7265C1.88674 14.8437 1.88088 15.0312 1.90432 15.1659C1.92776 15.3124 2.01565 15.4648 2.13284 15.5819C2.28518 15.7343 2.78323 15.9159 5.39065 16.8007C7.82229 17.6269 8.49026 17.8319 8.58401 17.7851C8.64846 17.7558 9.39846 17.2987 10.2539 16.7773C11.1094 16.2499 14.3145 14.2929 17.3731 12.4237C21.6504 9.81632 22.9571 9.04288 23.0274 9.0839C23.0742 9.11905 23.1153 9.19522 23.1153 9.25382C23.1153 9.32413 21.2285 11.0995 17.8008 14.2577C14.877 16.9472 12.4219 19.2148 12.3457 19.2968C12.2051 19.4433 12.1992 19.496 12.0059 22.2323C11.8594 24.2714 11.8242 25.0683 11.8653 25.1913C11.9004 25.2851 12 25.3964 12.0879 25.4316C12.1758 25.4726 12.3047 25.4901 12.3809 25.4667C12.4512 25.4491 13.2774 24.6816 14.209 23.7675C15.1406 22.8534 15.9258 22.1093 15.9551 22.1093C15.9785 22.1093 17.3614 23.1405 19.0313 24.4062C20.6953 25.6718 22.1543 26.7558 22.2656 26.8144C22.4121 26.8905 22.5645 26.914 22.7989 26.9023C23.0274 26.8905 23.1856 26.8437 23.3321 26.7382C23.4492 26.6562 23.6016 26.5097 23.666 26.4159C23.7539 26.287 24.3516 23.6679 25.9571 16.3964C27.1524 10.9823 28.125 6.47061 28.125 6.37686C28.125 6.27726 28.0899 6.09561 28.0547 5.96671C28.0078 5.82608 27.8672 5.61515 27.6856 5.43936C27.5098 5.25772 27.2989 5.1171 27.1582 5.07022C27.0293 5.03507 26.8184 4.99991 26.6895 5.00577C26.5606 5.00577 26.2852 5.06436 26.0742 5.14054Z" fill="#4BA9EF"/>
</svg>
