<svg width="22" height="18" viewBox="0 0 22 18" fill="none" xmlns="http://www.w3.org/2000/svg">
<path fill-rule="evenodd" clip-rule="evenodd" d="M1.50651 7.60165C7.23303 5.09175 11.0609 3.4695 12.9596 2.67368C18.4105 0.408653 19.5435 0.0107422 20.2785 0.0107422C20.4316 0.0107422 20.7991 0.0413509 21.0441 0.225002C21.2278 0.378044 21.289 0.592303 21.3197 0.745345C21.3503 0.898388 21.3809 1.23508 21.3503 1.51056C21.0441 4.60202 19.7885 12.1623 19.1148 15.6211C18.8392 17.0903 18.288 17.58 17.7674 17.6412C16.6343 17.7331 15.7463 16.876 14.6438 16.172C12.9289 15.0395 11.949 14.3355 10.2647 13.2336C8.33546 11.9481 9.59101 11.2441 10.6934 10.1115C10.969 9.80546 16.0219 5.24479 16.1137 4.81628C16.1137 4.75506 16.1444 4.57141 16.0219 4.47958C15.8994 4.38776 15.7463 4.41837 15.6238 4.44897C15.44 4.47958 12.6839 6.31609 7.3249 9.92789C6.5287 10.4788 5.82437 10.7237 5.18128 10.7237C4.47695 10.7237 3.12953 10.3258 2.11897 9.98911C0.894043 9.5912 -0.0858967 9.37694 0.00597264 8.70355C0.097842 8.33625 0.587812 7.96895 1.50651 7.60165Z" fill="white"/>
</svg>
