<svg width="27" height="16" viewBox="0 0 27 16" fill="none" xmlns="http://www.w3.org/2000/svg">
<path d="M25.7893 14.9679C24.8856 15.5351 21.2094 15.7039 20.3196 15.0561C19.8315 14.701 19.3852 14.2563 18.9611 13.8335C18.665 13.5375 18.3281 13.3938 18.0735 13.0728C17.8661 12.8097 17.7234 12.4998 17.5042 12.2411C17.1347 11.8057 16.5654 11.4356 16.1148 11.9673C15.4372 12.7668 16.2218 14.3383 15.3177 14.936C15.0145 15.1367 14.7087 15.1947 14.33 15.1661L13.491 15.2044C12.9979 15.2141 12.2172 15.2184 11.6568 15.117C11.031 15.0041 10.515 14.6615 9.94993 14.41C8.87638 13.9331 7.85325 13.2831 7.07508 12.3826C4.9573 9.93065 2.11248 6.55814 1.00746 3.47516C0.779659 2.84165 0.179942 1.58789 0.748905 1.04432C1.52278 0.481041 5.32242 0.321589 5.91463 1.19338C6.15566 1.54704 6.30729 2.06625 6.47751 2.46721C6.68922 2.96742 6.80437 3.43933 7.13552 3.88221C7.42876 4.27529 7.64547 4.67016 7.87256 5.10122C8.12754 5.58459 8.36785 6.04825 8.6779 6.49365C8.88818 6.79643 9.44427 7.39805 9.79544 7.44319C10.653 7.5532 10.5994 5.46491 10.5357 4.95466C10.4749 4.46341 10.4588 3.94241 10.4749 3.44399C10.4889 3.01902 10.5271 2.42027 10.2757 2.07305C9.86625 1.50691 8.95434 1.9308 8.88282 1.17009C9.03373 0.954023 9.00154 0.762322 10.0079 0.430518C10.8 0.169303 11.3117 0.177544 11.8342 0.219467C12.8999 0.305106 14.0296 0.0159421 15.0577 0.362079C16.0397 0.693525 15.8881 2.09205 15.8552 2.93051C15.8112 4.07535 15.8581 5.19223 15.8552 6.35354C15.8538 6.88278 15.833 7.39697 16.476 7.35433C17.0797 7.31384 17.1408 6.80539 17.4287 6.38543C17.8296 5.8003 18.1969 5.20728 18.6049 4.62393C19.1545 3.83599 19.3201 2.95058 19.8376 2.14329C20.0228 1.85412 20.182 1.22312 20.467 0.994871C20.683 0.822519 21.0928 0.896333 21.3539 0.896333H21.9747C22.4503 0.902067 22.9352 0.908875 23.4234 0.926074C24.1268 0.95044 24.9146 0.797437 25.6123 0.895975C28.622 1.32166 21.8295 7.77249 22.1828 8.92341C22.4274 9.71816 23.9766 10.6086 24.5359 11.26C25.2815 12.1264 27.567 13.8532 25.7893 14.9679Z" fill="white"/>
</svg>
