<svg width="30" height="31" viewBox="0 0 30 31" fill="none" xmlns="http://www.w3.org/2000/svg">
<path fill-rule="evenodd" clip-rule="evenodd" d="M14.9121 2.83788C15.6973 2.83202 16.166 2.86132 16.7578 2.94921C17.1914 3.01366 17.8242 3.13671 18.1641 3.21874C18.5039 3.30663 19.043 3.46483 19.3653 3.57616C19.6875 3.68749 20.2383 3.916 20.5957 4.08592C20.9531 4.25585 21.4805 4.53124 21.7676 4.70702C22.0547 4.8828 22.5586 5.22264 22.8809 5.46288C23.2031 5.70311 23.7539 6.17772 24.1055 6.51757C24.4512 6.85741 24.9434 7.39061 25.1895 7.6953C25.4356 7.99999 25.7871 8.4746 25.9629 8.74999C26.1446 9.02538 26.4258 9.49999 26.5899 9.80467C26.7539 10.1094 27.0059 10.6484 27.1465 11.0058C27.293 11.3633 27.4805 11.873 27.5625 12.1484C27.6446 12.4238 27.7676 12.8984 27.8262 13.2031C27.8906 13.5078 27.9844 14.0469 28.0371 14.4043C28.084 14.7617 28.125 15.4531 28.125 15.9453C28.125 16.5254 28.084 17.123 28.0078 17.668C27.9375 18.1308 27.791 18.8633 27.6797 19.2969C27.5684 19.7305 27.3516 20.3926 27.2051 20.7617C27.0586 21.1308 26.8594 21.5937 26.7598 21.7871C26.666 21.9805 26.4258 22.4023 26.2324 22.7246C26.0391 23.0469 25.6934 23.5566 25.4649 23.8613C25.2364 24.166 24.7735 24.7051 24.4336 25.0566C24.0938 25.4082 23.5781 25.8887 23.291 26.123C23.0039 26.3574 22.5 26.7266 22.1778 26.9433C21.8555 27.1543 21.2461 27.5 20.8301 27.7051C20.4141 27.9101 19.8047 28.1738 19.4824 28.291C19.1602 28.4141 18.5918 28.584 18.2227 28.6777C17.8535 28.7715 17.1914 28.9004 16.7578 28.9648C16.2012 29.0469 15.6739 29.082 14.9883 29.082C14.2207 29.082 13.8047 29.0469 13.1133 28.9355C12.6211 28.8594 11.9297 28.7129 11.5723 28.6191C11.2149 28.5195 10.6758 28.3496 10.3711 28.2324C10.0664 28.1152 9.55081 27.8926 8.6426 27.4414L5.39065 28.2383C3.60354 28.6777 2.07424 29.0469 1.99221 29.0703C1.88088 29.0937 1.85159 29.082 1.88088 29.0176C1.89846 28.9707 2.28518 27.4531 3.54495 22.3555L3.26956 21.8105C3.12307 21.5058 2.93557 21.1016 2.85354 20.9082C2.77737 20.7148 2.6426 20.3574 2.56057 20.1172C2.47854 19.8769 2.34377 19.4141 2.26174 19.0918C2.18557 18.7695 2.06252 18.1426 1.99807 17.7031C1.91604 17.1582 1.87503 16.6015 1.87503 16.0039C1.87503 15.5117 1.91018 14.8203 1.95706 14.4629C2.00393 14.1055 2.09768 13.5547 2.16799 13.2324C2.23245 12.9101 2.35549 12.4238 2.43753 12.1484C2.51956 11.873 2.70706 11.3633 2.85354 11.0058C2.99417 10.6484 3.24612 10.1094 3.41018 9.80467C3.57424 9.49999 3.85549 9.02538 4.03713 8.74999C4.21292 8.4746 4.56448 7.99999 4.81057 7.6953C5.05667 7.39061 5.54299 6.86327 5.90042 6.52342C6.25198 6.18358 6.78518 5.72069 7.08987 5.49217C7.39456 5.26366 7.9512 4.89452 8.32034 4.67186C8.68948 4.44921 9.28128 4.13866 9.6387 3.98046C9.99612 3.82811 10.5469 3.61132 10.8692 3.50585C11.1914 3.40038 11.6426 3.26561 11.8653 3.21288C12.0879 3.16014 12.6328 3.05467 13.0664 2.9785C13.6699 2.87889 14.1035 2.84374 14.9121 2.83788ZM9.43362 10.1211C9.32229 10.2148 9.13479 10.414 9.0176 10.5605C8.90042 10.707 8.72464 10.9941 8.61917 11.1992C8.51956 11.3984 8.40237 11.7265 8.35549 11.9316C8.30862 12.1308 8.25588 12.4531 8.23245 12.6465C8.20901 12.8398 8.22073 13.209 8.25588 13.4668C8.29104 13.7246 8.37893 14.123 8.4551 14.3457C8.53128 14.5742 8.67776 14.9258 8.78323 15.1367C8.8887 15.3476 9.13479 15.7461 9.33401 16.0273C9.53323 16.3086 9.90823 16.7949 10.166 17.1113C10.4239 17.4277 11.0039 18.0547 11.4551 18.5117C11.9063 18.9687 12.5391 19.5488 12.8614 19.8008C13.1836 20.0527 13.6582 20.3984 13.916 20.5625C14.1739 20.7266 14.584 20.9668 14.8242 21.1015C15.0645 21.2305 15.4746 21.4238 15.7324 21.5293C15.9903 21.6348 16.4766 21.793 16.8164 21.8867C17.1563 21.9746 17.7364 22.0801 18.1055 22.1211C18.6153 22.1738 18.8789 22.1738 19.1895 22.1211C19.418 22.0801 19.7461 21.9805 19.9219 21.8984C20.1153 21.8105 20.3906 21.5996 20.5957 21.3887C20.8184 21.1601 21.0293 20.8672 21.1524 20.6152C21.2989 20.3105 21.3574 20.1055 21.375 19.8242C21.3985 19.5254 21.375 19.3906 21.2813 19.209C21.2227 19.0801 21.0762 18.8926 20.9649 18.7988C20.8594 18.7051 20.3321 18.4121 19.8047 18.1543C19.0313 17.7793 18.7793 17.6797 18.5215 17.6621C18.3399 17.6504 18.0879 17.6738 17.959 17.7207C17.8301 17.7617 17.6602 17.8555 17.5781 17.9199C17.4961 17.9902 17.3203 18.2187 17.1914 18.4238C17.0567 18.6289 16.8926 18.8516 16.8164 18.916C16.7344 18.9922 16.6055 19.0332 16.4707 19.0273C16.3535 19.0273 16.0371 18.9336 15.7617 18.8223C15.4864 18.7109 15.041 18.4707 14.7656 18.2949C14.4903 18.1133 14.086 17.8144 13.8633 17.6211C13.6407 17.4336 13.2481 17.0234 12.9961 16.7187C12.7383 16.414 12.3867 15.9336 12.211 15.6523C12.0352 15.3652 11.877 15.0664 11.8594 14.9785C11.8418 14.8848 11.8535 14.75 11.8828 14.668C11.918 14.5859 12.0996 14.3398 12.293 14.1113C12.4922 13.8887 12.6914 13.584 12.7442 13.4375C12.791 13.291 12.8321 13.1094 12.8321 13.0273C12.8321 12.9453 12.7969 12.7754 12.75 12.6465C12.709 12.5176 12.4805 11.9902 12.2461 11.4746C12.0117 10.959 11.7715 10.4726 11.7129 10.3906C11.6543 10.3086 11.4903 10.1797 11.3555 10.1035C11.2149 10.0215 10.9453 9.92186 10.752 9.88085C10.5586 9.83983 10.3242 9.81053 10.2246 9.81053C10.125 9.81053 9.9551 9.83983 9.84378 9.88085C9.72659 9.92186 9.54495 10.0273 9.43362 10.1211Z" fill="#4BA9EF"/>
</svg>
