<svg width="30" height="31" viewBox="0 0 30 31" fill="none" xmlns="http://www.w3.org/2000/svg">
<path fill-rule="evenodd" clip-rule="evenodd" d="M14.707 5.83196C16.0429 5.8261 17.7832 5.84954 18.5742 5.87883C19.3652 5.90813 20.6543 5.96672 21.4453 6.00188C22.2363 6.03118 23.3144 6.10149 23.8476 6.14836C24.3808 6.19524 25.0664 6.27141 25.3711 6.32415C25.6758 6.37688 26.0742 6.47063 26.25 6.53508C26.4258 6.59368 26.666 6.69915 26.7773 6.7636C26.8886 6.83391 27.1113 6.9804 27.2636 7.09758C27.416 7.22063 27.6562 7.46086 27.7968 7.63665C27.9375 7.81243 28.125 8.1054 28.2129 8.28118C28.3008 8.45696 28.4355 8.84368 28.5058 9.13079C28.582 9.4179 28.6816 9.96282 28.7343 10.332C28.7871 10.7011 28.8515 11.2929 28.8867 11.6503C28.916 12.0077 28.9746 13.0448 29.0097 13.9648C29.0566 15.1894 29.0566 16.08 29.0097 17.3046C28.9746 18.2245 28.9043 19.3964 28.8574 19.912C28.8105 20.4277 28.7109 21.1777 28.6465 21.582C28.5761 21.9863 28.459 22.496 28.3828 22.7245C28.3066 22.9531 28.1191 23.3163 27.9668 23.539C27.8086 23.7616 27.5508 24.0605 27.3926 24.2011C27.2343 24.3417 26.8886 24.5644 26.6308 24.6933C26.373 24.8222 25.9804 24.9628 25.7519 25.0097C25.5234 25.0507 24.9843 25.1327 24.5508 25.1796C24.1172 25.2265 23.2851 25.2968 22.7051 25.332C22.125 25.3671 20.9648 25.4198 20.1269 25.455C19.289 25.4843 17.5371 25.5253 16.2304 25.5488C14.789 25.5722 13.0664 25.5546 11.8359 25.5136C10.7226 25.4784 9.23435 25.4198 8.52536 25.3847C7.81638 25.3554 6.90818 25.3027 6.50388 25.2734C6.09958 25.2382 5.46677 25.1738 5.09763 25.1269C4.72849 25.08 4.2656 24.998 4.07224 24.9511C3.87888 24.9042 3.52146 24.7636 3.28122 24.6464C2.97068 24.4941 2.71872 24.3124 2.42575 24.0195C2.11521 23.7089 1.95114 23.4804 1.7695 23.1054C1.58786 22.7363 1.48825 22.4198 1.38278 21.8749C1.30075 21.4706 1.19528 20.7441 1.14841 20.2636C1.10153 19.7773 1.01364 18.5702 0.96091 17.5683C0.878879 16.0273 0.873019 15.5468 0.931613 14.3749C0.972629 13.6191 1.02536 12.6288 1.06052 12.1777C1.08982 11.7265 1.15427 11.0292 1.207 10.6249C1.25388 10.2206 1.35935 9.61711 1.42966 9.27727C1.51755 8.88469 1.64646 8.50383 1.79294 8.22258C1.94528 7.9179 2.15036 7.64836 2.45505 7.34368C2.77146 7.02727 3.02341 6.83977 3.33982 6.68157C3.58005 6.56438 3.96677 6.42961 4.18943 6.38274C4.41208 6.33586 4.96872 6.25383 5.41989 6.20696C5.87107 6.15422 6.65036 6.08977 7.14841 6.05461C7.64646 6.02532 8.9238 5.97258 9.99021 5.93743C11.0566 5.90227 12 5.86711 12.0996 5.8554C12.1992 5.84954 13.3711 5.83196 14.707 5.83196ZM12.1992 19.8827C12.2109 19.8827 13.834 18.957 15.8086 17.8202C17.7832 16.6835 19.4004 15.7284 19.4062 15.6933C19.4062 15.6581 17.7949 14.7031 15.8261 13.5663C13.8574 12.4355 12.2343 11.5038 12.2168 11.5038C12.1992 11.5038 12.1875 13.3906 12.1875 15.6933C12.1875 17.996 12.1933 19.8827 12.1992 19.8827Z" fill="#4BA9EF"/>
</svg>
