<svg width="24" height="24" viewBox="0 0 24 24" fill="none" xmlns="http://www.w3.org/2000/svg">
<g clip-path="url(#clip0_86_3762)">
<path d="M23.9026 11.7488L21.7651 9.38447L22.4345 6.26634C22.4538 6.1756 22.4389 6.0809 22.3924 6.00055C22.346 5.92021 22.2715 5.85992 22.1832 5.83134L19.1476 4.85259L18.1688 1.81697C18.1403 1.72869 18.08 1.65415 17.9996 1.60774C17.9193 1.56133 17.8246 1.54636 17.7338 1.56572L14.6251 2.23509L12.2513 0.0975912C12.1824 0.0354012 12.0929 0.000976563 12.0001 0.000976563C11.9073 0.000976562 11.8177 0.0354012 11.7488 0.0975912L9.38447 2.23509L6.26634 1.56572C6.1756 1.54636 6.0809 1.56133 6.00055 1.60774C5.92021 1.65415 5.85992 1.72869 5.83134 1.81697L4.85259 4.85259L1.81697 5.83134C1.72869 5.85992 1.65415 5.92021 1.60774 6.00055C1.56133 6.0809 1.54636 6.1756 1.56572 6.26634L2.23509 9.38447L0.0975911 11.7488C0.0354012 11.8177 0.000976563 11.9073 0.000976562 12.0001C0.000976563 12.0929 0.0354012 12.1824 0.0975911 12.2513L2.23509 14.6251L1.56572 17.7338C1.54636 17.8246 1.56133 17.9193 1.60774 17.9996C1.65415 18.08 1.72869 18.1403 1.81697 18.1688L4.85259 19.1476L5.83134 22.1832C5.85992 22.2715 5.92021 22.346 6.00055 22.3924C6.0809 22.4389 6.1756 22.4538 6.26634 22.4345L9.38447 21.7651L11.7488 23.9026C11.8177 23.9648 11.9073 23.9992 12.0001 23.9992C12.0929 23.9992 12.1824 23.9648 12.2513 23.9026L14.6251 21.7651L17.7432 22.4345C17.834 22.4538 17.9287 22.4389 18.009 22.3924C18.0893 22.346 18.1496 22.2715 18.1782 22.1832L19.157 19.1476L22.1926 18.1688C22.2809 18.1403 22.3554 18.08 22.4018 17.9996C22.4482 17.9193 22.4632 17.8246 22.4438 17.7338L21.7651 14.6251L23.9026 12.2607C23.9674 12.1913 24.0035 12.0998 24.0035 12.0048C24.0035 11.9098 23.9674 11.8183 23.9026 11.7488ZM21.0788 14.2501C21.0391 14.2942 21.0103 14.3471 20.995 14.4045C20.9797 14.4618 20.9782 14.522 20.9907 14.5801L21.6301 17.5538L18.7351 18.4913C18.6785 18.5096 18.627 18.541 18.585 18.5831C18.5429 18.6252 18.5115 18.6766 18.4932 18.7332L17.5557 21.6282L14.5857 21.0001C14.5277 20.9876 14.4675 20.9891 14.4101 21.0044C14.3527 21.0197 14.2998 21.0485 14.2557 21.0882L12.0001 23.1188L9.75009 21.0788C9.68104 21.017 9.59153 20.9829 9.49884 20.9832C9.47266 20.9805 9.44627 20.9805 9.42009 20.9832L6.44634 21.6226L5.50884 18.7276C5.49059 18.671 5.45915 18.6195 5.41709 18.5775C5.37503 18.5354 5.32358 18.504 5.26697 18.4857L2.37197 17.5482L3.01134 14.5745C3.02266 14.5171 3.02041 14.4579 3.00478 14.4016C2.98916 14.3453 2.96058 14.2934 2.92134 14.2501L0.881341 12.0001L2.92134 9.75009C2.96111 9.70599 2.98984 9.65308 3.00516 9.59571C3.02048 9.53834 3.02195 9.47815 3.00947 9.42009L2.37009 6.44072L5.26509 5.50322C5.3217 5.48497 5.37316 5.45352 5.41521 5.41146C5.45727 5.36941 5.48872 5.31795 5.50697 5.26134L6.44447 2.36634L9.41822 3.00572C9.47626 3.01901 9.53664 3.01829 9.59435 3.00362C9.65206 2.98895 9.70545 2.96074 9.75009 2.92134L12.0001 0.881341L14.2501 2.92134C14.2942 2.96111 14.3471 2.98984 14.4045 3.00516C14.4618 3.02048 14.522 3.02195 14.5801 3.00947L17.5538 2.37009L18.4913 5.26509C18.5096 5.3217 18.541 5.37316 18.5831 5.41521C18.6251 5.45727 18.6766 5.48872 18.7332 5.50697L21.6282 6.44447L21.0001 9.41447C20.9876 9.47252 20.9891 9.53271 21.0044 9.59008C21.0197 9.64745 21.0484 9.70037 21.0882 9.74447L23.1188 12.0001L21.0788 14.2501Z" fill="#fff"/>
<path d="M8.46188 10.3538C8.83573 10.3523 9.20076 10.2401 9.51089 10.0313C9.82102 9.82255 10.0623 9.52656 10.2044 9.18074C10.3464 8.83491 10.3828 8.45476 10.309 8.08827C10.2351 7.72177 10.0544 7.38538 9.78948 7.12154C9.5246 6.85771 9.18749 6.67827 8.82071 6.60588C8.45393 6.53348 8.07392 6.57138 7.72866 6.71479C7.38341 6.8582 7.08838 7.10069 6.88083 7.41164C6.67327 7.7226 6.5625 8.08807 6.5625 8.46193C6.56299 8.71087 6.61251 8.95727 6.70823 9.18707C6.80395 9.41687 6.94399 9.62556 7.12037 9.80124C7.29674 9.97692 7.50599 10.1161 7.73616 10.2109C7.96634 10.3058 8.21294 10.3543 8.46188 10.3538ZM8.46188 7.32005C8.68739 7.32154 8.90742 7.38976 9.09421 7.51613C9.281 7.6425 9.42619 7.82135 9.51147 8.03012C9.59674 8.2389 9.61829 8.46825 9.57339 8.68926C9.52848 8.91027 9.41914 9.11303 9.25916 9.27197C9.09917 9.43092 8.89569 9.53893 8.6744 9.58238C8.4531 9.62584 8.2239 9.60279 8.01568 9.51615C7.80747 9.42951 7.62957 9.28315 7.50443 9.09553C7.37929 8.90792 7.3125 8.68745 7.3125 8.46193C7.3115 8.31071 7.34055 8.16081 7.39796 8.02091C7.45537 7.88101 7.53999 7.75391 7.64692 7.64698C7.75385 7.54005 7.88095 7.45542 8.02085 7.39802C8.16075 7.34061 8.31066 7.31156 8.46188 7.31255V7.32005ZM15.5381 13.6463C15.1643 13.6478 14.7992 13.76 14.4891 13.9688C14.179 14.1776 13.9377 14.4735 13.7956 14.8194C13.6536 15.1652 13.6172 15.5453 13.691 15.9118C13.7649 16.2783 13.9456 16.6147 14.2105 16.8786C14.4754 17.1424 14.8125 17.3218 15.1793 17.3942C15.5461 17.4666 15.9261 17.4287 16.2713 17.2853C16.6166 17.1419 16.9116 16.8994 17.1192 16.5885C17.3267 16.2775 17.4375 15.912 17.4375 15.5382C17.437 15.2892 17.3875 15.0428 17.2918 14.813C17.1961 14.5832 17.056 14.3745 16.8796 14.1989C16.7033 14.0232 16.494 13.884 16.2638 13.7892C16.0337 13.6944 15.7871 13.6458 15.5381 13.6463ZM15.5381 16.6801C15.3126 16.6786 15.0926 16.6103 14.9058 16.484C14.719 16.3576 14.5738 16.1788 14.4885 15.97C14.4033 15.7612 14.3817 15.5319 14.4266 15.3108C14.4715 15.0898 14.5809 14.8871 14.7408 14.7281C14.9008 14.5692 15.1043 14.4612 15.3256 14.4177C15.5469 14.3743 15.7761 14.3973 15.9843 14.484C16.1925 14.5706 16.3704 14.717 16.4956 14.9046C16.6207 15.0922 16.6875 15.3127 16.6875 15.5382C16.6885 15.6894 16.6594 15.8393 16.602 15.9792C16.5446 16.1191 16.46 16.2462 16.3531 16.3531C16.2461 16.4601 16.119 16.5447 15.9791 16.6021C15.8392 16.6595 15.6893 16.6885 15.5381 16.6876V16.6801ZM16.8131 7.18693C16.7429 7.11709 16.6478 7.07788 16.5487 7.07788C16.4497 7.07788 16.3546 7.11709 16.2844 7.18693L7.18688 16.2844C7.11703 16.3547 7.07783 16.4497 7.07783 16.5488C7.07783 16.6479 7.11703 16.7429 7.18688 16.8132C7.25714 16.883 7.35218 16.9222 7.45125 16.9222C7.55032 16.9222 7.64536 16.883 7.71563 16.8132L16.8131 7.71568C16.883 7.64542 16.9222 7.55037 16.9222 7.4513C16.9222 7.35224 16.883 7.25719 16.8131 7.18693Z" fill="#fff"/>
</g>
<defs>
<clipPath id="clip0_86_3762">
<rect width="24" height="24" fill="white"/>
</clipPath>
</defs>
</svg>
