<svg width="24" height="24" viewBox="0 0 24 24" fill="none" xmlns="http://www.w3.org/2000/svg">
<g clip-path="url(#clip0_86_3754)">
<path d="M9.93992 5.22391H16.1652C16.4484 5.22391 16.678 4.99427 16.678 4.71109C16.678 4.42791 16.4484 4.19827 16.1652 4.19827H9.93992C9.65669 4.19827 9.4271 4.42791 9.4271 4.71109C9.4271 4.99427 9.65669 5.22391 9.93992 5.22391ZM9.93992 9.67688H16.1652C16.4484 9.67688 16.678 9.44724 16.678 9.16406C16.678 8.88088 16.4484 8.65124 16.1652 8.65124H9.93992C9.65669 8.65124 9.4271 8.88088 9.4271 9.16406C9.4271 9.44724 9.65669 9.67688 9.93992 9.67688ZM7.52623 3.38057L5.82074 4.99668L5.11546 4.29986C4.91402 4.10078 4.58931 4.10278 4.39023 4.30421C4.19115 4.5057 4.1931 4.83037 4.39459 5.02945L5.45279 6.07504C5.68951 6.26991 5.92725 6.27237 6.16597 6.08252L8.23166 4.12514C8.43725 3.93032 8.44602 3.60575 8.2512 3.40016C8.05633 3.19442 7.73177 3.1858 7.52623 3.38057ZM7.52623 8.07822L5.82074 9.69432L5.11551 8.9975C4.91407 8.79842 4.58936 8.80037 4.39028 9.00186C4.1912 9.20334 4.19315 9.52801 4.39464 9.72709L5.45284 10.7727C5.68956 10.9675 5.92731 10.97 6.16602 10.7802L8.23172 8.82278C8.43731 8.62796 8.44608 8.3034 8.25125 8.09781C8.05633 7.89222 7.73177 7.8835 7.52623 8.07822ZM7.52623 12.5312L5.82074 14.1473L5.11551 13.4505C4.91402 13.2514 4.58936 13.2534 4.39028 13.4549C4.19125 13.6564 4.1932 13.9811 4.39464 14.1801L5.45284 15.2257C5.68956 15.4205 5.92731 15.423 6.16602 15.2331L8.23172 13.2758C8.43731 13.0809 8.44608 12.7564 8.25125 12.5508C8.05633 12.3451 7.73177 12.3364 7.52623 12.5312Z" fill="#fff"/>
<path d="M24 14.7803C24 14.4971 23.7704 14.2675 23.4872 14.2675C23.2039 14.2675 22.9744 14.4971 22.9744 14.7803C22.9744 16.7506 21.3547 18.3535 19.3638 18.3535C17.373 18.3535 15.7533 16.7506 15.7533 14.7803C15.7533 12.8101 17.373 11.2072 19.3638 11.2072C20.2361 11.2072 21.0648 11.5178 21.7113 12.0655L21.2362 12.0692C20.953 12.0714 20.7252 12.3027 20.7274 12.5859C20.7295 12.8678 20.9587 13.0948 21.2401 13.0948H21.2442L22.8023 13.0828C23.0821 13.0806 23.3085 12.8546 23.3111 12.5749L23.326 11.0141C23.3287 10.7308 23.1013 10.499 22.8181 10.4963H22.8131C22.5322 10.4963 22.3031 10.7227 22.3004 11.0042L22.2984 11.2202C21.5546 10.6173 20.643 10.2586 19.6878 10.193V1.9911C19.6878 1.14279 18.9977 0.452637 18.1494 0.452637H3.44313C2.59626 0.452637 1.9061 1.14161 1.90467 1.98838L1.87467 19.0812H0.512821C0.22959 19.0812 0 19.3108 0 19.594V21.1874C0 22.4887 1.06041 23.5475 2.3639 23.5475H17.2007C18.5148 23.5475 19.6878 22.5398 19.6878 21.1684V19.3677C22.0936 19.2022 24 17.2081 24 14.7803ZM1.02564 21.1874V20.1068H15.0729C15.0243 20.8994 15.0198 21.8422 15.4824 22.5219H2.3639C1.626 22.5219 1.02564 21.9232 1.02564 21.1874ZM17.305 22.5219C16.6885 22.5219 16.0986 21.7577 16.0986 21.2029V19.5939C16.0986 19.3107 15.869 19.0811 15.5858 19.0811L15.5848 19.0812H2.90031L2.93031 1.99023C2.93077 1.70792 3.16087 1.47833 3.44313 1.47833H18.1493C18.4321 1.47833 18.6622 1.70838 18.6622 1.99115V10.2342C17.0095 10.4841 15.641 11.6028 15.0466 13.1042H9.91159C9.62836 13.1042 9.39877 13.3339 9.39877 13.617C9.39877 13.9002 9.62836 14.1299 9.91159 14.1299H14.7743C14.7433 14.3453 14.7278 14.5627 14.7277 14.7804C14.7277 17.0796 16.4375 18.9901 18.6622 19.3266V21.1685C18.6622 21.9147 18.0533 22.5219 17.305 22.5219Z" fill="#fff"/>
<path d="M19.3634 12.3906C19.0802 12.3906 18.8506 12.6203 18.8506 12.9034V14.7856C18.8506 14.9218 18.9048 15.0524 19.0012 15.1486L20.261 16.4059C20.5028 16.6059 20.7446 16.6057 20.9863 16.4051C21.1863 16.2046 21.186 15.88 20.9855 15.6799L19.8762 14.5728V12.9034C19.8762 12.6203 19.6466 12.3906 19.3634 12.3906Z" fill="#fff"/>
</g>
<defs>
<clipPath id="clip0_86_3754">
<rect width="24" height="24" fill="white"/>
</clipPath>
</defs>
</svg>
