<svg width="24" height="24" viewBox="0 0 24 24" fill="none" xmlns="http://www.w3.org/2000/svg">
<path d="M12 3C9.71387 3.00432 7.51506 3.87848 5.85 5.445V3.945C5.85 3.74609 5.77098 3.55532 5.63033 3.41467C5.48968 3.27402 5.29891 3.195 5.1 3.195C4.90109 3.195 4.71032 3.27402 4.56967 3.41467C4.42902 3.55532 4.35 3.74609 4.35 3.945V7.3125C4.35 7.51141 4.42902 7.70218 4.56967 7.84283C4.71032 7.98348 4.90109 8.0625 5.1 8.0625H8.4675C8.66641 8.0625 8.85718 7.98348 8.99783 7.84283C9.13848 7.70218 9.2175 7.51141 9.2175 7.3125C9.2175 7.11359 9.13848 6.92282 8.99783 6.78217C8.85718 6.64152 8.66641 6.5625 8.4675 6.5625H6.8475C8.1022 5.37628 9.72777 4.65932 11.4498 4.53265C13.1718 4.40598 14.8848 4.87736 16.2996 5.86722C17.7143 6.85708 18.7442 8.30479 19.2154 9.96593C19.6865 11.6271 19.5701 13.3999 18.8857 14.9852C18.2013 16.5704 16.9909 17.871 15.4588 18.6673C13.9267 19.4636 12.1668 19.7068 10.4761 19.356C8.78548 19.0052 7.26765 18.0817 6.1789 16.7416C5.09014 15.4014 4.49714 13.7267 4.5 12C4.5 11.8011 4.42098 11.6103 4.28033 11.4697C4.13968 11.329 3.94891 11.25 3.75 11.25C3.55109 11.25 3.36032 11.329 3.21967 11.4697C3.07902 11.6103 3 11.8011 3 12C3 13.78 3.52784 15.5201 4.51677 17.0001C5.50571 18.4802 6.91131 19.6337 8.55585 20.3149C10.2004 20.9961 12.01 21.1743 13.7558 20.8271C15.5016 20.4798 17.1053 19.6226 18.364 18.364C19.6226 17.1053 20.4798 15.5016 20.8271 13.7558C21.1743 12.01 20.9961 10.2004 20.3149 8.55585C19.6337 6.91131 18.4802 5.50571 17.0001 4.51677C15.5201 3.52784 13.78 3 12 3Z" fill="#4BA9EF"/>
<path d="M12.0002 8.25C11.8012 8.25 11.6105 8.32902 11.4698 8.46967C11.3292 8.61032 11.2502 8.80109 11.2502 9V12.8475C11.2466 13.023 11.3047 13.1941 11.4143 13.3311C11.524 13.4682 11.6782 13.5624 11.8502 13.5975L15.8477 14.4H15.9977C16.1966 14.4199 16.3952 14.36 16.55 14.2334C16.7047 14.1068 16.8028 13.9239 16.8227 13.725C16.8425 13.5261 16.7826 13.3274 16.656 13.1727C16.5294 13.018 16.3466 12.9199 16.1477 12.9L12.7502 12.2325V9C12.7502 8.80109 12.6711 8.61032 12.5305 8.46967C12.3898 8.32902 12.1991 8.25 12.0002 8.25Z" fill="#4BA9EF"/>
</svg>
