<svg width="24" height="24" viewBox="0 0 24 24" fill="none" xmlns="http://www.w3.org/2000/svg">
<g clip-path="url(#clip0_86_5474)">
<path fill-rule="evenodd" clip-rule="evenodd" d="M21.2018 0.00925905C21.3424 -0.000115954 21.3939 0.028009 21.4783 0.131134C21.5393 0.206134 21.9518 1.00301 22.4018 1.90301C23.0627 3.23426 23.208 3.56238 23.1846 3.66551C23.1705 3.74051 23.1096 3.83895 23.0486 3.89051C22.9924 3.94207 22.8893 3.98426 22.8143 3.98426C22.7439 3.98426 22.6455 3.96082 22.5939 3.93738C22.5377 3.90926 22.2658 3.42176 21.8908 2.6577C21.5533 1.9827 21.2721 1.43895 21.2627 1.45301C21.2533 1.46707 21.0752 1.97332 20.8596 2.57801C20.6486 3.1827 20.3674 3.94207 20.2408 4.26551C20.1096 4.58895 19.8189 5.23113 19.5939 5.6952C19.3643 6.15926 19.0221 6.80145 18.8299 7.12488C18.6424 7.44832 18.3518 7.91238 18.1877 8.15613C18.0236 8.39988 17.7143 8.8452 17.4939 9.14051C17.2736 9.43582 16.9971 9.79676 16.8799 9.93738C16.7627 10.078 16.4299 10.4577 16.1439 10.7811C15.858 11.1046 15.3939 11.5874 15.1127 11.8546C14.8314 12.1264 14.3908 12.5249 14.133 12.7452C13.8752 12.9702 13.4111 13.3405 13.1018 13.5749C12.7924 13.8093 12.3096 14.1561 12.0236 14.3436C11.7377 14.5358 11.2643 14.8358 10.9689 15.0139C10.6736 15.1921 10.0268 15.5343 9.53926 15.7733C9.04707 16.0171 8.36269 16.3264 8.01582 16.4671C7.66894 16.6077 7.02207 16.8374 6.58613 16.9827C6.14551 17.1233 5.53613 17.3061 5.22676 17.3858C4.91738 17.4608 4.34551 17.5874 3.96113 17.6671C3.57207 17.7421 2.89707 17.8499 2.46113 17.9061C2.02051 17.9577 1.65957 17.9952 1.6502 17.9905C1.64551 17.9811 1.62207 17.803 1.57051 17.2077L1.82832 17.1796C1.96895 17.1608 2.38145 17.1093 2.74238 17.0577C3.10332 17.0061 3.66113 16.9124 3.98457 16.8468C4.30801 16.7811 4.8752 16.6452 5.2502 16.5468C5.6252 16.4436 6.24395 16.2561 6.63301 16.1249C7.01738 15.9889 7.56582 15.7874 7.85176 15.6702C8.13301 15.5577 8.72363 15.2858 9.16426 15.0702C9.60019 14.8546 10.2658 14.4983 10.6408 14.2733C11.0158 14.0483 11.5736 13.6874 11.883 13.4718C12.1924 13.2561 12.6893 12.8858 12.9939 12.6468C13.2939 12.4077 13.7955 11.9811 14.1143 11.6952C14.4283 11.4093 14.9627 10.8843 15.2955 10.5233C15.633 10.1624 16.1111 9.61395 16.3549 9.30457C16.6033 8.9952 16.9549 8.53113 17.1377 8.27332C17.3205 8.01551 17.6299 7.55145 17.8221 7.24207C18.0143 6.9327 18.3049 6.43582 18.4689 6.14051C18.633 5.8452 18.8721 5.38113 18.9986 5.10926C19.1252 4.83738 19.3221 4.38738 19.4393 4.10145C19.5564 3.8202 19.8377 3.06082 20.0674 2.41395C20.2971 1.77176 20.4752 1.23738 20.4705 1.22801C20.4658 1.21863 19.9268 1.48113 19.2752 1.80457C18.6283 2.12801 18.0471 2.39051 17.9861 2.39051C17.9299 2.3952 17.8268 2.35301 17.7518 2.29676C17.6533 2.22645 17.6252 2.16551 17.6252 2.02957C17.6252 1.93113 17.6486 1.81395 17.6814 1.76707C17.7143 1.7202 18.4783 1.3077 19.383 0.848322C20.5596 0.248322 21.0752 0.0139465 21.1971 0.00925905H21.2018ZM0.00488281 23.203H24.0049V23.9999H0.00488281V23.203ZM2.02051 2.39051L7.2002 2.41395L7.22363 3.18738H2.02051V2.39051ZM2.02051 3.98426L7.2002 4.0077L7.22363 4.78113H2.02051V3.98426ZM2.02051 5.57801H5.58301V6.42176H2.02051V5.57801ZM2.02051 7.21863H5.58301V8.01551H2.02051V7.21863ZM20.9908 7.59832C22.0174 7.59363 22.4861 7.61238 22.5611 7.64988C22.6221 7.67801 22.6924 7.73895 22.7252 7.77645C22.7674 7.83738 22.7814 9.45457 22.7814 14.9999C22.7814 20.5499 22.7674 22.1671 22.7252 22.2233C22.6924 22.2655 22.6221 22.3218 22.5611 22.3546C22.4861 22.3921 22.0174 22.4061 21.0049 22.4061C19.9924 22.4061 19.5189 22.3921 19.4439 22.3546C19.3877 22.3218 19.3127 22.2655 19.2799 22.2233C19.2377 22.1671 19.2236 20.5499 19.2236 14.9999C19.2236 9.45457 19.2377 7.83738 19.2799 7.78113C19.3127 7.73895 19.383 7.6827 19.4346 7.64988C19.4955 7.61238 19.9783 7.59832 20.9908 7.59832ZM20.0205 21.6093H21.9893V8.39051H20.0205V21.6093ZM15.0471 13.2186H18.1689L18.4033 13.4624L18.4127 17.6905C18.4221 20.3858 18.408 21.9796 18.3799 22.0921C18.3471 22.2139 18.2908 22.2889 18.1924 22.3358C18.0752 22.3968 17.7939 22.4061 16.5986 22.4061C15.5861 22.4061 15.1127 22.3921 15.0377 22.3546C14.9814 22.3218 14.9064 22.2655 14.8736 22.2233C14.8314 22.1671 14.8174 21.1499 14.8221 13.4483L15.0471 13.2186ZM15.6096 21.6093H17.5783V14.0155H15.6096V21.6093ZM12.2018 15.9936C13.2564 15.9889 13.6314 16.003 13.7486 16.0499C13.8518 16.0921 13.9174 16.1624 13.9596 16.2702C14.0064 16.3921 14.0205 17.0811 14.0205 19.2093C14.0205 21.403 14.0064 22.0171 13.9549 22.1389C13.9221 22.228 13.8377 22.3171 13.758 22.3499C13.6549 22.3968 13.2611 22.4061 10.6361 22.3827L10.4064 22.1249V19.2093C10.4064 16.3264 10.4064 16.2889 10.5049 16.1671C10.5564 16.0968 10.6455 16.0311 10.7018 16.0171C10.7627 16.0077 11.433 15.9983 12.2018 15.9936ZM11.2033 21.6093L13.1955 21.5858V16.8046L11.208 16.7811L11.2033 21.6093ZM6.27207 17.9999H9.32832L9.58613 18.2249V22.1671L9.37051 22.3827H6.22519L6.0002 22.1249L6.00488 18.2718L6.27207 17.9999ZM6.79707 21.6093H8.81269V18.7968H6.79707V21.6093ZM3.40801 19.2186C4.90801 19.2186 4.97363 19.2233 5.0627 19.3124C5.11426 19.3639 5.16582 19.4577 5.17988 19.5139C5.19395 19.5702 5.20332 20.1936 5.19395 20.8968C5.17988 22.153 5.17988 22.1718 4.96426 22.3827H1.83301L1.7252 22.2796C1.61738 22.1718 1.61738 22.153 1.60332 20.8968C1.59395 20.1936 1.59863 19.5702 1.6127 19.5139C1.62676 19.4577 1.6877 19.3639 1.74395 19.3124C1.84238 19.2233 1.9127 19.2186 3.40801 19.2186ZM2.39082 21.6093H4.40645V20.0155H2.39082V21.6093Z" fill="#fff"/>
</g>
<defs>
<clipPath id="clip0_86_5474">
<rect width="24" height="24" fill="white"/>
</clipPath>
</defs>
</svg>
