<svg width="25" height="25" viewBox="0 0 25 25" fill="none" xmlns="http://www.w3.org/2000/svg">
<path d="M11.5781 2.5C10.9814 2.5 10.4091 2.73705 9.98713 3.15901C9.56518 3.58097 9.32812 4.15326 9.32812 4.75V6.628C9.44812 6.70933 9.56212 6.80333 9.67013 6.91L10.8281 8.069V4.75C10.8281 4.55109 10.9071 4.36032 11.0478 4.21967C11.1884 4.07902 11.3792 4 11.5781 4H17.5781C17.777 4 17.9678 4.07902 18.1085 4.21967C18.2491 4.36032 18.3281 4.55109 18.3281 4.75V20.25C18.3281 20.4489 18.2491 20.6397 18.1085 20.7803C17.9678 20.921 17.777 21 17.5781 21H11.5781C11.3792 21 11.1884 20.921 11.0478 20.7803C10.9071 20.6397 10.8281 20.4489 10.8281 20.25V16.931L9.67013 18.091C9.56346 18.1977 9.44946 18.291 9.32812 18.371V20.25C9.32812 20.8467 9.56518 21.419 9.98713 21.841C10.4091 22.2629 10.9814 22.5 11.5781 22.5H17.5781C18.1749 22.5 18.7472 22.2629 19.1691 21.841C19.5911 21.419 19.8281 20.8467 19.8281 20.25V4.75C19.8281 4.15326 19.5911 3.58097 19.1691 3.15901C18.7472 2.73705 18.1749 2.5 17.5781 2.5H11.5781Z" fill="#4BA9EF"/>
<path d="M3.57812 12.5001C3.57812 12.7261 3.67812 12.9281 3.83612 13.0661L7.79712 17.0301C7.86628 17.1018 7.94901 17.1589 8.04049 17.1983C8.13198 17.2376 8.23038 17.2584 8.32996 17.2593C8.42955 17.2602 8.52832 17.2413 8.62051 17.2036C8.7127 17.1659 8.79646 17.1103 8.86691 17.0399C8.93737 16.9695 8.9931 16.8858 9.03085 16.7936C9.0686 16.7015 9.08763 16.6027 9.08681 16.5031C9.08599 16.4036 9.06535 16.3051 9.02608 16.2136C8.98682 16.1221 8.92972 16.0393 8.85812 15.9701L6.14012 13.2501H12.0781C12.277 13.2501 12.4678 13.1711 12.6085 13.0304C12.7491 12.8898 12.8281 12.699 12.8281 12.5001C12.8281 12.3012 12.7491 12.1104 12.6085 11.9698C12.4678 11.8291 12.277 11.7501 12.0781 11.7501H6.14012L8.85812 9.03009C8.9906 8.88792 9.06273 8.69987 9.0593 8.50557C9.05587 8.31127 8.97716 8.12588 8.83975 7.98847C8.70233 7.85106 8.51695 7.77234 8.32265 7.76892C8.12835 7.76549 7.9403 7.83761 7.79812 7.97009L3.83413 11.9361C3.75375 12.0064 3.68933 12.0932 3.64518 12.1904C3.60103 12.2877 3.57817 12.3933 3.57812 12.5001Z" fill="#4BA9EF"/>
</svg>
