<svg width="24" height="24" viewBox="0 0 24 24" fill="none" xmlns="http://www.w3.org/2000/svg">
<g clip-path="url(#clip0_86_3849)">
<path d="M23.5312 11.9224H23.25V5.5474C23.25 4.55056 22.468 3.7332 21.4852 3.67592L21.0037 1.68678C20.8579 1.08457 20.2493 0.713228 19.6472 0.859103L7.97203 3.68553C7.9404 3.67692 7.90778 3.67251 7.875 3.6724H1.875C0.841125 3.6724 0 4.51353 0 5.5474V21.2974C0 22.3313 0.841125 23.1724 1.875 23.1724H21.375C22.4089 23.1724 23.25 22.3313 23.25 21.2974V17.9224H23.5312C23.7897 17.9224 24 17.7121 24 17.4536V12.3911C24 12.1327 23.7897 11.9224 23.5312 11.9224ZM22.5 5.5474V5.5482C22.3095 5.4048 22.0933 5.29918 21.8632 5.23704L21.6759 4.4636C22.1505 4.59556 22.5 5.03131 22.5 5.5474ZM1.875 4.4224H4.92825L1.80023 5.17967C1.79827 5.18004 1.79639 5.18065 1.79447 5.18107L1.78673 5.18295C1.78575 5.18318 1.78477 5.18356 1.78378 5.18384C1.773 5.18651 1.76245 5.18965 1.75205 5.19321L1.74656 5.19523C1.73697 5.19871 1.72753 5.20257 1.71825 5.20681L1.71052 5.21051C1.67682 5.22683 1.64583 5.24823 1.61864 5.27398C1.60999 5.28216 1.6017 5.29071 1.5938 5.29962C1.55685 5.34154 1.52973 5.39119 1.51444 5.44493C1.513 5.45003 1.51169 5.45515 1.5105 5.46031C1.50897 5.46658 1.50761 5.4729 1.50642 5.47924C1.5052 5.48571 1.50431 5.49228 1.50342 5.49879C1.50269 5.50412 1.50208 5.50947 1.50159 5.51482C1.50097 5.52246 1.50058 5.53012 1.50042 5.53779C1.50033 5.54088 1.49995 5.54393 1.49995 5.54707C1.49995 5.54885 1.50019 5.55054 1.50023 5.55232C1.50033 5.55978 1.5008 5.56723 1.50136 5.57478C1.50178 5.58026 1.50216 5.58574 1.50277 5.59118C1.50352 5.59742 1.50455 5.60365 1.50563 5.60993C1.50675 5.61649 1.50788 5.62306 1.50933 5.62953C1.5098 5.63154 1.50998 5.63356 1.51045 5.63557C1.51134 5.63913 1.51261 5.64251 1.51355 5.64603C1.51533 5.65263 1.5172 5.6592 1.51936 5.66567C1.52133 5.67157 1.52348 5.67734 1.52573 5.68306C1.53035 5.69525 1.5357 5.70714 1.54177 5.71868C1.54383 5.72267 1.54589 5.7267 1.54809 5.73059C1.55217 5.73785 1.55648 5.74488 1.56098 5.75182L1.56666 5.76035C1.57872 5.77782 1.59227 5.79421 1.60716 5.80934C1.60889 5.81112 1.61062 5.8129 1.61245 5.81463C1.62968 5.8316 1.64854 5.84683 1.66875 5.8601C1.67881 5.86671 1.68916 5.87286 1.69978 5.87853C1.70812 5.88293 1.71666 5.88701 1.72533 5.89081C1.72763 5.89179 1.72992 5.89282 1.73227 5.89376C1.7415 5.8976 1.75087 5.90098 1.76044 5.90407L1.76592 5.90581C1.77638 5.90899 1.78692 5.91171 1.79766 5.91396L1.8007 5.91462C1.82505 5.91954 1.84983 5.92204 1.87467 5.92207H1.87594C1.88063 5.92207 1.88522 5.92226 1.88991 5.92207H19.5C19.5995 5.92207 19.6948 5.88256 19.7652 5.81224C19.8355 5.74191 19.875 5.64653 19.875 5.54707C19.875 5.44762 19.8355 5.35223 19.7652 5.28191C19.6948 5.21158 19.5995 5.17207 19.5 5.17207H5.01867L19.8237 1.58801C20.024 1.5394 20.2263 1.66301 20.2747 1.86326L21.0758 5.17217H21.0002C20.9007 5.17217 20.8053 5.21167 20.735 5.282C20.6647 5.35233 20.6252 5.44771 20.6252 5.54717C20.6252 5.64662 20.6647 5.742 20.735 5.81233C20.8053 5.88266 20.9007 5.92217 21.0002 5.92217H21.375C21.4127 5.92217 21.45 5.92413 21.4868 5.92774C21.5014 5.93046 21.5161 5.93224 21.531 5.93323C22.0778 6.00945 22.5 6.47979 22.5 7.04717V7.04843C22.1759 6.804 21.7809 6.67198 21.375 6.6724H1.875C1.25466 6.6724 0.75 6.1677 0.75 5.5474C0.75 4.9271 1.2547 4.4224 1.875 4.4224ZM22.5 21.2974C22.5 21.9177 21.9953 22.4224 21.375 22.4224H1.875C1.25466 22.4224 0.75 21.9177 0.75 21.2974V7.04637C1.07409 7.2908 1.46907 7.42282 1.875 7.4224H21.375C21.9953 7.4224 22.5 7.9271 22.5 8.5474V11.9224H17.0157C16.7314 11.9224 16.5 12.1538 16.5 12.4381V17.4067C16.5 17.691 16.7314 17.9224 17.0157 17.9224H22.5V21.2974ZM23.25 17.1724H17.25V12.6724H22.8696C22.8714 12.6724 22.8732 12.6727 22.875 12.6727C22.8768 12.6727 22.8786 12.6724 22.8804 12.6724H23.25V17.1724Z" fill="white"/>
<path d="M20.25 14.5474C20.1505 14.5474 20.0552 14.5869 19.9848 14.6572C19.9145 14.7275 19.875 14.8229 19.875 14.9224C19.875 15.1291 19.7068 15.2974 19.5 15.2974C19.2932 15.2974 19.125 15.1291 19.125 14.9224C19.125 14.7156 19.2932 14.5474 19.5 14.5474C19.5995 14.5474 19.6948 14.5079 19.7652 14.4375C19.8355 14.3672 19.875 14.2718 19.875 14.1724C19.875 14.0729 19.8355 13.9775 19.7652 13.9072C19.6948 13.8369 19.5995 13.7974 19.5 13.7974C18.8797 13.7974 18.375 14.3021 18.375 14.9224C18.375 15.5427 18.8797 16.0474 19.5 16.0474C20.1203 16.0474 20.625 15.5427 20.625 14.9224C20.625 14.8229 20.5855 14.7275 20.5152 14.6572C20.4448 14.5869 20.3495 14.5474 20.25 14.5474Z" fill="white"/>
</g>
<defs>
<clipPath id="clip0_86_3849">
<rect width="24" height="24" fill="white"/>
</clipPath>
</defs>
</svg>
