<svg width="24" height="24" viewBox="0 0 24 24" fill="none" xmlns="http://www.w3.org/2000/svg">
<path d="M23.3831 7.79727L16.2029 0.617086C15.3804 -0.205417 14.0421 -0.205323 13.2197 0.617086L4.20988 9.62692H2.10946C0.946304 9.62692 0 10.5732 0 11.7364V21.8907C0 23.0539 0.946304 24.0002 2.10946 24.0002H18.2642C19.4273 24.0002 20.3736 23.0539 20.3736 21.8907V13.7899L23.3831 10.7805C24.2056 9.95802 24.2056 8.61977 23.3831 7.79727ZM14.2141 1.61149C14.3512 1.47442 14.5313 1.40584 14.7113 1.40584C14.8914 1.40584 15.0714 1.47442 15.2085 1.61149L18.9083 5.31125L14.5926 9.62692H6.19863L14.2141 1.61149ZM18.9673 21.8907C18.9673 22.2784 18.6519 22.5939 18.2642 22.5939H2.10946C1.72174 22.5939 1.40631 22.2784 1.40631 21.8907V11.7364C1.40631 11.3487 1.72174 11.0332 2.10946 11.0332H18.2642C18.6519 11.0332 18.9673 11.3487 18.9673 11.7364V21.8907ZM18.5503 9.64685C18.4555 9.63375 18.3599 9.62709 18.2642 9.62692H16.5814L19.9027 6.3056L20.8971 7.30005L18.5503 9.64685ZM22.3887 9.78612L20.3736 11.8012V11.7364C20.3736 11.2019 20.1734 10.7135 19.8446 10.3414L21.8915 8.29445L22.3887 8.79163C22.6629 9.06581 22.6629 9.51194 22.3887 9.78612Z" fill="white"/>
<path d="M2.8125 19.0589H5.42912V20.4652H2.8125V19.0589ZM6.85643 19.0589H9.47305V20.4652H6.85643V19.0589ZM10.9004 19.0589H13.517V20.4652H10.9004V19.0589ZM14.9443 19.0589H17.5609V20.4652H14.9443V19.0589ZM7.55959 13.1614H2.8125V17.3803H7.55959V13.1614ZM6.15328 15.974H4.21881V14.5677H6.15328V15.974Z" fill="white"/>
</svg>
