<svg width="24" height="24" viewBox="0 0 24 24" fill="none" xmlns="http://www.w3.org/2000/svg">
<path d="M17.9355 3.28247C15.0469 3.28247 12.123 4.09692 12.123 5.65435V8.32036C12.0416 8.29224 11.9596 8.2647 11.877 8.23892V2.63384C11.877 1.077 8.95312 0.261963 6.06445 0.261963C3.17578 0.261963 0.251953 1.07642 0.251953 2.63384V14.1042C0.251953 14.5565 0.508594 15.194 1.69277 15.7208C1.74434 19.9448 5.24121 23.3661 9.53262 23.3661C12.4623 23.3661 15.0211 21.7717 16.367 19.4163C16.8744 19.4696 17.4018 19.4965 17.9355 19.4965C20.8242 19.4965 23.748 18.6821 23.748 17.1247V5.65435C23.748 4.09751 20.8242 3.28247 17.9355 3.28247ZM17.9355 4.27856C21.0521 4.27856 22.752 5.18735 22.752 5.65435C22.752 6.12134 21.0521 7.03013 17.9355 7.03013C14.8189 7.03013 13.1191 6.12134 13.1191 5.65435C13.1191 5.18735 14.8189 4.27856 17.9355 4.27856ZM13.1191 7.04243C14.2207 7.69165 16.0857 8.02622 17.9355 8.02622C19.7859 8.02622 21.6504 7.69224 22.752 7.04243V7.94829C22.752 8.41528 21.0521 9.32407 17.9355 9.32407C16.9623 9.32407 16.0184 9.22798 15.2051 9.04634C15.0762 9.01764 14.9412 9.04126 14.8297 9.112C14.7182 9.18275 14.6393 9.29484 14.6104 9.42368C14.5822 9.54907 14.6045 9.67329 14.6631 9.777C14.191 9.37269 13.6725 9.02592 13.1186 8.74399V7.04243H13.1191ZM9.53262 7.88618C6.29414 7.88618 3.50801 9.83442 2.31328 12.6053C2.29973 12.5261 2.26717 12.4513 2.21839 12.3874C2.16961 12.3236 2.10607 12.2725 2.0332 12.2385C1.45371 11.9684 1.24805 11.7047 1.24805 11.5606V10.6542C1.60898 10.868 2.06367 11.0549 2.60566 11.2079C2.65078 11.2208 2.69648 11.2266 2.7416 11.2266C2.95898 11.2266 3.15879 11.0836 3.22031 10.8639C3.29531 10.5991 3.14121 10.3243 2.87637 10.2493C1.68164 9.91118 1.24746 9.47642 1.24746 9.26606V8.35903C2.0666 8.84009 3.27773 9.1313 4.44375 9.25786C4.46191 9.25962 4.48008 9.26079 4.49824 9.26079C4.74902 9.26079 4.96523 9.07153 4.99277 8.81665C5.02266 8.54302 4.82461 8.29751 4.55156 8.26763C2.2166 8.01392 1.24746 7.29849 1.24746 6.97153V6.06567C2.34902 6.71489 4.21348 7.04946 6.06387 7.04946C6.99551 7.04946 7.91719 6.96567 8.73047 6.80688C9.00059 6.75415 9.17637 6.49282 9.12363 6.22271C9.0709 5.95259 8.80898 5.77681 8.53945 5.82954C7.78828 5.97603 6.93223 6.05396 6.06387 6.05396C2.94727 6.05396 1.24746 5.14517 1.24746 4.67817V4.02134C2.34902 4.67056 4.21348 5.00513 6.06387 5.00513C7.91426 5.00513 9.77871 4.67114 10.8803 4.02134V8.00044C10.4426 7.92544 9.99258 7.88618 9.53262 7.88618ZM6.06445 1.25806C9.18105 1.25806 10.8809 2.16685 10.8809 2.63384C10.8809 3.10083 9.18105 4.00962 6.06445 4.00962C2.94785 4.00962 1.24805 3.10083 1.24805 2.63384C1.24805 2.16685 2.94785 1.25806 6.06445 1.25806ZM1.24805 14.1042V12.9504C1.35762 13.0149 1.47832 13.0788 1.6125 13.1415C1.68047 13.1731 1.75195 13.1883 1.82285 13.1883C1.93301 13.1883 2.04023 13.1508 2.12695 13.0834C1.95117 13.5803 1.8252 14.1 1.75547 14.6368C1.40918 14.4323 1.24805 14.236 1.24805 14.1042ZM9.53262 22.37C5.75801 22.37 2.6877 19.3448 2.6877 15.6258C2.6877 11.9075 5.75859 8.88228 9.53262 8.88228C13.3072 8.88228 16.3781 11.9075 16.3781 15.6258C16.3781 19.3442 13.3072 22.37 9.53262 22.37ZM17.9355 18.5004C17.5617 18.5004 17.1914 18.4864 16.8305 18.4583C17.1814 17.5805 17.3742 16.6249 17.3742 15.6258C17.3742 13.4069 16.4232 11.4036 14.9027 9.99087C14.9303 10.0026 14.9584 10.012 14.9883 10.019C15.8719 10.2165 16.8908 10.3202 17.9355 10.3202C19.7859 10.3202 21.6504 9.98618 22.752 9.33638V10.2422C22.752 10.7092 21.0521 11.618 17.9355 11.618C17.6607 11.618 17.4375 11.8413 17.4375 12.1161C17.4375 12.3909 17.6607 12.6141 17.9355 12.6141C19.7859 12.6141 21.6504 12.2801 22.752 11.6303V12.5362C22.752 12.8397 21.8584 13.5223 19.7057 13.8012C19.4326 13.8364 19.2404 14.0866 19.2756 14.359C19.2927 14.49 19.361 14.6088 19.4656 14.6894C19.5701 14.77 19.7024 14.8059 19.8334 14.7891C21.085 14.6268 22.0787 14.3274 22.752 13.9278V14.8295C22.752 15.2122 21.4881 15.9868 18.9697 16.1684C18.6955 16.1883 18.4893 16.4268 18.5086 16.701C18.5273 16.9629 18.7459 17.1633 19.0049 17.1633C19.0172 17.1633 19.0289 17.1627 19.0412 17.1622C20.3602 17.0672 21.8139 16.7696 22.7514 16.2206V17.1235C22.752 17.5917 21.0521 18.5004 17.9355 18.5004Z" fill="white"/>
<path d="M13.0562 11.1667C12.84 10.9968 12.5266 11.0349 12.3572 11.2517L5.89609 19.4999C5.72676 19.7167 5.76426 20.0296 5.98105 20.199C6.06854 20.2679 6.17672 20.3052 6.28809 20.305C6.43574 20.305 6.58223 20.2394 6.68066 20.114L13.1412 11.8658C13.3105 11.6496 13.2725 11.3367 13.0562 11.1667ZM8.79824 13.016C8.79824 11.9378 7.92109 11.0607 6.84297 11.0607C5.76484 11.0607 4.8877 11.9378 4.8877 13.016C4.8877 14.0941 5.76484 14.9712 6.84297 14.9712C7.92109 14.9712 8.79824 14.0941 8.79824 13.016ZM5.88379 13.016C5.88379 12.4869 6.31387 12.0568 6.84297 12.0568C7.37207 12.0568 7.80215 12.4869 7.80215 13.016C7.80215 13.5451 7.37207 13.9751 6.84297 13.9751C6.31387 13.9751 5.88379 13.5451 5.88379 13.016ZM11.7953 16.7279C10.7172 16.7279 9.84004 17.605 9.84004 18.6831C9.84004 19.7613 10.7172 20.6384 11.7953 20.6384C12.8734 20.6384 13.7506 19.7613 13.7506 18.6831C13.7506 17.605 12.8734 16.7279 11.7953 16.7279ZM11.7953 19.6423C11.2662 19.6423 10.8361 19.2122 10.8361 18.6831C10.8361 18.154 11.2662 17.724 11.7953 17.724C12.3244 17.724 12.7545 18.154 12.7545 18.6831C12.7545 19.2122 12.3244 19.6423 11.7953 19.6423Z" fill="white"/>
</svg>
