<svg width="25" height="24" viewBox="0 0 25 24" fill="none" xmlns="http://www.w3.org/2000/svg">
<g clip-path="url(#clip0_86_3748)">
<path d="M15.4794 11.8183C17.4463 10.7543 18.7857 8.67316 18.7857 6.2857C18.7857 2.82059 15.9652 0 12.5 0C9.03484 0 6.2143 2.82059 6.2143 6.2857C6.2143 8.67311 7.55375 10.7543 9.52057 11.8183C4.3423 13.1486 0.5 17.8412 0.5 23.4286C0.5 23.744 0.756018 24 1.07145 24C1.38687 24 1.64289 23.744 1.64289 23.4286C1.64289 17.4423 6.51377 12.5714 12.5001 12.5714C18.4863 12.5714 23.3572 17.4423 23.3572 23.4286C23.3572 23.744 23.6132 24 23.9287 24C24.2441 24 24.5 23.744 24.5 23.4286C24.5 17.8412 20.6577 13.1486 15.4794 11.8183ZM7.35714 6.2857C7.35714 3.45027 9.66457 1.14284 12.5 1.14284C15.3354 1.14284 17.6429 3.45027 17.6429 6.2857C17.6429 9.12113 15.3354 11.4286 12.5 11.4286C9.66457 11.4286 7.35714 9.12113 7.35714 6.2857Z" fill="#fff"/>
</g>
<defs>
<clipPath id="clip0_86_3748">
<rect width="24" height="24" fill="white" transform="translate(0.5)"/>
</clipPath>
</defs>
</svg>
