<svg width="195" height="53" viewBox="0 0 195 53" fill="none" xmlns="http://www.w3.org/2000/svg">
<path d="M23.1662 44.9304C20.5631 40.8594 17.3345 33.8482 16.7274 23.6933C16.4101 18.4553 17.7346 14.8683 20.6551 13.0318C25.383 10.06 32.6681 12.9775 35.1056 14.1039C37.3898 13.0328 39.8183 12.2894 42.3171 11.8965V5.60449H0.00488281V47.2192H26.2201C24.9564 46.8404 23.8728 46.0283 23.1662 44.9304Z" fill="#4BA9EF"/>
<path d="M37.5709 44.7766L35.138 41.5696L32.3785 45.1883C31.6649 46.1738 30.637 46.8966 29.458 47.2419H42.3356C41.3977 47.2419 40.4738 47.0175 39.6437 46.588C38.8136 46.1586 38.1022 45.5369 37.5709 44.7766Z" fill="#4BA9EF"/>
<path d="M59.5674 25H54.181V7.54545H59.806C61.4992 7.54545 62.9481 7.89489 64.1526 8.59375C65.3572 9.28693 66.2805 10.2841 66.9225 11.5852C67.5645 12.8807 67.8856 14.4318 67.8856 16.2386C67.8856 18.0568 67.5617 19.6222 66.914 20.9347C66.2662 22.2415 65.3231 23.2472 64.0844 23.9517C62.8458 24.6506 61.3401 25 59.5674 25ZM56.2947 23.125H59.431C60.8742 23.125 62.0702 22.8466 63.0191 22.2898C63.968 21.733 64.6753 20.9403 65.1412 19.9119C65.6072 18.8835 65.8401 17.6591 65.8401 16.2386C65.8401 14.8295 65.61 13.6165 65.1498 12.5994C64.6895 11.5767 64.002 10.7926 63.0873 10.2472C62.1725 9.69602 61.0333 9.42045 59.6697 9.42045H56.2947V23.125ZM71.431 25V7.54545H81.9651V9.42045H73.5447V15.3182H81.4197V17.1932H73.5447V23.125H82.1015V25H71.431ZM99.6157 7.54545V25H97.5702L88.0589 11.2955H87.8884V25H85.7748V7.54545H87.8202L97.3657 21.2841H97.5361V7.54545H99.6157ZM102.891 9.42045V7.54545H115.981V9.42045H110.493V25H108.379V9.42045H102.891ZM117.92 25H115.704L122.114 7.54545H124.295L130.704 25H128.489L123.273 10.3068H123.136L117.92 25ZM118.739 18.1818H127.67V20.0568H118.739V18.1818ZM142.969 11.9091C142.866 11.0455 142.452 10.375 141.724 9.89773C140.997 9.42045 140.105 9.18182 139.048 9.18182C138.275 9.18182 137.599 9.30682 137.02 9.55682C136.446 9.80682 135.997 10.1506 135.673 10.5881C135.355 11.0256 135.196 11.5227 135.196 12.0795C135.196 12.5455 135.307 12.946 135.528 13.2812C135.756 13.6108 136.045 13.8864 136.398 14.108C136.75 14.3239 137.119 14.5028 137.506 14.6449C137.892 14.7812 138.247 14.892 138.571 14.9773L140.344 15.4545C140.798 15.5739 141.304 15.7386 141.861 15.9489C142.423 16.1591 142.96 16.446 143.472 16.8097C143.989 17.1676 144.415 17.6278 144.75 18.1903C145.085 18.7528 145.253 19.4432 145.253 20.2614C145.253 21.2045 145.006 22.0568 144.511 22.8182C144.023 23.5795 143.307 24.1847 142.364 24.6335C141.426 25.0824 140.287 25.3068 138.946 25.3068C137.696 25.3068 136.614 25.1051 135.699 24.7017C134.79 24.2983 134.074 23.7358 133.551 23.0142C133.034 22.2926 132.741 21.4545 132.673 20.5H134.855C134.912 21.1591 135.133 21.7045 135.52 22.1364C135.912 22.5625 136.406 22.8807 137.003 23.0909C137.605 23.2955 138.253 23.3977 138.946 23.3977C139.753 23.3977 140.477 23.267 141.119 23.0057C141.761 22.7386 142.27 22.3693 142.645 21.8977C143.02 21.4205 143.207 20.8636 143.207 20.2273C143.207 19.6477 143.045 19.1761 142.722 18.8125C142.398 18.4489 141.972 18.1534 141.443 17.9261C140.915 17.6989 140.344 17.5 139.73 17.3295L137.582 16.7159C136.219 16.3239 135.139 15.7642 134.344 15.0369C133.548 14.3097 133.15 13.358 133.15 12.1818C133.15 11.2045 133.415 10.3523 133.943 9.625C134.477 8.89205 135.193 8.32386 136.091 7.92045C136.994 7.51136 138.003 7.30682 139.116 7.30682C140.241 7.30682 141.241 7.50852 142.116 7.91193C142.991 8.30966 143.685 8.85511 144.196 9.54829C144.713 10.2415 144.986 11.0284 145.014 11.9091H142.969ZM147.773 9.42045V7.54545H160.864V9.42045H155.376V25H153.262V9.42045H147.773ZM162.803 25H160.587L166.996 7.54545H169.178L175.587 25H173.371L168.155 10.3068H168.019L162.803 25ZM163.621 18.1818H172.553V20.0568H163.621V18.1818ZM178.306 25V7.54545H184.204C185.567 7.54545 186.687 7.77841 187.562 8.24432C188.437 8.70454 189.084 9.33807 189.505 10.1449C189.925 10.9517 190.136 11.8693 190.136 12.8977C190.136 13.9261 189.925 14.8381 189.505 15.6335C189.084 16.429 188.44 17.054 187.57 17.5085C186.701 17.9574 185.59 18.1818 184.238 18.1818H179.465V16.2727H184.17C185.101 16.2727 185.851 16.1364 186.42 15.8636C186.994 15.5909 187.408 15.2045 187.664 14.7045C187.925 14.1989 188.056 13.5966 188.056 12.8977C188.056 12.1989 187.925 11.5881 187.664 11.0653C187.403 10.5426 186.985 10.1392 186.411 9.85511C185.837 9.56534 185.079 9.42045 184.136 9.42045H180.42V25H178.306ZM186.522 17.1591L190.817 25H188.363L184.136 17.1591H186.522Z" fill="black"/>
<g opacity="0.65">
<path d="M56.4744 42.2557C55.7074 42.2557 55.0469 42.0746 54.4929 41.7123C53.9389 41.3501 53.5128 40.8512 53.2145 40.2155C52.9162 39.5799 52.767 38.8537 52.767 38.0369C52.767 37.2059 52.9197 36.4726 53.2251 35.837C53.5341 35.1978 53.9638 34.6988 54.5142 34.3402C55.0682 33.978 55.7145 33.7969 56.4531 33.7969C57.0284 33.7969 57.5469 33.9034 58.0085 34.1165C58.4702 34.3295 58.8484 34.6278 59.1431 35.0113C59.4379 35.3949 59.6207 35.8423 59.6918 36.3537H58.4347C58.3388 35.9808 58.1257 35.6505 57.7955 35.3629C57.4688 35.0717 57.0284 34.9261 56.4744 34.9261C55.9844 34.9261 55.5547 35.054 55.1854 35.3096C54.8196 35.5618 54.5337 35.9187 54.3278 36.3803C54.1254 36.8384 54.0241 37.3764 54.0241 37.9943C54.0241 38.6264 54.1236 39.1768 54.3224 39.6456C54.5249 40.1143 54.8089 40.4783 55.1747 40.7375C55.544 40.9968 55.9773 41.1264 56.4744 41.1264C56.8011 41.1264 57.0977 41.0696 57.364 40.9559C57.6303 40.8423 57.8558 40.679 58.0405 40.4659C58.2251 40.2528 58.3565 39.9971 58.4347 39.6988H59.6918C59.6207 40.1818 59.445 40.6168 59.1644 41.0039C58.8874 41.3874 58.5199 41.6928 58.0618 41.9201C57.6072 42.1438 57.0781 42.2557 56.4744 42.2557ZM60.8849 35.0753V33.9034H67.5327V35.0753H64.848V42.0852H63.5909V35.0753H60.8849ZM72.2654 42.2557C71.5268 42.2557 70.8787 42.0799 70.3212 41.7283C69.7672 41.3768 69.334 40.8849 69.0215 40.2528C68.7125 39.6207 68.5581 38.8821 68.5581 38.0369C68.5581 37.1846 68.7125 36.4407 69.0215 35.805C69.334 35.1694 69.7672 34.6758 70.3212 34.3242C70.8787 33.9726 71.5268 33.7969 72.2654 33.7969C73.0041 33.7969 73.6504 33.9726 74.2044 34.3242C74.7619 34.6758 75.1951 35.1694 75.5041 35.805C75.8166 36.4407 75.9728 37.1846 75.9728 38.0369C75.9728 38.8821 75.8166 39.6207 75.5041 40.2528C75.1951 40.8849 74.7619 41.3768 74.2044 41.7283C73.6504 42.0799 73.0041 42.2557 72.2654 42.2557ZM72.2654 41.1264C72.8265 41.1264 73.2882 40.9826 73.6504 40.6949C74.0126 40.4073 74.2807 40.0291 74.4547 39.5603C74.6287 39.0916 74.7157 38.5838 74.7157 38.0369C74.7157 37.49 74.6287 36.9804 74.4547 36.5081C74.2807 36.0358 74.0126 35.6541 73.6504 35.3629C73.2882 35.0717 72.8265 34.9261 72.2654 34.9261C71.7044 34.9261 71.2427 35.0717 70.8805 35.3629C70.5183 35.6541 70.2502 36.0358 70.0762 36.5081C69.9022 36.9804 69.8152 37.49 69.8152 38.0369C69.8152 38.5838 69.9022 39.0916 70.0762 39.5603C70.2502 40.0291 70.5183 40.4073 70.8805 40.6949C71.2427 40.9826 71.7044 41.1264 72.2654 41.1264ZM82.3662 40.3807L85.2213 33.9034H86.4145L82.8776 42.0852H81.8548L78.3818 33.9034H79.5537L82.3662 40.3807ZM79.1489 33.9034V42.0852H77.8918V33.9034H79.1489ZM85.5835 42.0852V33.9034H86.8406V42.0852H85.5835ZM91.5494 42.277C91.031 42.277 90.5605 42.1793 90.1379 41.984C89.7153 41.7851 89.3797 41.4993 89.1311 41.1264C88.8825 40.75 88.7583 40.2954 88.7583 39.7628C88.7583 39.294 88.8506 38.914 89.0352 38.6228C89.2199 38.3281 89.4667 38.0973 89.7757 37.9304C90.0846 37.7635 90.4255 37.6392 90.7984 37.5575C91.1748 37.4723 91.553 37.4048 91.933 37.3551C92.4301 37.2912 92.8332 37.2432 93.1421 37.2113C93.4546 37.1758 93.6819 37.1172 93.824 37.0355C93.9695 36.9538 94.0423 36.8118 94.0423 36.6094V36.5667C94.0423 36.0412 93.8985 35.6328 93.6109 35.3416C93.3268 35.0504 92.8953 34.9048 92.3165 34.9048C91.7164 34.9048 91.2458 35.0362 90.9049 35.299C90.564 35.5618 90.3243 35.8423 90.1858 36.1406L88.9926 35.7145C89.2057 35.2173 89.4898 34.8302 89.8449 34.5532C90.2036 34.2727 90.5942 34.0774 91.0168 33.9673C91.4429 33.8537 91.8619 33.7969 92.2739 33.7969C92.5367 33.7969 92.8385 33.8288 93.1794 33.8927C93.5239 33.9531 93.8559 34.0792 94.1755 34.2709C94.4987 34.4627 94.7668 34.7521 94.9798 35.1392C95.1929 35.5263 95.2994 36.0447 95.2994 36.6946V42.0852H94.0423V40.9773H93.9784C93.8932 41.1548 93.7512 41.3448 93.5523 41.5472C93.3534 41.7496 93.0889 41.9219 92.7586 42.0639C92.4284 42.2059 92.0253 42.277 91.5494 42.277ZM91.7412 41.1477C92.2384 41.1477 92.6574 41.05 92.9983 40.8547C93.3428 40.6594 93.602 40.4073 93.776 40.0983C93.9536 39.7894 94.0423 39.4645 94.0423 39.1236V37.973C93.9891 38.0369 93.8719 38.0955 93.6908 38.1488C93.5132 38.1985 93.3073 38.2429 93.0729 38.2819C92.8421 38.3174 92.6166 38.3494 92.3964 38.3778C92.1798 38.4027 92.004 38.424 91.8691 38.4417C91.5423 38.4844 91.2369 38.5536 90.9529 38.6495C90.6723 38.7418 90.445 38.8821 90.271 39.0703C90.1006 39.2549 90.0154 39.5071 90.0154 39.8267C90.0154 40.2635 90.1769 40.5937 90.5001 40.8174C90.8268 41.0376 91.2405 41.1477 91.7412 41.1477ZM96.4806 35.0753V33.9034H103.128V35.0753H100.444V42.0852H99.1866V35.0753H96.4806ZM107.861 42.2557C107.123 42.2557 106.474 42.0799 105.917 41.7283C105.363 41.3768 104.93 40.8849 104.617 40.2528C104.308 39.6207 104.154 38.8821 104.154 38.0369C104.154 37.1846 104.308 36.4407 104.617 35.805C104.93 35.1694 105.363 34.6758 105.917 34.3242C106.474 33.9726 107.123 33.7969 107.861 33.7969C108.6 33.7969 109.246 33.9726 109.8 34.3242C110.358 34.6758 110.791 35.1694 111.1 35.805C111.412 36.4407 111.569 37.1846 111.569 38.0369C111.569 38.8821 111.412 39.6207 111.1 40.2528C110.791 40.8849 110.358 41.3768 109.8 41.7283C109.246 42.0799 108.6 42.2557 107.861 42.2557ZM107.861 41.1264C108.422 41.1264 108.884 40.9826 109.246 40.6949C109.608 40.4073 109.876 40.0291 110.05 39.5603C110.224 39.0916 110.311 38.5838 110.311 38.0369C110.311 37.49 110.224 36.9804 110.05 36.5081C109.876 36.0358 109.608 35.6541 109.246 35.3629C108.884 35.0717 108.422 34.9261 107.861 34.9261C107.3 34.9261 106.838 35.0717 106.476 35.3629C106.114 35.6541 105.846 36.0358 105.672 36.5081C105.498 36.9804 105.411 37.49 105.411 38.0369C105.411 38.5838 105.498 39.0916 105.672 39.5603C105.846 40.0291 106.114 40.4073 106.476 40.6949C106.838 40.9826 107.3 41.1264 107.861 41.1264ZM112.763 42.0852V40.9133H113.061C113.306 40.9133 113.511 40.8654 113.674 40.7695C113.837 40.6701 113.969 40.4978 114.068 40.2528C114.171 40.0042 114.249 39.6598 114.302 39.2194C114.359 38.7755 114.4 38.2109 114.425 37.5255L114.574 33.9034H120.029V42.0852H118.772V35.0753H115.767L115.639 37.9943C115.611 38.6655 115.551 39.2567 115.458 39.7681C115.37 40.2759 115.233 40.702 115.048 41.0465C114.867 41.391 114.626 41.6502 114.324 41.8242C114.022 41.9982 113.644 42.0852 113.189 42.0852H112.763ZM125.659 42.2557C124.92 42.2557 124.272 42.0799 123.715 41.7283C123.161 41.3768 122.728 40.8849 122.415 40.2528C122.106 39.6207 121.952 38.8821 121.952 38.0369C121.952 37.1846 122.106 36.4407 122.415 35.805C122.728 35.1694 123.161 34.6758 123.715 34.3242C124.272 33.9726 124.92 33.7969 125.659 33.7969C126.398 33.7969 127.044 33.9726 127.598 34.3242C128.155 34.6758 128.589 35.1694 128.898 35.805C129.21 36.4407 129.366 37.1846 129.366 38.0369C129.366 38.8821 129.21 39.6207 128.898 40.2528C128.589 40.8849 128.155 41.3768 127.598 41.7283C127.044 42.0799 126.398 42.2557 125.659 42.2557ZM125.659 41.1264C126.22 41.1264 126.682 40.9826 127.044 40.6949C127.406 40.4073 127.674 40.0291 127.848 39.5603C128.022 39.0916 128.109 38.5838 128.109 38.0369C128.109 37.49 128.022 36.9804 127.848 36.5081C127.674 36.0358 127.406 35.6541 127.044 35.3629C126.682 35.0717 126.22 34.9261 125.659 34.9261C125.098 34.9261 124.636 35.0717 124.274 35.3629C123.912 35.6541 123.644 36.0358 123.47 36.5081C123.296 36.9804 123.209 37.49 123.209 38.0369C123.209 38.5838 123.296 39.0916 123.47 39.5603C123.644 40.0291 123.912 40.4073 124.274 40.6949C124.636 40.9826 125.098 41.1264 125.659 41.1264ZM136.335 33.9034V35.0753H132.542V42.0852H131.285V33.9034H136.335ZM139.427 40.2315L143.369 33.9034H144.818V42.0852H143.561V35.7571L139.64 42.0852H138.17V33.9034H139.427V40.2315ZM152.042 42.0852V35.054H149.869C149.379 35.054 148.994 35.1676 148.713 35.3949C148.432 35.6221 148.292 35.9346 148.292 36.3324C148.292 36.723 148.418 37.0302 148.67 37.2539C148.926 37.4776 149.276 37.5895 149.72 37.5895H152.362V38.7613H149.72C149.166 38.7613 148.688 38.6637 148.287 38.4684C147.886 38.2731 147.577 37.9943 147.36 37.6321C147.143 37.2663 147.035 36.8331 147.035 36.3324C147.035 35.8281 147.149 35.3949 147.376 35.0326C147.603 34.6704 147.928 34.3917 148.351 34.1964C148.777 34.001 149.283 33.9034 149.869 33.9034H153.235V42.0852H152.042ZM146.588 42.0852L148.91 38.0156H150.274L147.951 42.0852H146.588Z" fill="black"/>
</g>
</svg>
