<svg width="167" height="126" viewBox="0 0 167 126" fill="none" xmlns="http://www.w3.org/2000/svg">
<g clip-path="url(#clip0_215_5)">
<g clip-path="url(#clip1_215_5)">
<g clip-path="url(#clip2_215_5)">
<path d="M162.859 54.9929C165.146 54.9929 167 53.1168 167 50.8025C167 48.4882 165.146 46.6121 162.859 46.6121C160.572 46.6121 158.718 48.4882 158.718 50.8025C158.718 53.1168 160.572 54.9929 162.859 54.9929Z" fill="#4BA9EF" fill-opacity="0.45"/>
<path d="M144.46 50.8025C144.46 48.484 142.604 46.6121 140.32 46.6121C138.036 46.6121 136.179 48.491 136.179 50.8025C136.179 53.1211 138.036 54.9929 140.32 54.9929C142.604 54.9929 144.46 53.1211 144.46 50.8025Z" fill="#4BA9EF" fill-opacity="0.45"/>
<path d="M121.914 50.8025C121.914 48.484 120.057 46.6121 117.773 46.6121C115.482 46.6121 113.632 48.491 113.632 50.8025C113.632 53.1211 115.489 54.9929 117.773 54.9929C120.057 55 121.914 53.1211 121.914 50.8025Z" fill="#4BA9EF" fill-opacity="0.45"/>
<path d="M99.3745 50.8025C99.3745 48.484 97.5178 46.6121 95.2337 46.6121C92.9426 46.6121 91.093 48.491 91.093 50.8025C91.093 53.1211 92.9497 54.9929 95.2337 54.9929C97.5178 55 99.3745 53.1211 99.3745 50.8025Z" fill="#4BA9EF" fill-opacity="0.45"/>
<path d="M76.8279 50.8025C76.8279 48.484 74.9712 46.6121 72.6871 46.6121C70.4031 46.6121 68.5464 48.491 68.5464 50.8025C68.5464 53.1211 70.4031 54.9929 72.6871 54.9929C74.9712 54.9929 76.8279 53.1211 76.8279 50.8025Z" fill="#4BA9EF" fill-opacity="0.45"/>
<path d="M54.2885 50.8025C54.2885 48.484 52.4318 46.6121 50.1477 46.6121C47.8567 46.6121 46 48.491 46 50.8025C46 53.1211 47.8567 54.9929 50.1407 54.9929C52.4318 55 54.2885 53.1211 54.2885 50.8025Z" fill="#4BA9EF" fill-opacity="0.45"/>
<path d="M162.859 31.6868C165.146 31.6868 167 29.8107 167 27.4964C167 25.1821 165.146 23.3059 162.859 23.3059C160.572 23.3059 158.718 25.1821 158.718 27.4964C158.718 29.8107 160.572 31.6868 162.859 31.6868Z" fill="#4BA9EF" fill-opacity="0.45"/>
<path d="M144.46 27.4964C144.46 25.1778 142.604 23.3059 140.32 23.3059C138.036 23.3059 136.179 25.1849 136.179 27.4964C136.179 29.8149 138.036 31.6868 140.32 31.6868C142.604 31.6868 144.46 29.8149 144.46 27.4964Z" fill="#4BA9EF" fill-opacity="0.45"/>
<path d="M121.914 27.4964C121.914 25.1778 120.057 23.3059 117.773 23.3059C115.482 23.3059 113.632 25.1849 113.632 27.4964C113.632 29.8149 115.489 31.6868 117.773 31.6868C120.057 31.6939 121.914 29.8149 121.914 27.4964Z" fill="#4BA9EF" fill-opacity="0.45"/>
<path d="M99.3745 27.4964C99.3745 25.1778 97.5178 23.3059 95.2337 23.3059C92.9426 23.3059 91.093 25.1849 91.093 27.4964C91.093 29.8149 92.9497 31.6868 95.2337 31.6868C97.5178 31.6939 99.3745 29.8149 99.3745 27.4964Z" fill="#4BA9EF" fill-opacity="0.45"/>
<path d="M76.8279 27.4964C76.8279 25.1778 74.9712 23.3059 72.6871 23.3059C70.4031 23.3059 68.5464 25.1849 68.5464 27.4964C68.5464 29.8149 70.4031 31.6868 72.6871 31.6868C74.9712 31.6868 76.8279 29.8149 76.8279 27.4964Z" fill="#4BA9EF" fill-opacity="0.45"/>
<path d="M54.2885 27.4964C54.2885 25.1778 52.4318 23.3059 50.1477 23.3059C47.8567 23.3059 46 25.1849 46 27.4964C46 29.8149 47.8567 31.6868 50.1407 31.6868C52.4318 31.6939 54.2885 29.8149 54.2885 27.4964Z" fill="#4BA9EF" fill-opacity="0.45"/>
<path d="M162.859 8.38082C165.146 8.38082 167 6.50471 167 4.19041C167 1.87611 165.146 0 162.859 0C160.572 0 158.718 1.87611 158.718 4.19041C158.718 6.50471 160.572 8.38082 162.859 8.38082Z" fill="#4BA9EF" fill-opacity="0.45"/>
<path d="M144.46 4.19041C144.46 1.87186 142.604 0 140.32 0C138.029 0 136.179 1.87895 136.179 4.19041C136.179 6.50896 138.036 8.38082 140.32 8.38082C142.604 8.38082 144.46 6.50896 144.46 4.19041Z" fill="#4BA9EF" fill-opacity="0.45"/>
<path d="M121.914 4.19041C121.914 1.87186 120.057 0 117.773 0C115.482 0 113.632 1.87895 113.632 4.19041C113.632 6.50896 115.489 8.38082 117.773 8.38082C120.057 8.38791 121.914 6.50896 121.914 4.19041Z" fill="#4BA9EF" fill-opacity="0.45"/>
<path d="M99.3744 4.19041C99.3744 1.87186 97.5177 0 95.2336 0C92.9425 0 91.0859 1.87895 91.0859 4.19041C91.0859 6.50896 92.9425 8.38082 95.2266 8.38082C97.5177 8.38791 99.3744 6.50896 99.3744 4.19041Z" fill="#4BA9EF" fill-opacity="0.45"/>
<path d="M76.8279 4.19041C76.8279 1.87895 74.9712 0 72.6871 0C70.396 0 68.5464 1.87895 68.5464 4.19041C68.5464 6.50896 70.4031 8.38082 72.6871 8.38082C74.9712 8.38082 76.8279 6.50896 76.8279 4.19041Z" fill="#4BA9EF" fill-opacity="0.45"/>
<path d="M54.2885 4.19041C54.2885 1.87895 52.4318 0 50.1407 0C47.8567 0 46 1.87895 46 4.19041C46 6.50896 47.8567 8.38082 50.1407 8.38082C52.4318 8.38791 54.2885 6.50896 54.2885 4.19041Z" fill="#4BA9EF" fill-opacity="0.45"/>
<path d="M162.859 125.993C165.146 125.993 167 124.117 167 121.803C167 119.488 165.146 117.612 162.859 117.612C160.572 117.612 158.718 119.488 158.718 121.803C158.718 124.117 160.572 125.993 162.859 125.993Z" fill="#4BA9EF" fill-opacity="0.45"/>
<path d="M144.46 121.803C144.46 119.484 142.604 117.612 140.32 117.612C138.036 117.612 136.179 119.491 136.179 121.803C136.179 124.121 138.036 125.993 140.32 125.993C142.604 125.993 144.46 124.121 144.46 121.803Z" fill="#4BA9EF" fill-opacity="0.45"/>
<path d="M121.914 121.803C121.914 119.484 120.057 117.612 117.773 117.612C115.482 117.612 113.632 119.491 113.632 121.803C113.632 124.121 115.489 125.993 117.773 125.993C120.057 126 121.914 124.121 121.914 121.803Z" fill="#4BA9EF" fill-opacity="0.45"/>
<path d="M99.3745 121.803C99.3745 119.484 97.5178 117.612 95.2337 117.612C92.9426 117.612 91.093 119.491 91.093 121.803C91.093 124.121 92.9497 125.993 95.2337 125.993C97.5178 126 99.3745 124.121 99.3745 121.803Z" fill="#4BA9EF" fill-opacity="0.45"/>
<path d="M76.8279 121.803C76.8279 119.484 74.9712 117.612 72.6871 117.612C70.4031 117.612 68.5464 119.491 68.5464 121.803C68.5464 124.121 70.4031 125.993 72.6871 125.993C74.9712 125.993 76.8279 124.121 76.8279 121.803Z" fill="#4BA9EF" fill-opacity="0.45"/>
<path d="M54.2885 121.803C54.2885 119.484 52.4318 117.612 50.1477 117.612C47.8567 117.612 46 119.491 46 121.803C46 124.121 47.8567 125.993 50.1407 125.993C52.4318 126 54.2885 124.121 54.2885 121.803Z" fill="#4BA9EF" fill-opacity="0.45"/>
<path d="M162.859 102.687C165.146 102.687 167 100.811 167 98.4964C167 96.1821 165.146 94.3059 162.859 94.3059C160.572 94.3059 158.718 96.1821 158.718 98.4964C158.718 100.811 160.572 102.687 162.859 102.687Z" fill="#4BA9EF" fill-opacity="0.45"/>
<path d="M144.46 98.4964C144.46 96.1778 142.604 94.3059 140.32 94.3059C138.036 94.3059 136.179 96.1849 136.179 98.4964C136.179 100.815 138.036 102.687 140.32 102.687C142.604 102.687 144.46 100.815 144.46 98.4964Z" fill="#4BA9EF" fill-opacity="0.45"/>
<path d="M121.914 98.4964C121.914 96.1778 120.057 94.3059 117.773 94.3059C115.482 94.3059 113.632 96.1849 113.632 98.4964C113.632 100.815 115.489 102.687 117.773 102.687C120.057 102.694 121.914 100.815 121.914 98.4964Z" fill="#4BA9EF" fill-opacity="0.45"/>
<path d="M99.3745 98.4964C99.3745 96.1778 97.5178 94.3059 95.2337 94.3059C92.9426 94.3059 91.093 96.1849 91.093 98.4964C91.093 100.815 92.9497 102.687 95.2337 102.687C97.5178 102.694 99.3745 100.815 99.3745 98.4964Z" fill="#4BA9EF" fill-opacity="0.45"/>
<path d="M76.8279 98.4964C76.8279 96.1778 74.9712 94.3059 72.6871 94.3059C70.4031 94.3059 68.5464 96.1849 68.5464 98.4964C68.5464 100.815 70.4031 102.687 72.6871 102.687C74.9712 102.687 76.8279 100.815 76.8279 98.4964Z" fill="#4BA9EF" fill-opacity="0.45"/>
<path d="M54.2885 98.4964C54.2885 96.1778 52.4318 94.3059 50.1477 94.3059C47.8567 94.3059 46 96.1849 46 98.4964C46 100.815 47.8567 102.687 50.1407 102.687C52.4318 102.694 54.2885 100.815 54.2885 98.4964Z" fill="#4BA9EF" fill-opacity="0.45"/>
<path d="M162.859 79.3808C165.146 79.3808 167 77.5047 167 75.1904C167 72.8761 165.146 71 162.859 71C160.572 71 158.718 72.8761 158.718 75.1904C158.718 77.5047 160.572 79.3808 162.859 79.3808Z" fill="#4BA9EF" fill-opacity="0.45"/>
<path d="M144.46 75.1904C144.46 72.8719 142.604 71 140.32 71C138.029 71 136.179 72.8789 136.179 75.1904C136.179 77.509 138.036 79.3808 140.32 79.3808C142.604 79.3808 144.46 77.509 144.46 75.1904Z" fill="#4BA9EF" fill-opacity="0.45"/>
<path d="M121.914 75.1904C121.914 72.8719 120.057 71 117.773 71C115.482 71 113.632 72.8789 113.632 75.1904C113.632 77.509 115.489 79.3808 117.773 79.3808C120.057 79.3879 121.914 77.509 121.914 75.1904Z" fill="#4BA9EF" fill-opacity="0.45"/>
<path d="M99.3744 75.1904C99.3744 72.8719 97.5177 71 95.2336 71C92.9425 71 91.0859 72.8789 91.0859 75.1904C91.0859 77.509 92.9425 79.3808 95.2266 79.3808C97.5177 79.3879 99.3744 77.509 99.3744 75.1904Z" fill="#4BA9EF" fill-opacity="0.45"/>
<path d="M76.8279 75.1904C76.8279 72.8789 74.9712 71 72.6871 71C70.396 71 68.5464 72.8789 68.5464 75.1904C68.5464 77.509 70.4031 79.3808 72.6871 79.3808C74.9712 79.3808 76.8279 77.509 76.8279 75.1904Z" fill="#4BA9EF" fill-opacity="0.45"/>
<path d="M54.2885 75.1904C54.2885 72.8789 52.4318 71 50.1407 71C47.8567 71 46 72.8789 46 75.1904C46 77.509 47.8567 79.3808 50.1407 79.3808C52.4318 79.3879 54.2885 77.509 54.2885 75.1904Z" fill="#4BA9EF" fill-opacity="0.45"/>
<path d="M26.8593 54.9929C29.1462 54.9929 31.0001 53.1168 31.0001 50.8025C31.0001 48.4882 29.1462 46.6121 26.8593 46.6121C24.5724 46.6121 22.7185 48.4882 22.7185 50.8025C22.7185 53.1168 24.5724 54.9929 26.8593 54.9929Z" fill="#4BA9EF" fill-opacity="0.45"/>
<path d="M8.46048 50.8025C8.46048 48.484 6.60379 46.6121 4.31971 46.6121C2.03563 46.6121 0.178955 48.491 0.178955 50.8025C0.178955 53.1211 2.03563 54.9929 4.31971 54.9929C6.60379 54.9929 8.46048 53.1211 8.46048 50.8025Z" fill="#4BA9EF" fill-opacity="0.45"/>
<path d="M26.8593 31.6868C29.1462 31.6868 31.0001 29.8107 31.0001 27.4964C31.0001 25.1821 29.1462 23.3059 26.8593 23.3059C24.5724 23.3059 22.7185 25.1821 22.7185 27.4964C22.7185 29.8107 24.5724 31.6868 26.8593 31.6868Z" fill="#4BA9EF" fill-opacity="0.45"/>
<path d="M8.46048 27.4964C8.46048 25.1778 6.60379 23.3059 4.31971 23.3059C2.03563 23.3059 0.178955 25.1849 0.178955 27.4964C0.178955 29.8149 2.03563 31.6868 4.31971 31.6868C6.60379 31.6868 8.46048 29.8149 8.46048 27.4964Z" fill="#4BA9EF" fill-opacity="0.45"/>
<path d="M26.8593 8.38082C29.1462 8.38082 31.0001 6.50471 31.0001 4.19041C31.0001 1.87611 29.1462 0 26.8593 0C24.5724 0 22.7185 1.87611 22.7185 4.19041C22.7185 6.50471 24.5724 8.38082 26.8593 8.38082Z" fill="#4BA9EF" fill-opacity="0.45"/>
<path d="M8.46048 4.19041C8.46048 1.87186 6.60379 0 4.31971 0C2.02863 0 0.178955 1.87895 0.178955 4.19041C0.178955 6.50896 2.03563 8.38082 4.31971 8.38082C6.60379 8.38082 8.46048 6.50896 8.46048 4.19041Z" fill="#4BA9EF" fill-opacity="0.45"/>
<path d="M26.8593 125.993C29.1462 125.993 31.0001 124.117 31.0001 121.803C31.0001 119.488 29.1462 117.612 26.8593 117.612C24.5724 117.612 22.7185 119.488 22.7185 121.803C22.7185 124.117 24.5724 125.993 26.8593 125.993Z" fill="#4BA9EF" fill-opacity="0.45"/>
<path d="M8.46048 121.803C8.46048 119.484 6.60379 117.612 4.31971 117.612C2.03563 117.612 0.178955 119.491 0.178955 121.803C0.178955 124.121 2.03563 125.993 4.31971 125.993C6.60379 125.993 8.46048 124.121 8.46048 121.803Z" fill="#4BA9EF" fill-opacity="0.45"/>
<path d="M26.8593 102.687C29.1462 102.687 31.0001 100.811 31.0001 98.4964C31.0001 96.1821 29.1462 94.3059 26.8593 94.3059C24.5724 94.3059 22.7185 96.1821 22.7185 98.4964C22.7185 100.811 24.5724 102.687 26.8593 102.687Z" fill="#4BA9EF" fill-opacity="0.45"/>
<path d="M8.46048 98.4964C8.46048 96.1778 6.60379 94.3059 4.31971 94.3059C2.03563 94.3059 0.178955 96.1849 0.178955 98.4964C0.178955 100.815 2.03563 102.687 4.31971 102.687C6.60379 102.687 8.46048 100.815 8.46048 98.4964Z" fill="#4BA9EF" fill-opacity="0.45"/>
<path d="M26.8593 79.3808C29.1462 79.3808 31.0001 77.5047 31.0001 75.1904C31.0001 72.8761 29.1462 71 26.8593 71C24.5724 71 22.7185 72.8761 22.7185 75.1904C22.7185 77.5047 24.5724 79.3808 26.8593 79.3808Z" fill="#4BA9EF" fill-opacity="0.45"/>
<path d="M8.46048 75.1904C8.46048 72.8719 6.60379 71 4.31971 71C2.02863 71 0.178955 72.8789 0.178955 75.1904C0.178955 77.509 2.03563 79.3808 4.31971 79.3808C6.60379 79.3808 8.46048 77.509 8.46048 75.1904Z" fill="#4BA9EF" fill-opacity="0.45"/>
</g>
</g>
</g>
<defs>
<clipPath id="clip0_215_5">
<rect width="167" height="126" fill="white"/>
</clipPath>
<clipPath id="clip1_215_5">
<rect width="167" height="126" fill="white"/>
</clipPath>
<clipPath id="clip2_215_5">
<rect width="167" height="126" fill="white"/>
</clipPath>
</defs>
</svg>
