<svg width="70" height="46" viewBox="0 0 70 46" fill="none" xmlns="http://www.w3.org/2000/svg">
<path d="M68.2625 19.6712C69.2222 19.6712 70.0001 19.0001 70.0001 18.1722C70.0001 17.3444 69.2222 16.6733 68.2625 16.6733C67.3029 16.6733 66.5249 17.3444 66.5249 18.1722C66.5249 19.0001 67.3029 19.6712 68.2625 19.6712Z" fill="#4BA9EF" fill-opacity="0.45"/>
<path d="M60.5419 18.1722C60.5419 17.3429 59.7631 16.6733 58.8048 16.6733C57.8464 16.6733 57.0671 17.3454 57.0671 18.1722C57.0671 19.0016 57.8464 19.6712 58.8048 19.6712C59.7631 19.6712 60.5419 19.0016 60.5419 18.1722Z" fill="#4BA9EF" fill-opacity="0.45"/>
<path d="M51.0817 18.1722C51.0817 17.3429 50.3024 16.6733 49.3441 16.6733C48.3827 16.6733 47.6064 17.3454 47.6064 18.1722C47.6064 19.0016 48.3857 19.6712 49.3441 19.6712C50.3024 19.6737 51.0817 19.0016 51.0817 18.1722Z" fill="#4BA9EF" fill-opacity="0.45"/>
<path d="M41.6234 18.1722C41.6234 17.3429 40.8444 16.6733 39.8859 16.6733C38.9246 16.6733 38.1484 17.3454 38.1484 18.1722C38.1484 19.0016 38.9275 19.6712 39.8859 19.6712C40.8444 19.6737 41.6234 19.0016 41.6234 18.1722Z" fill="#4BA9EF" fill-opacity="0.45"/>
<path d="M32.1628 18.1722C32.1628 17.3429 31.3837 16.6733 30.4252 16.6733C29.4668 16.6733 28.6877 17.3454 28.6877 18.1722C28.6877 19.0016 29.4668 19.6712 30.4252 19.6712C31.3837 19.6712 32.1628 19.0016 32.1628 18.1722Z" fill="#4BA9EF" fill-opacity="0.45"/>
<path d="M22.7048 18.1722C22.7048 17.3429 21.9257 16.6733 20.9672 16.6733C20.0059 16.6733 19.2268 17.3454 19.2268 18.1722C19.2268 19.0016 20.0059 19.6712 20.9643 19.6712C21.9257 19.6737 22.7048 19.0016 22.7048 18.1722Z" fill="#4BA9EF" fill-opacity="0.45"/>
<path d="M68.2625 11.3345C69.2222 11.3345 70.0001 10.6634 70.0001 9.83557C70.0001 9.00774 69.2222 8.33661 68.2625 8.33661C67.3029 8.33661 66.5249 9.00774 66.5249 9.83557C66.5249 10.6634 67.3029 11.3345 68.2625 11.3345Z" fill="#4BA9EF" fill-opacity="0.45"/>
<path d="M60.5419 9.83557C60.5419 9.0062 59.7631 8.33661 58.8048 8.33661C57.8464 8.33661 57.0671 9.00874 57.0671 9.83557C57.0671 10.6649 57.8464 11.3345 58.8048 11.3345C59.7631 11.3345 60.5419 10.6649 60.5419 9.83557Z" fill="#4BA9EF" fill-opacity="0.45"/>
<path d="M51.0817 9.83557C51.0817 9.0062 50.3024 8.33661 49.3441 8.33661C48.3827 8.33661 47.6064 9.00874 47.6064 9.83557C47.6064 10.6649 48.3857 11.3345 49.3441 11.3345C50.3024 11.337 51.0817 10.6649 51.0817 9.83557Z" fill="#4BA9EF" fill-opacity="0.45"/>
<path d="M41.6234 9.83557C41.6234 9.0062 40.8444 8.33661 39.8859 8.33661C38.9246 8.33661 38.1484 9.00874 38.1484 9.83557C38.1484 10.6649 38.9275 11.3345 39.8859 11.3345C40.8444 11.337 41.6234 10.6649 41.6234 9.83557Z" fill="#4BA9EF" fill-opacity="0.45"/>
<path d="M32.1628 9.83557C32.1628 9.0062 31.3837 8.33661 30.4252 8.33661C29.4668 8.33661 28.6877 9.00874 28.6877 9.83557C28.6877 10.6649 29.4668 11.3345 30.4252 11.3345C31.3837 11.3345 32.1628 10.6649 32.1628 9.83557Z" fill="#4BA9EF" fill-opacity="0.45"/>
<path d="M22.7048 9.83557C22.7048 9.0062 21.9257 8.33661 20.9672 8.33661C20.0059 8.33661 19.2268 9.00874 19.2268 9.83557C19.2268 10.6649 20.0059 11.3345 20.9643 11.3345C21.9257 11.337 22.7048 10.6649 22.7048 9.83557Z" fill="#4BA9EF" fill-opacity="0.45"/>
<path d="M68.2625 2.99787C69.2222 2.99787 70.0001 2.32677 70.0001 1.49893C70.0001 0.671095 69.2222 0 68.2625 0C67.3029 0 66.5249 0.671095 66.5249 1.49893C66.5249 2.32677 67.3029 2.99787 68.2625 2.99787Z" fill="#4BA9EF" fill-opacity="0.45"/>
<path d="M60.5419 1.49893C60.5419 0.669575 59.7631 0 58.8048 0C57.8434 0 57.0671 0.672111 57.0671 1.49893C57.0671 2.32829 57.8464 2.99787 58.8048 2.99787C59.7631 2.99787 60.5419 2.32829 60.5419 1.49893Z" fill="#4BA9EF" fill-opacity="0.45"/>
<path d="M51.0817 1.49893C51.0817 0.669575 50.3024 0 49.3441 0C48.3827 0 47.6064 0.672111 47.6064 1.49893C47.6064 2.32829 48.3857 2.99787 49.3441 2.99787C50.3024 3.0004 51.0817 2.32829 51.0817 1.49893Z" fill="#4BA9EF" fill-opacity="0.45"/>
<path d="M41.6235 1.49893C41.6235 0.669575 40.8444 0 39.8859 0C38.9246 0 38.1455 0.672111 38.1455 1.49893C38.1455 2.32829 38.9246 2.99787 39.883 2.99787C40.8444 3.0004 41.6235 2.32829 41.6235 1.49893Z" fill="#4BA9EF" fill-opacity="0.45"/>
<path d="M32.1628 1.49893C32.1628 0.672111 31.3837 0 30.4252 0C29.4639 0 28.6877 0.672111 28.6877 1.49893C28.6877 2.32829 29.4668 2.99787 30.4252 2.99787C31.3837 2.99787 32.1628 2.32829 32.1628 1.49893Z" fill="#4BA9EF" fill-opacity="0.45"/>
<path d="M22.7048 1.49893C22.7048 0.672111 21.9257 0 20.9643 0C20.0059 0 19.2268 0.672111 19.2268 1.49893C19.2268 2.32829 20.0059 2.99787 20.9643 2.99787C21.9257 3.0004 22.7048 2.32829 22.7048 1.49893Z" fill="#4BA9EF" fill-opacity="0.45"/>
<path d="M68.2625 45.0685C69.2222 45.0685 70.0001 44.3974 70.0001 43.5697C70.0001 42.7416 69.2222 42.0705 68.2625 42.0705C67.3029 42.0705 66.5249 42.7416 66.5249 43.5697C66.5249 44.3974 67.3029 45.0685 68.2625 45.0685Z" fill="#4BA9EF" fill-opacity="0.45"/>
<path d="M60.5419 43.5697C60.5419 42.7402 59.7631 42.0705 58.8048 42.0705C57.8464 42.0705 57.0671 42.7427 57.0671 43.5697C57.0671 44.3988 57.8464 45.0685 58.8048 45.0685C59.7631 45.0685 60.5419 44.3988 60.5419 43.5697Z" fill="#4BA9EF" fill-opacity="0.45"/>
<path d="M51.0817 43.5697C51.0817 42.7402 50.3024 42.0705 49.3441 42.0705C48.3827 42.0705 47.6064 42.7427 47.6064 43.5697C47.6064 44.3988 48.3857 45.0685 49.3441 45.0685C50.3024 45.071 51.0817 44.3988 51.0817 43.5697Z" fill="#4BA9EF" fill-opacity="0.45"/>
<path d="M41.6234 43.5697C41.6234 42.7402 40.8444 42.0705 39.8859 42.0705C38.9246 42.0705 38.1484 42.7427 38.1484 43.5697C38.1484 44.3988 38.9275 45.0685 39.8859 45.0685C40.8444 45.071 41.6234 44.3988 41.6234 43.5697Z" fill="#4BA9EF" fill-opacity="0.45"/>
<path d="M32.1628 43.5697C32.1628 42.7402 31.3837 42.0705 30.4252 42.0705C29.4668 42.0705 28.6877 42.7427 28.6877 43.5697C28.6877 44.3988 29.4668 45.0685 30.4252 45.0685C31.3837 45.0685 32.1628 44.3988 32.1628 43.5697Z" fill="#4BA9EF" fill-opacity="0.45"/>
<path d="M22.7048 43.5697C22.7048 42.7402 21.9257 42.0705 20.9672 42.0705C20.0059 42.0705 19.2268 42.7427 19.2268 43.5697C19.2268 44.3988 20.0059 45.0685 20.9643 45.0685C21.9257 45.071 22.7048 44.3988 22.7048 43.5697Z" fill="#4BA9EF" fill-opacity="0.45"/>
<path d="M68.2625 36.7318C69.2222 36.7318 70.0001 36.0607 70.0001 35.2328C70.0001 34.405 69.2222 33.7338 68.2625 33.7338C67.3029 33.7338 66.5249 34.405 66.5249 35.2328C66.5249 36.0607 67.3029 36.7318 68.2625 36.7318Z" fill="#4BA9EF" fill-opacity="0.45"/>
<path d="M60.5419 35.2328C60.5419 34.4034 59.7631 33.7338 58.8048 33.7338C57.8464 33.7338 57.0671 34.406 57.0671 35.2328C57.0671 36.0621 57.8464 36.7318 58.8048 36.7318C59.7631 36.7318 60.5419 36.0621 60.5419 35.2328Z" fill="#4BA9EF" fill-opacity="0.45"/>
<path d="M51.0817 35.2328C51.0817 34.4034 50.3024 33.7338 49.3441 33.7338C48.3827 33.7338 47.6064 34.406 47.6064 35.2328C47.6064 36.0621 48.3857 36.7318 49.3441 36.7318C50.3024 36.7343 51.0817 36.0621 51.0817 35.2328Z" fill="#4BA9EF" fill-opacity="0.45"/>
<path d="M41.6234 35.2328C41.6234 34.4034 40.8444 33.7338 39.8859 33.7338C38.9246 33.7338 38.1484 34.406 38.1484 35.2328C38.1484 36.0621 38.9275 36.7318 39.8859 36.7318C40.8444 36.7343 41.6234 36.0621 41.6234 35.2328Z" fill="#4BA9EF" fill-opacity="0.45"/>
<path d="M32.1628 35.2328C32.1628 34.4034 31.3837 33.7338 30.4252 33.7338C29.4668 33.7338 28.6877 34.406 28.6877 35.2328C28.6877 36.0621 29.4668 36.7318 30.4252 36.7318C31.3837 36.7318 32.1628 36.0621 32.1628 35.2328Z" fill="#4BA9EF" fill-opacity="0.45"/>
<path d="M22.7048 35.2328C22.7048 34.4034 21.9257 33.7338 20.9672 33.7338C20.0059 33.7338 19.2268 34.406 19.2268 35.2328C19.2268 36.0621 20.0059 36.7318 20.9643 36.7318C21.9257 36.7343 22.7048 36.0621 22.7048 35.2328Z" fill="#4BA9EF" fill-opacity="0.45"/>
<path d="M68.2625 28.3949C69.2222 28.3949 70.0001 27.7238 70.0001 26.896C70.0001 26.0682 69.2222 25.3971 68.2625 25.3971C67.3029 25.3971 66.5249 26.0682 66.5249 26.896C66.5249 27.7238 67.3029 28.3949 68.2625 28.3949Z" fill="#4BA9EF" fill-opacity="0.45"/>
<path d="M60.5419 26.896C60.5419 26.0667 59.7631 25.3971 58.8048 25.3971C57.8434 25.3971 57.0671 26.0692 57.0671 26.896C57.0671 27.7254 57.8464 28.3949 58.8048 28.3949C59.7631 28.3949 60.5419 27.7254 60.5419 26.896Z" fill="#4BA9EF" fill-opacity="0.45"/>
<path d="M51.0817 26.896C51.0817 26.0667 50.3024 25.3971 49.3441 25.3971C48.3827 25.3971 47.6064 26.0692 47.6064 26.896C47.6064 27.7254 48.3857 28.3949 49.3441 28.3949C50.3024 28.3975 51.0817 27.7254 51.0817 26.896Z" fill="#4BA9EF" fill-opacity="0.45"/>
<path d="M41.6235 26.896C41.6235 26.0667 40.8444 25.3971 39.8859 25.3971C38.9246 25.3971 38.1455 26.0692 38.1455 26.896C38.1455 27.7254 38.9246 28.3949 39.883 28.3949C40.8444 28.3975 41.6235 27.7254 41.6235 26.896Z" fill="#4BA9EF" fill-opacity="0.45"/>
<path d="M32.1628 26.896C32.1628 26.0692 31.3837 25.3971 30.4252 25.3971C29.4639 25.3971 28.6877 26.0692 28.6877 26.896C28.6877 27.7254 29.4668 28.3949 30.4252 28.3949C31.3837 28.3949 32.1628 27.7254 32.1628 26.896Z" fill="#4BA9EF" fill-opacity="0.45"/>
<path d="M22.7048 26.896C22.7048 26.0692 21.9257 25.3971 20.9643 25.3971C20.0059 25.3971 19.2268 26.0692 19.2268 26.896C19.2268 27.7254 20.0059 28.3949 20.9643 28.3949C21.9257 28.3975 22.7048 27.7254 22.7048 26.896Z" fill="#4BA9EF" fill-opacity="0.45"/>
<path d="M11.1953 19.6712C12.1549 19.6712 12.9328 19.0001 12.9328 18.1722C12.9328 17.3444 12.1549 16.6733 11.1953 16.6733C10.2357 16.6733 9.45776 17.3444 9.45776 18.1722C9.45776 19.0001 10.2357 19.6712 11.1953 19.6712Z" fill="#4BA9EF" fill-opacity="0.45"/>
<path d="M3.47502 18.1722C3.47502 17.3429 2.69593 16.6733 1.73751 16.6733C0.779082 16.6733 0 17.3454 0 18.1722C0 19.0016 0.779082 19.6712 1.73751 19.6712C2.69593 19.6712 3.47502 19.0016 3.47502 18.1722Z" fill="#4BA9EF" fill-opacity="0.45"/>
<path d="M11.1953 11.3345C12.1549 11.3345 12.9328 10.6634 12.9328 9.83557C12.9328 9.00774 12.1549 8.33661 11.1953 8.33661C10.2357 8.33661 9.45776 9.00774 9.45776 9.83557C9.45776 10.6634 10.2357 11.3345 11.1953 11.3345Z" fill="#4BA9EF" fill-opacity="0.45"/>
<path d="M3.47502 9.83557C3.47502 9.0062 2.69593 8.33661 1.73751 8.33661C0.779082 8.33661 0 9.00874 0 9.83557C0 10.6649 0.779082 11.3345 1.73751 11.3345C2.69593 11.3345 3.47502 10.6649 3.47502 9.83557Z" fill="#4BA9EF" fill-opacity="0.45"/>
<path d="M11.1953 2.99787C12.1549 2.99787 12.9328 2.32677 12.9328 1.49893C12.9328 0.671095 12.1549 0 11.1953 0C10.2357 0 9.45776 0.671095 9.45776 1.49893C9.45776 2.32677 10.2357 2.99787 11.1953 2.99787Z" fill="#4BA9EF" fill-opacity="0.45"/>
<path d="M3.47502 1.49893C3.47502 0.669575 2.69593 0 1.73751 0C0.776145 0 0 0.672111 0 1.49893C0 2.32829 0.779082 2.99787 1.73751 2.99787C2.69593 2.99787 3.47502 2.32829 3.47502 1.49893Z" fill="#4BA9EF" fill-opacity="0.45"/>
<path d="M11.1953 45.0685C12.1549 45.0685 12.9328 44.3974 12.9328 43.5697C12.9328 42.7416 12.1549 42.0705 11.1953 42.0705C10.2357 42.0705 9.45776 42.7416 9.45776 43.5697C9.45776 44.3974 10.2357 45.0685 11.1953 45.0685Z" fill="#4BA9EF" fill-opacity="0.45"/>
<path d="M3.47502 43.5697C3.47502 42.7402 2.69593 42.0705 1.73751 42.0705C0.779082 42.0705 0 42.7427 0 43.5697C0 44.3988 0.779082 45.0685 1.73751 45.0685C2.69593 45.0685 3.47502 44.3988 3.47502 43.5697Z" fill="#4BA9EF" fill-opacity="0.45"/>
<path d="M11.1953 36.7318C12.1549 36.7318 12.9328 36.0607 12.9328 35.2328C12.9328 34.405 12.1549 33.7338 11.1953 33.7338C10.2357 33.7338 9.45776 34.405 9.45776 35.2328C9.45776 36.0607 10.2357 36.7318 11.1953 36.7318Z" fill="#4BA9EF" fill-opacity="0.45"/>
<path d="M3.47502 35.2328C3.47502 34.4034 2.69593 33.7338 1.73751 33.7338C0.779082 33.7338 0 34.406 0 35.2328C0 36.0621 0.779082 36.7318 1.73751 36.7318C2.69593 36.7318 3.47502 36.0621 3.47502 35.2328Z" fill="#4BA9EF" fill-opacity="0.45"/>
<path d="M11.1953 28.3949C12.1549 28.3949 12.9328 27.7238 12.9328 26.896C12.9328 26.0682 12.1549 25.3971 11.1953 25.3971C10.2357 25.3971 9.45776 26.0682 9.45776 26.896C9.45776 27.7238 10.2357 28.3949 11.1953 28.3949Z" fill="#4BA9EF" fill-opacity="0.45"/>
<path d="M3.47502 26.896C3.47502 26.0667 2.69593 25.3971 1.73751 25.3971C0.776145 25.3971 0 26.0692 0 26.896C0 27.7254 0.779082 28.3949 1.73751 28.3949C2.69593 28.3949 3.47502 27.7254 3.47502 26.896Z" fill="#4BA9EF" fill-opacity="0.45"/>
</svg>
