<svg width="355" height="74" viewBox="0 0 355 74" fill="none" xmlns="http://www.w3.org/2000/svg">
<g clip-path="url(#clip0_46_3291)">
<path d="M30.91 62.0599C27.44 56.5199 23.13 47.0599 22.32 33.2399C21.9 26.1299 23.67 21.2399 27.56 18.7699C33.88 14.7699 43.56 18.6999 46.85 20.2299C49.8995 18.7733 53.1428 17.763 56.48 17.2299V8.66992H0V65.1599H35C33.3101 64.6484 31.8592 63.5487 30.91 62.0599Z" fill="white"/>
<path d="M50.14 61.84L46.9 57.48L43.19 62.37C42.2374 63.7087 40.8647 64.6907 39.29 65.16H56.48C55.2342 65.1569 54.0075 64.8536 52.9039 64.2756C51.8002 63.6977 50.8522 62.8622 50.14 61.84Z" fill="white"/>
<path d="M97.1031 37.1799H86.9386V4.24175H97.5534C100.749 4.24175 103.483 4.90116 105.756 6.21997C108.029 7.52806 109.771 9.40978 110.983 11.8651C112.194 14.3098 112.8 17.2369 112.8 20.6465C112.8 24.0776 112.189 27.0315 110.967 29.5083C109.744 31.9744 107.965 33.8722 105.627 35.2017C103.29 36.5205 100.448 37.1799 97.1031 37.1799ZM90.9272 33.6417H96.8457C99.5692 33.6417 101.826 33.1163 103.617 32.0655C105.407 31.0147 106.742 29.519 107.621 27.5783C108.501 25.6376 108.94 23.327 108.94 20.6465C108.94 17.9874 108.506 15.6983 107.638 13.779C106.769 11.8491 105.472 10.3694 103.745 9.34009C102.019 8.30005 99.8694 7.78003 97.2961 7.78003H90.9272V33.6417ZM119.491 37.1799V4.24175H139.369V7.78003H123.479V18.9095H138.34V22.4478H123.479V33.6417H139.627V37.1799H119.491ZM172.678 4.24175V37.1799H168.818L150.869 11.3183H150.547V37.1799H146.559V4.24175H150.419L168.432 30.1677H168.753V4.24175H172.678ZM178.857 7.78003V4.24175H203.561V7.78003H193.204V37.1799H189.215V7.78003H178.857ZM207.22 37.1799H203.038L215.133 4.24175H219.25L231.345 37.1799H227.163L217.32 9.45267H217.063L207.22 37.1799ZM208.764 24.3135H225.619V27.8517H208.764V24.3135ZM254.488 12.4763C254.295 10.8465 253.513 9.58134 252.14 8.68068C250.768 7.78003 249.084 7.3297 247.09 7.3297C245.632 7.3297 244.356 7.56559 243.262 8.03736C242.179 8.50913 241.332 9.15781 240.721 9.98341C240.121 10.809 239.82 11.7472 239.82 12.798C239.82 13.6772 240.03 14.4331 240.448 15.0657C240.877 15.6876 241.423 16.2076 242.088 16.6257C242.753 17.0332 243.45 17.3709 244.179 17.639C244.908 17.8963 245.578 18.1054 246.189 18.2662L249.535 19.1669C250.392 19.392 251.347 19.703 252.397 20.0997C253.459 20.4964 254.472 21.0379 255.437 21.7241C256.413 22.3996 257.217 23.2681 257.85 24.3295C258.482 25.391 258.799 26.6938 258.799 28.2377C258.799 30.0176 258.332 31.6259 257.399 33.0627C256.477 34.4994 255.126 35.6413 253.346 36.4884C251.577 37.3354 249.427 37.7589 246.897 37.7589C244.538 37.7589 242.496 37.3783 240.769 36.617C239.054 35.8558 237.703 34.7943 236.716 33.4326C235.741 32.0709 235.189 30.4894 235.06 28.6881H239.177C239.284 29.9318 239.703 30.9611 240.432 31.776C241.171 32.5802 242.104 33.1806 243.23 33.5773C244.367 33.9633 245.589 34.1563 246.897 34.1563C248.42 34.1563 249.787 33.9097 250.998 33.4165C252.21 32.9125 253.169 32.2156 253.877 31.3257C254.585 30.425 254.939 29.3743 254.939 28.1734C254.939 27.0797 254.633 26.1898 254.022 25.5036C253.411 24.8174 252.607 24.2598 251.609 23.831C250.612 23.4021 249.535 23.0268 248.377 22.7051L244.324 21.5472C241.75 20.8073 239.713 19.7512 238.212 18.3788C236.711 17.0064 235.961 15.2104 235.961 12.991C235.961 11.1468 236.459 9.53845 237.456 8.16602C238.464 6.78288 239.815 5.71067 241.509 4.9494C243.214 4.17742 245.117 3.79142 247.219 3.79142C249.342 3.79142 251.229 4.17205 252.88 4.93332C254.531 5.68386 255.839 6.71318 256.804 8.02128C257.78 9.32937 258.295 10.8144 258.348 12.4763H254.488ZM263.555 7.78003V4.24175H288.259V7.78003H277.901V37.1799H273.913V7.78003H263.555ZM291.918 37.1799H287.736L299.831 4.24175H303.948L316.042 37.1799H311.861L302.018 9.45267H301.76L291.918 37.1799ZM293.462 24.3135H310.317V27.8517H293.462V24.3135ZM321.173 37.1799V4.24175H332.302C334.876 4.24175 336.988 4.68135 338.639 5.56056C340.29 6.42905 341.513 7.62456 342.306 9.14709C343.099 10.6696 343.496 12.4012 343.496 14.3419C343.496 16.2826 343.099 18.0035 342.306 19.5046C341.513 21.0057 340.296 22.1851 338.655 23.0429C337.015 23.8899 334.918 24.3135 332.367 24.3135H323.36V20.7108H332.238C333.996 20.7108 335.412 20.4535 336.484 19.9389C337.567 19.4242 338.35 18.6951 338.832 17.7516C339.325 16.7973 339.572 15.6607 339.572 14.3419C339.572 13.0231 339.325 11.8705 338.832 10.8841C338.339 9.89764 337.551 9.13637 336.468 8.60027C335.385 8.05344 333.953 7.78003 332.174 7.78003H325.161V37.1799H321.173ZM336.677 22.3835L344.783 37.1799H340.151L332.174 22.3835H336.677Z" fill="white"/>
<g opacity="0.65">
<path d="M93.1839 64.401C91.9198 64.401 90.8313 64.1026 89.9184 63.5056C89.0054 62.9087 88.3031 62.0865 87.8115 61.0389C87.3199 59.9913 87.0741 58.7945 87.0741 57.4485C87.0741 56.0791 87.3258 54.8706 87.8291 53.823C88.3382 52.7696 89.0464 51.9474 89.9535 51.3563C90.8664 50.7594 91.9315 50.4609 93.1488 50.4609C94.0969 50.4609 94.9513 50.6365 95.7121 50.9876C96.4729 51.3388 97.0962 51.8303 97.5819 52.4624C98.0676 53.0944 98.369 53.8318 98.4861 54.6745H96.4144C96.2564 54.0601 95.9052 53.5158 95.361 53.0418C94.8226 52.5619 94.0969 52.3219 93.1839 52.3219C92.3763 52.3219 91.6682 52.5326 91.0595 52.954C90.4568 53.3695 89.9857 53.9576 89.6462 54.7184C89.3126 55.4734 89.1459 56.36 89.1459 57.3783C89.1459 58.42 89.3097 59.3271 89.6374 60.0996C89.971 60.8721 90.4392 61.472 91.042 61.8992C91.6506 62.3264 92.3646 62.54 93.1839 62.54C93.7223 62.54 94.211 62.4464 94.6499 62.2591C95.0888 62.0718 95.4605 61.8026 95.7648 61.4515C96.0691 61.1003 96.2856 60.679 96.4144 60.1874H98.4861C98.369 60.9833 98.0793 61.7002 97.617 62.3381C97.1605 62.9701 96.5548 63.4734 95.7999 63.848C95.0508 64.2167 94.1788 64.401 93.1839 64.401ZM100.452 52.5677V50.6365H111.408V52.5677H106.984V64.1201H104.912V52.5677H100.452ZM119.208 64.401C117.99 64.401 116.922 64.1113 116.003 63.532C115.09 62.9526 114.376 62.142 113.861 61.1003C113.352 60.0586 113.098 58.8414 113.098 57.4485C113.098 56.044 113.352 54.8179 113.861 53.7704C114.376 52.7228 115.09 51.9094 116.003 51.33C116.922 50.7506 117.99 50.4609 119.208 50.4609C120.425 50.4609 121.49 50.7506 122.403 51.33C123.322 51.9094 124.036 52.7228 124.545 53.7704C125.06 54.8179 125.317 56.044 125.317 57.4485C125.317 58.8414 125.06 60.0586 124.545 61.1003C124.036 62.142 123.322 62.9526 122.403 63.532C121.49 64.1113 120.425 64.401 119.208 64.401ZM119.208 62.54C120.132 62.54 120.893 62.303 121.49 61.829C122.087 61.3549 122.529 60.7317 122.815 59.9592C123.102 59.1867 123.246 58.3498 123.246 57.4485C123.246 56.5473 123.102 55.7075 122.815 54.9291C122.529 54.1508 122.087 53.5217 121.49 53.0418C120.893 52.5619 120.132 52.3219 119.208 52.3219C118.283 52.3219 117.522 52.5619 116.925 53.0418C116.328 53.5217 115.886 54.1508 115.6 54.9291C115.313 55.7075 115.169 56.5473 115.169 57.4485C115.169 58.3498 115.313 59.1867 115.6 59.9592C115.886 60.7317 116.328 61.3549 116.925 61.829C117.522 62.303 118.283 62.54 119.208 62.54ZM135.854 61.311L140.559 50.6365H142.525L136.696 64.1201H135.011L129.287 50.6365H131.219L135.854 61.311ZM130.551 50.6365V64.1201H128.48V50.6365H130.551ZM141.156 64.1201V50.6365H143.227V64.1201H141.156ZM150.988 64.4361C150.133 64.4361 149.358 64.2752 148.661 63.9533C147.965 63.6256 147.412 63.1545 147.002 62.54C146.592 61.9197 146.388 61.1706 146.388 60.2927C146.388 59.5202 146.54 58.894 146.844 58.4142C147.148 57.9284 147.555 57.548 148.064 57.273C148.573 56.9979 149.135 56.7931 149.75 56.6585C150.37 56.518 150.993 56.4068 151.62 56.3249C152.439 56.2195 153.103 56.1405 153.612 56.0879C154.127 56.0294 154.502 55.9328 154.736 55.7982C154.976 55.6636 155.096 55.4295 155.096 55.0959V55.0257C155.096 54.1595 154.859 53.4865 154.385 53.0067C153.917 52.5268 153.206 52.2868 152.252 52.2868C151.263 52.2868 150.487 52.5034 149.925 52.9364C149.364 53.3695 148.969 53.8318 148.74 54.3234L146.774 53.6211C147.125 52.8018 147.593 52.1639 148.178 51.7074C148.77 51.2451 149.413 50.9232 150.11 50.7418C150.812 50.5545 151.503 50.4609 152.181 50.4609C152.614 50.4609 153.112 50.5136 153.674 50.6189C154.241 50.7184 154.789 50.9262 155.315 51.2422C155.848 51.5582 156.29 52.0352 156.641 52.6731C156.992 53.311 157.168 54.1654 157.168 55.2364V64.1201H155.096V62.2942H154.991C154.85 62.5868 154.616 62.8999 154.288 63.2335C153.961 63.5671 153.525 63.8509 152.98 64.085C152.436 64.3191 151.772 64.4361 150.988 64.4361ZM151.304 62.5751C152.123 62.5751 152.813 62.4142 153.375 62.0923C153.943 61.7704 154.37 61.3549 154.657 60.8458C154.95 60.3366 155.096 59.8011 155.096 59.2393V57.3432C155.008 57.4485 154.815 57.5451 154.516 57.6329C154.224 57.7148 153.884 57.788 153.498 57.8523C153.118 57.9109 152.746 57.9635 152.383 58.0103C152.026 58.0513 151.737 58.0864 151.514 58.1157C150.976 58.1859 150.473 58.3 150.004 58.458C149.542 58.6102 149.167 58.8414 148.881 59.1515C148.6 59.4559 148.459 59.8714 148.459 60.3981C148.459 61.1179 148.726 61.6622 149.258 62.0309C149.797 62.3937 150.478 62.5751 151.304 62.5751ZM159.114 52.5677V50.6365H170.07V52.5677H165.645V64.1201H163.574V52.5677H159.114ZM177.869 64.401C176.652 64.401 175.584 64.1113 174.665 63.532C173.752 62.9526 173.038 62.142 172.523 61.1003C172.014 60.0586 171.759 58.8414 171.759 57.4485C171.759 56.044 172.014 54.8179 172.523 53.7704C173.038 52.7228 173.752 51.9094 174.665 51.33C175.584 50.7506 176.652 50.4609 177.869 50.4609C179.087 50.4609 180.152 50.7506 181.065 51.33C181.983 51.9094 182.697 52.7228 183.207 53.7704C183.722 54.8179 183.979 56.044 183.979 57.4485C183.979 58.8414 183.722 60.0586 183.207 61.1003C182.697 62.142 181.983 62.9526 181.065 63.532C180.152 64.1113 179.087 64.401 177.869 64.401ZM177.869 62.54C178.794 62.54 179.555 62.303 180.152 61.829C180.749 61.3549 181.19 60.7317 181.477 59.9592C181.764 59.1867 181.907 58.3498 181.907 57.4485C181.907 56.5473 181.764 55.7075 181.477 54.9291C181.19 54.1508 180.749 53.5217 180.152 53.0418C179.555 52.5619 178.794 52.3219 177.869 52.3219C176.945 52.3219 176.184 52.5619 175.587 53.0418C174.99 53.5217 174.548 54.1508 174.261 54.9291C173.975 55.7075 173.831 56.5473 173.831 57.4485C173.831 58.3498 173.975 59.1867 174.261 59.9592C174.548 60.7317 174.99 61.3549 175.587 61.829C176.184 62.303 176.945 62.54 177.869 62.54ZM185.948 64.1201V62.1889H186.439C186.843 62.1889 187.179 62.1099 187.449 61.9519C187.718 61.788 187.934 61.5042 188.098 61.1003C188.268 60.6907 188.397 60.123 188.485 59.3973C188.578 58.6658 188.645 57.7353 188.686 56.6058L188.932 50.6365H197.921V64.1201H195.85V52.5677H190.899L190.688 57.3783C190.641 58.4844 190.542 59.4588 190.389 60.3015C190.243 61.1384 190.018 61.8407 189.714 62.4083C189.415 62.976 189.017 63.4032 188.52 63.69C188.022 63.9767 187.399 64.1201 186.65 64.1201H185.948ZM207.2 64.401C205.983 64.401 204.915 64.1113 203.996 63.532C203.083 62.9526 202.369 62.142 201.854 61.1003C201.345 60.0586 201.09 58.8414 201.09 57.4485C201.09 56.044 201.345 54.8179 201.854 53.7704C202.369 52.7228 203.083 51.9094 203.996 51.33C204.915 50.7506 205.983 50.4609 207.2 50.4609C208.417 50.4609 209.482 50.7506 210.395 51.33C211.314 51.9094 212.028 52.7228 212.537 53.7704C213.052 54.8179 213.31 56.044 213.31 57.4485C213.31 58.8414 213.052 60.0586 212.537 61.1003C212.028 62.142 211.314 62.9526 210.395 63.532C209.482 64.1113 208.417 64.401 207.2 64.401ZM207.2 62.54C208.125 62.54 208.886 62.303 209.482 61.829C210.079 61.3549 210.521 60.7317 210.808 59.9592C211.095 59.1867 211.238 58.3498 211.238 57.4485C211.238 56.5473 211.095 55.7075 210.808 54.9291C210.521 54.1508 210.079 53.5217 209.482 53.0418C208.886 52.5619 208.125 52.3219 207.2 52.3219C206.275 52.3219 205.515 52.5619 204.918 53.0418C204.321 53.5217 203.879 54.1508 203.592 54.9291C203.305 55.7075 203.162 56.5473 203.162 57.4485C203.162 58.3498 203.305 59.1867 203.592 59.9592C203.879 60.7317 204.321 61.3549 204.918 61.829C205.515 62.303 206.275 62.54 207.2 62.54ZM224.794 50.6365V52.5677H218.544V64.1201H216.472V50.6365H224.794ZM229.89 61.0652L236.386 50.6365H238.774V64.1201H236.702V53.6914L230.241 64.1201H227.818V50.6365H229.89V61.0652ZM250.68 64.1201V52.5326H247.098C246.29 52.5326 245.655 52.7199 245.193 53.0944C244.731 53.469 244.5 53.984 244.5 54.6394C244.5 55.2832 244.707 55.7894 245.123 56.1581C245.544 56.5268 246.121 56.7111 246.852 56.7111H251.206V58.6424H246.852C245.939 58.6424 245.152 58.4815 244.491 58.1596C243.829 57.8377 243.32 57.3783 242.963 56.7814C242.606 56.1786 242.428 55.4646 242.428 54.6394C242.428 53.8084 242.615 53.0944 242.99 52.4975C243.364 51.9006 243.9 51.4412 244.596 51.1193C245.298 50.7974 246.132 50.6365 247.098 50.6365H252.646V64.1201H250.68ZM241.69 64.1201L245.518 57.4134H247.765L243.938 64.1201H241.69Z" fill="white"/>
</g>
</g>
<defs>
<clipPath id="clip0_46_3291">
<rect width="354.57" height="73.12" fill="white"/>
</clipPath>
</defs>
</svg>
