<svg width="355" height="74" viewBox="0 0 355 74" fill="none" xmlns="http://www.w3.org/2000/svg">
<g clip-path="url(#clip0_215_132)">
<path d="M30.91 62.0599C27.44 56.5199 23.13 47.0599 22.32 33.2399C21.9 26.1299 23.67 21.2399 27.56 18.7699C33.88 14.7699 43.56 18.6999 46.85 20.2299C49.8995 18.7733 53.1428 17.763 56.48 17.2299V8.66992H0V65.1599H35C33.3101 64.6484 31.8592 63.5487 30.91 62.0599Z" fill="#8EC9EE"/>
<path d="M50.14 61.84L46.9 57.48L43.19 62.37C42.2374 63.7087 40.8647 64.6907 39.29 65.16H56.48C55.2342 65.1569 54.0075 64.8536 52.9039 64.2756C51.8002 63.6977 50.8522 62.8622 50.14 61.84Z" fill="#8EC9EE"/>
<path d="M97.1031 41.1799H86.9386V8.24175H97.5534C100.749 8.24175 103.483 8.90116 105.756 10.22C108.029 11.5281 109.771 13.4098 110.983 15.8651C112.194 18.3098 112.8 21.2369 112.8 24.6465C112.8 28.0776 112.189 31.0315 110.967 33.5083C109.744 35.9744 107.965 37.8722 105.627 39.2017C103.29 40.5205 100.448 41.1799 97.1031 41.1799ZM90.9272 37.6417H96.8457C99.5692 37.6417 101.826 37.1163 103.617 36.0655C105.407 35.0147 106.742 33.519 107.621 31.5783C108.501 29.6376 108.94 27.327 108.94 24.6465C108.94 21.9874 108.506 19.6983 107.638 17.779C106.769 15.8491 105.472 14.3694 103.745 13.3401C102.019 12.3 99.8694 11.78 97.2961 11.78H90.9272V37.6417ZM119.491 41.1799V8.24175H139.369V11.78H123.479V22.9095H138.34V26.4478H123.479V37.6417H139.627V41.1799H119.491ZM172.678 8.24175V41.1799H168.818L150.869 15.3183H150.547V41.1799H146.559V8.24175H150.419L168.432 34.1677H168.753V8.24175H172.678ZM178.857 11.78V8.24175H203.561V11.78H193.204V41.1799H189.215V11.78H178.857ZM207.22 41.1799H203.038L215.133 8.24175H219.25L231.345 41.1799H227.163L217.32 13.4527H217.063L207.22 41.1799ZM208.764 28.3135H225.619V31.8517H208.764V28.3135ZM254.488 16.4763C254.295 14.8465 253.513 13.5813 252.14 12.6807C250.768 11.78 249.084 11.3297 247.09 11.3297C245.632 11.3297 244.356 11.5656 243.262 12.0374C242.179 12.5091 241.332 13.1578 240.721 13.9834C240.121 14.809 239.82 15.7472 239.82 16.798C239.82 17.6772 240.03 18.4331 240.448 19.0657C240.877 19.6876 241.423 20.2076 242.088 20.6257C242.753 21.0332 243.45 21.3709 244.179 21.639C244.908 21.8963 245.578 22.1054 246.189 22.2662L249.535 23.1669C250.392 23.392 251.347 23.703 252.397 24.0997C253.459 24.4964 254.472 25.0379 255.437 25.7241C256.413 26.3996 257.217 27.2681 257.85 28.3295C258.482 29.391 258.799 30.6938 258.799 32.2377C258.799 34.0176 258.332 35.6259 257.399 37.0627C256.477 38.4994 255.126 39.6413 253.346 40.4884C251.577 41.3354 249.427 41.7589 246.897 41.7589C244.538 41.7589 242.496 41.3783 240.769 40.617C239.054 39.8558 237.703 38.7943 236.716 37.4326C235.741 36.0709 235.189 34.4894 235.06 32.6881H239.177C239.284 33.9318 239.703 34.9611 240.432 35.776C241.171 36.5802 242.104 37.1806 243.23 37.5773C244.367 37.9633 245.589 38.1563 246.897 38.1563C248.42 38.1563 249.787 37.9097 250.998 37.4165C252.21 36.9125 253.169 36.2156 253.877 35.3257C254.585 34.425 254.939 33.3743 254.939 32.1734C254.939 31.0797 254.633 30.1898 254.022 29.5036C253.411 28.8174 252.607 28.2598 251.609 27.831C250.612 27.4021 249.535 27.0268 248.377 26.7051L244.324 25.5472C241.75 24.8073 239.713 23.7512 238.212 22.3788C236.711 21.0064 235.961 19.2104 235.961 16.991C235.961 15.1468 236.459 13.5384 237.456 12.166C238.464 10.7829 239.815 9.71067 241.509 8.9494C243.214 8.17742 245.117 7.79142 247.219 7.79142C249.342 7.79142 251.229 8.17205 252.88 8.93332C254.531 9.68386 255.839 10.7132 256.804 12.0213C257.78 13.3294 258.295 14.8144 258.348 16.4763H254.488ZM263.555 11.78V8.24175H288.259V11.78H277.901V41.1799H273.913V11.78H263.555ZM291.918 41.1799H287.736L299.831 8.24175H303.948L316.042 41.1799H311.861L302.018 13.4527H301.76L291.918 41.1799ZM293.462 28.3135H310.317V31.8517H293.462V28.3135ZM321.173 41.1799V8.24175H332.302C334.876 8.24175 336.988 8.68135 338.639 9.56056C340.29 10.429 341.513 11.6246 342.306 13.1471C343.099 14.6696 343.496 16.4012 343.496 18.3419C343.496 20.2826 343.099 22.0035 342.306 23.5046C341.513 25.0057 340.296 26.1851 338.655 27.0429C337.015 27.8899 334.918 28.3135 332.367 28.3135H323.36V24.7108H332.238C333.996 24.7108 335.412 24.4535 336.484 23.9389C337.567 23.4242 338.35 22.6951 338.832 21.7516C339.325 20.7973 339.572 19.6607 339.572 18.3419C339.572 17.0231 339.325 15.8705 338.832 14.8841C338.339 13.8976 337.551 13.1364 336.468 12.6003C335.385 12.0534 333.953 11.78 332.174 11.78H325.161V41.1799H321.173ZM336.677 26.3835L344.783 41.1799H340.151L332.174 26.3835H336.677Z" fill="#1D2250"/>
<g opacity="0.65">
<path d="M93.1839 68.401C91.9198 68.401 90.8313 68.1026 89.9184 67.5056C89.0054 66.9087 88.3031 66.0865 87.8115 65.0389C87.3199 63.9913 87.0741 62.7945 87.0741 61.4485C87.0741 60.0791 87.3258 58.8706 87.8291 57.823C88.3382 56.7696 89.0464 55.9474 89.9535 55.3563C90.8664 54.7594 91.9315 54.4609 93.1488 54.4609C94.0969 54.4609 94.9513 54.6365 95.7121 54.9876C96.4729 55.3388 97.0962 55.8303 97.5819 56.4624C98.0676 57.0944 98.369 57.8318 98.4861 58.6745H96.4144C96.2564 58.0601 95.9052 57.5158 95.361 57.0418C94.8226 56.5619 94.0969 56.3219 93.1839 56.3219C92.3763 56.3219 91.6682 56.5326 91.0595 56.954C90.4568 57.3695 89.9857 57.9576 89.6462 58.7184C89.3126 59.4734 89.1459 60.36 89.1459 61.3783C89.1459 62.42 89.3097 63.3271 89.6374 64.0996C89.971 64.8721 90.4392 65.472 91.042 65.8992C91.6506 66.3264 92.3646 66.54 93.1839 66.54C93.7223 66.54 94.211 66.4464 94.6499 66.2591C95.0888 66.0718 95.4605 65.8026 95.7648 65.4515C96.0691 65.1003 96.2856 64.679 96.4144 64.1874H98.4861C98.369 64.9833 98.0793 65.7002 97.617 66.3381C97.1605 66.9701 96.5548 67.4734 95.7999 67.848C95.0508 68.2167 94.1788 68.401 93.1839 68.401ZM100.452 56.5677V54.6365H111.408V56.5677H106.984V68.1201H104.912V56.5677H100.452ZM119.208 68.401C117.99 68.401 116.922 68.1113 116.003 67.532C115.09 66.9526 114.376 66.142 113.861 65.1003C113.352 64.0586 113.098 62.8414 113.098 61.4485C113.098 60.044 113.352 58.8179 113.861 57.7704C114.376 56.7228 115.09 55.9094 116.003 55.33C116.922 54.7506 117.99 54.4609 119.208 54.4609C120.425 54.4609 121.49 54.7506 122.403 55.33C123.322 55.9094 124.036 56.7228 124.545 57.7704C125.06 58.8179 125.317 60.044 125.317 61.4485C125.317 62.8414 125.06 64.0586 124.545 65.1003C124.036 66.142 123.322 66.9526 122.403 67.532C121.49 68.1113 120.425 68.401 119.208 68.401ZM119.208 66.54C120.132 66.54 120.893 66.303 121.49 65.829C122.087 65.3549 122.529 64.7317 122.815 63.9592C123.102 63.1867 123.246 62.3498 123.246 61.4485C123.246 60.5473 123.102 59.7075 122.815 58.9291C122.529 58.1508 122.087 57.5217 121.49 57.0418C120.893 56.5619 120.132 56.3219 119.208 56.3219C118.283 56.3219 117.522 56.5619 116.925 57.0418C116.328 57.5217 115.886 58.1508 115.6 58.9291C115.313 59.7075 115.169 60.5473 115.169 61.4485C115.169 62.3498 115.313 63.1867 115.6 63.9592C115.886 64.7317 116.328 65.3549 116.925 65.829C117.522 66.303 118.283 66.54 119.208 66.54ZM135.854 65.311L140.559 54.6365H142.525L136.696 68.1201H135.011L129.287 54.6365H131.219L135.854 65.311ZM130.551 54.6365V68.1201H128.48V54.6365H130.551ZM141.156 68.1201V54.6365H143.227V68.1201H141.156ZM150.988 68.4361C150.133 68.4361 149.358 68.2752 148.661 67.9533C147.965 67.6256 147.412 67.1545 147.002 66.54C146.592 65.9197 146.388 65.1706 146.388 64.2927C146.388 63.5202 146.54 62.894 146.844 62.4142C147.148 61.9284 147.555 61.548 148.064 61.273C148.573 60.9979 149.135 60.7931 149.75 60.6585C150.37 60.518 150.993 60.4068 151.62 60.3249C152.439 60.2195 153.103 60.1405 153.612 60.0879C154.127 60.0294 154.502 59.9328 154.736 59.7982C154.976 59.6636 155.096 59.4295 155.096 59.0959V59.0257C155.096 58.1595 154.859 57.4865 154.385 57.0067C153.917 56.5268 153.206 56.2868 152.252 56.2868C151.263 56.2868 150.487 56.5034 149.925 56.9364C149.364 57.3695 148.969 57.8318 148.74 58.3234L146.774 57.6211C147.125 56.8018 147.593 56.1639 148.178 55.7074C148.77 55.2451 149.413 54.9232 150.11 54.7418C150.812 54.5545 151.503 54.4609 152.181 54.4609C152.614 54.4609 153.112 54.5136 153.674 54.6189C154.241 54.7184 154.789 54.9262 155.315 55.2422C155.848 55.5582 156.29 56.0352 156.641 56.6731C156.992 57.311 157.168 58.1654 157.168 59.2364V68.1201H155.096V66.2942H154.991C154.85 66.5868 154.616 66.8999 154.288 67.2335C153.961 67.5671 153.525 67.8509 152.98 68.085C152.436 68.3191 151.772 68.4361 150.988 68.4361ZM151.304 66.5751C152.123 66.5751 152.813 66.4142 153.375 66.0923C153.943 65.7704 154.37 65.3549 154.657 64.8458C154.95 64.3366 155.096 63.8011 155.096 63.2393V61.3432C155.008 61.4485 154.815 61.5451 154.516 61.6329C154.224 61.7148 153.884 61.788 153.498 61.8523C153.118 61.9109 152.746 61.9635 152.383 62.0103C152.026 62.0513 151.737 62.0864 151.514 62.1157C150.976 62.1859 150.473 62.3 150.004 62.458C149.542 62.6102 149.167 62.8414 148.881 63.1515C148.6 63.4559 148.459 63.8714 148.459 64.3981C148.459 65.1179 148.726 65.6622 149.258 66.0309C149.797 66.3937 150.478 66.5751 151.304 66.5751ZM159.114 56.5677V54.6365H170.07V56.5677H165.645V68.1201H163.574V56.5677H159.114ZM177.869 68.401C176.652 68.401 175.584 68.1113 174.665 67.532C173.752 66.9526 173.038 66.142 172.523 65.1003C172.014 64.0586 171.759 62.8414 171.759 61.4485C171.759 60.044 172.014 58.8179 172.523 57.7704C173.038 56.7228 173.752 55.9094 174.665 55.33C175.584 54.7506 176.652 54.4609 177.869 54.4609C179.087 54.4609 180.152 54.7506 181.065 55.33C181.983 55.9094 182.697 56.7228 183.207 57.7704C183.722 58.8179 183.979 60.044 183.979 61.4485C183.979 62.8414 183.722 64.0586 183.207 65.1003C182.697 66.142 181.983 66.9526 181.065 67.532C180.152 68.1113 179.087 68.401 177.869 68.401ZM177.869 66.54C178.794 66.54 179.555 66.303 180.152 65.829C180.749 65.3549 181.19 64.7317 181.477 63.9592C181.764 63.1867 181.907 62.3498 181.907 61.4485C181.907 60.5473 181.764 59.7075 181.477 58.9291C181.19 58.1508 180.749 57.5217 180.152 57.0418C179.555 56.5619 178.794 56.3219 177.869 56.3219C176.945 56.3219 176.184 56.5619 175.587 57.0418C174.99 57.5217 174.548 58.1508 174.261 58.9291C173.975 59.7075 173.831 60.5473 173.831 61.4485C173.831 62.3498 173.975 63.1867 174.261 63.9592C174.548 64.7317 174.99 65.3549 175.587 65.829C176.184 66.303 176.945 66.54 177.869 66.54ZM185.948 68.1201V66.1889H186.439C186.843 66.1889 187.179 66.1099 187.449 65.9519C187.718 65.788 187.934 65.5042 188.098 65.1003C188.268 64.6907 188.397 64.123 188.485 63.3973C188.578 62.6658 188.645 61.7353 188.686 60.6058L188.932 54.6365H197.921V68.1201H195.85V56.5677H190.899L190.688 61.3783C190.641 62.4844 190.542 63.4588 190.389 64.3015C190.243 65.1384 190.018 65.8407 189.714 66.4083C189.415 66.976 189.017 67.4032 188.52 67.69C188.022 67.9767 187.399 68.1201 186.65 68.1201H185.948ZM207.2 68.401C205.983 68.401 204.915 68.1113 203.996 67.532C203.083 66.9526 202.369 66.142 201.854 65.1003C201.345 64.0586 201.09 62.8414 201.09 61.4485C201.09 60.044 201.345 58.8179 201.854 57.7704C202.369 56.7228 203.083 55.9094 203.996 55.33C204.915 54.7506 205.983 54.4609 207.2 54.4609C208.417 54.4609 209.482 54.7506 210.395 55.33C211.314 55.9094 212.028 56.7228 212.537 57.7704C213.052 58.8179 213.31 60.044 213.31 61.4485C213.31 62.8414 213.052 64.0586 212.537 65.1003C212.028 66.142 211.314 66.9526 210.395 67.532C209.482 68.1113 208.417 68.401 207.2 68.401ZM207.2 66.54C208.125 66.54 208.886 66.303 209.482 65.829C210.079 65.3549 210.521 64.7317 210.808 63.9592C211.095 63.1867 211.238 62.3498 211.238 61.4485C211.238 60.5473 211.095 59.7075 210.808 58.9291C210.521 58.1508 210.079 57.5217 209.482 57.0418C208.886 56.5619 208.125 56.3219 207.2 56.3219C206.275 56.3219 205.515 56.5619 204.918 57.0418C204.321 57.5217 203.879 58.1508 203.592 58.9291C203.305 59.7075 203.162 60.5473 203.162 61.4485C203.162 62.3498 203.305 63.1867 203.592 63.9592C203.879 64.7317 204.321 65.3549 204.918 65.829C205.515 66.303 206.275 66.54 207.2 66.54ZM224.794 54.6365V56.5677H218.544V68.1201H216.472V54.6365H224.794ZM229.89 65.0652L236.386 54.6365H238.774V68.1201H236.702V57.6914L230.241 68.1201H227.818V54.6365H229.89V65.0652ZM250.68 68.1201V56.5326H247.098C246.29 56.5326 245.655 56.7199 245.193 57.0944C244.731 57.469 244.5 57.984 244.5 58.6394C244.5 59.2832 244.707 59.7894 245.123 60.1581C245.544 60.5268 246.121 60.7111 246.852 60.7111H251.206V62.6424H246.852C245.939 62.6424 245.152 62.4815 244.491 62.1596C243.829 61.8377 243.32 61.3783 242.963 60.7814C242.606 60.1786 242.428 59.4646 242.428 58.6394C242.428 57.8084 242.615 57.0944 242.99 56.4975C243.364 55.9006 243.9 55.4412 244.596 55.1193C245.298 54.7974 246.132 54.6365 247.098 54.6365H252.646V68.1201H250.68ZM241.69 68.1201L245.518 61.4134H247.765L243.938 68.1201H241.69Z" fill="#1D2250"/>
</g>
</g>
<defs>
<clipPath id="clip0_215_132">
<rect width="354.57" height="73.12" fill="white"/>
</clipPath>
</defs>
</svg>
